<svg width="19" height="19" viewBox="0 0 19 19" fill="none" xmlns="http://www.w3.org/2000/svg">
<path d="M18.534 16.0392L13.9992 11.5044C14.7061 10.3441 15.079 9.01112 15.0768 7.6524C15.0768 3.552 11.5236 9.70335e-08 7.4232 9.70335e-08C6.44833 -0.000157535 5.48297 0.191742 4.58228 0.564737C3.68158 0.937732 2.86319 1.48451 2.17385 2.17385C1.48451 2.86319 0.937731 3.68158 0.564737 4.58228C0.191742 5.48297 -0.000157535 6.44833 9.70335e-08 7.4232C9.70335e-08 11.5224 3.5532 15.0756 7.6524 15.0756C8.96634 15.0768 10.2568 14.7271 11.3904 14.0628L15.9492 18.624C16.1636 18.8378 16.454 18.9579 16.7568 18.9579C17.0596 18.9579 17.35 18.8378 17.5644 18.624L18.696 17.4924C19.1412 17.0472 18.9792 16.4844 18.534 16.0392ZM2.2848 7.4232C2.28464 6.74831 2.41743 6.08001 2.67559 5.45645C2.93375 4.83289 3.31222 4.2663 3.78938 3.78903C4.26654 3.31176 4.83304 2.93316 5.45654 2.67485C6.08004 2.41655 6.74831 2.2836 7.4232 2.2836C10.2624 2.2836 12.792 4.812 12.792 7.6524C12.7917 9.01541 12.2501 10.3225 11.2863 11.2863C10.3225 12.2501 9.01541 12.7917 7.6524 12.792C4.8132 12.7908 2.2848 10.2612 2.2848 7.4232Z" fill="black"/>
</svg>
