<svg width="276" height="66" viewBox="0 0 276 66" fill="none" xmlns="http://www.w3.org/2000/svg">
<path d="M67.2963 19.7183H78.0951V16.5626H60.9999C60.9999 15.4089 61.4625 14.5267 62.3878 13.9159C63.3357 13.3051 64.5882 12.9998 66.1454 12.9998H78.7044C79.3814 12.9998 80.0246 13.0902 80.634 13.2712C81.2433 13.4522 81.7736 13.701 82.225 14.0177C82.6989 14.3118 83.0713 14.6737 83.3421 15.1035C83.6129 15.5334 83.7483 16.0084 83.7483 16.5287V26.4708C83.7483 27.0137 83.6129 27.5001 83.3421 27.9299C83.0713 28.3597 82.6989 28.733 82.225 29.0497C81.7736 29.3437 81.2433 29.5813 80.634 29.7622C80.0246 29.9206 79.3702 29.9998 78.6706 29.9998H66.1454C65.4232 29.9998 64.7462 29.9319 64.1143 29.7962C63.5049 29.6604 62.9633 29.4568 62.4894 29.1854C62.0154 28.8913 61.6431 28.5294 61.3722 28.0996C61.124 27.6471 60.9999 27.1155 60.9999 26.5047H78.0951V23.3151H67.2963V19.7183Z" fill="#2B2E34"/>
<path d="M103.329 29.9998C102.629 29.9998 102.043 29.9432 101.569 29.8301C101.117 29.717 100.711 29.5813 100.35 29.4229C100.012 29.2646 99.7069 29.0836 99.436 28.88C99.1652 28.6764 98.8944 28.4841 98.6236 28.3031L91.447 22.1614V26.7423C91.447 27.353 91.3003 27.8733 91.0069 28.3031C90.7361 28.7103 90.3637 29.0383 89.8898 29.2872C89.4159 29.536 88.863 29.717 88.2311 29.8301C87.6217 29.9432 86.9786 29.9998 86.3015 29.9998H85.7937V12.9998H91.447V20.4988L98.8267 12.9998H105.089L97.3711 20.9738L107.662 29.9998H103.329Z" fill="#2B2E34"/>
<path d="M132.443 26.5726C132.443 27.1834 132.308 27.7037 132.037 28.1335C131.766 28.5407 131.394 28.8913 130.92 29.1854C130.469 29.4568 129.927 29.6604 129.295 29.7962C128.663 29.9319 127.986 29.9998 127.264 29.9998H114.739C114.039 29.9998 113.385 29.9206 112.776 29.7622C112.166 29.5813 111.625 29.3437 111.151 29.0497C110.699 28.733 110.338 28.371 110.067 27.9638C109.819 27.534 109.695 27.0477 109.695 26.5047V16.4608C109.695 15.9632 109.819 15.4994 110.067 15.0696C110.338 14.6172 110.699 14.2439 111.151 13.9499C111.625 13.6332 112.166 13.3956 112.776 13.2373C113.385 13.0789 114.039 12.9998 114.739 12.9998H127.264C128.799 12.9998 130.04 13.3051 130.988 13.9159C131.958 14.5041 132.443 15.375 132.443 16.5287V26.5726ZM126.79 16.5626H115.348V26.5047H126.79V16.5626Z" fill="#2B2E34"/>
<path d="M151.584 29.9998V23.3151H140.142V29.9998H134.489V16.4608C134.489 15.9632 134.624 15.5107 134.895 15.1035C135.166 14.6737 135.527 14.3118 135.978 14.0177C136.452 13.701 136.994 13.4522 137.603 13.2712C138.213 13.0902 138.867 12.9998 139.567 12.9998H140.142V19.7862H151.618V12.9998H157.237V29.9998H151.584Z" fill="#2B2E34"/>
<path d="M189.768 26.5726C189.768 27.2965 189.576 27.8847 189.192 28.3371C188.831 28.7895 188.368 29.1401 187.804 29.389C187.263 29.6378 186.653 29.8075 185.976 29.898C185.322 29.9658 184.701 29.9998 184.114 29.9998H172.266V29.6604C172.266 28.8687 172.469 28.2579 172.876 27.8281C173.304 27.3757 173.79 27.059 174.331 26.878C174.895 26.6744 175.471 26.5613 176.058 26.5387C176.667 26.5161 177.141 26.5047 177.479 26.5047H184.114V23.3151H172.199C171.86 23.3151 171.397 23.3377 170.811 23.383C170.224 23.4056 169.637 23.3604 169.05 23.2473C168.486 23.1115 168.001 22.8514 167.595 22.4668C167.188 22.0596 166.985 21.4375 166.985 20.6006V13.0337H167.459C167.82 13.0337 168.294 13.0563 168.881 13.1016C169.49 13.1468 170.066 13.2599 170.607 13.4409C171.172 13.6218 171.657 13.9159 172.063 14.3231C172.469 14.7303 172.672 15.3185 172.672 16.0876V19.7183H184.114V12.9998H189.768V26.5726Z" fill="#2B2E34"/>
<path d="M214.561 19.7183C214.561 20.9173 213.985 21.8221 212.834 22.4329C211.683 23.021 210.137 23.3151 208.197 23.3151H199.734C199.734 22.9532 199.79 22.5573 199.903 22.1275C200.038 21.6751 200.23 21.2792 200.478 20.9399C200.749 20.6006 201.099 20.3178 201.528 20.0916C201.957 19.8427 202.464 19.7183 203.051 19.7183H208.874V16.5626H197.466V26.0297C197.466 27.6132 196.98 28.699 196.01 29.2872C195.513 29.5813 194.949 29.7735 194.317 29.864C193.685 29.9545 193.042 29.9998 192.388 29.9998H191.812V12.9998H209.381C210.916 12.9998 212.157 13.3051 213.105 13.9159C214.076 14.5267 214.561 15.4089 214.561 16.5626V19.7183Z" fill="#2B2E34"/>
<path d="M216.606 16.5626C216.606 15.4089 217.08 14.5267 218.028 13.9159C218.998 13.3051 220.251 12.9998 221.785 12.9998H244.026C245.561 12.9998 246.802 13.3051 247.75 13.9159C248.72 14.5267 249.205 15.4089 249.205 16.5626V22.3311C249.205 23.53 248.63 24.4349 247.479 25.0457C246.328 25.6338 244.782 25.9279 242.841 25.9279H235.732V26.0297C235.732 27.6132 235.247 28.699 234.277 29.2872C233.78 29.5813 233.216 29.7735 232.584 29.864C231.952 29.9545 231.309 29.9998 230.655 29.9998H230.079V25.9279H222.97C221.029 25.9279 219.484 25.6338 218.333 25.0457C217.182 24.4349 216.606 23.53 216.606 22.3311V16.5626ZM235.732 22.3311H243.518V16.5626H235.732V22.3311ZM222.293 22.3311H230.079V16.5626H222.293V22.3311Z" fill="#2B2E34"/>
<path d="M274 26.5726C274 27.1834 273.864 27.7037 273.594 28.1335C273.323 28.5407 272.95 28.8913 272.477 29.1854C272.025 29.4568 271.484 29.6604 270.852 29.7962C270.22 29.9319 269.543 29.9998 268.821 29.9998H256.295C255.596 29.9998 254.941 29.9206 254.332 29.7622C253.723 29.5813 253.181 29.3437 252.707 29.0497C252.256 28.733 251.895 28.371 251.624 27.9638C251.376 27.534 251.251 27.0477 251.251 26.5047V16.4608C251.251 15.9632 251.376 15.4994 251.624 15.0696C251.895 14.6172 252.256 14.2439 252.707 13.9499C253.181 13.6332 253.723 13.3956 254.332 13.2373C254.941 13.0789 255.596 12.9998 256.295 12.9998H268.821C270.355 12.9998 271.596 13.3051 272.544 13.9159C273.515 14.5041 274 15.375 274 16.5287V26.5726ZM268.347 16.5626H256.905V26.5047H268.347V16.5626Z" fill="#2B2E34"/>
<path d="M65.8619 52.1428C64.7525 52.1428 63.7905 51.8308 62.9759 51.2068C62.1699 50.5828 61.6585 49.8288 61.4419 48.9448H62.7159C62.9325 49.5428 63.3225 50.0368 63.8859 50.4268C64.4579 50.8081 65.1165 50.9988 65.8619 50.9988C66.7892 50.9988 67.5822 50.7084 68.2409 50.1278C68.8995 49.5384 69.2895 48.7931 69.4109 47.8918H64.6529V46.7738H69.3979C69.2592 45.8898 68.8649 45.1661 68.2149 44.6028C67.5649 44.0308 66.7805 43.7448 65.8619 43.7448C65.1165 43.7448 64.4579 43.9398 63.8859 44.3298C63.3225 44.7111 62.9325 45.2051 62.7159 45.8118H61.4419C61.6585 44.9278 62.1699 44.1738 62.9759 43.5498C63.7819 42.9171 64.7439 42.6008 65.8619 42.6008C67.2225 42.6008 68.3579 43.0601 69.2679 43.9788C70.1865 44.8888 70.6459 46.0198 70.6459 47.3718C70.6459 48.7238 70.1865 49.8591 69.2679 50.7778C68.3579 51.6878 67.2225 52.1428 65.8619 52.1428ZM72.2853 51.9998V45.4998H73.4033V48.1778H76.9523V45.4998H78.0703V51.9998H76.9523V49.1918H73.4033V51.9998H72.2853ZM82.9508 52.1298C82.0061 52.1298 81.2218 51.8091 80.5978 51.1678C79.9825 50.5264 79.6748 49.7204 79.6748 48.7498C79.6748 47.7704 79.9738 46.9644 80.5718 46.3318C81.1785 45.6904 81.9801 45.3698 82.9768 45.3698C83.9821 45.3698 84.7708 45.7251 85.3428 46.4358C85.9148 47.1464 86.1661 48.0174 86.0968 49.0488H80.8058C80.8231 49.6381 81.0398 50.1321 81.4558 50.5308C81.8718 50.9208 82.3745 51.1158 82.9638 51.1158C83.8478 51.1158 84.4761 50.7518 84.8488 50.0238H85.9928C85.8281 50.6304 85.4771 51.1331 84.9398 51.5318C84.4025 51.9304 83.7395 52.1298 82.9508 52.1298ZM84.2248 46.8258C83.8695 46.5138 83.4405 46.3578 82.9378 46.3578C82.4351 46.3578 81.9845 46.5094 81.5858 46.8128C81.1958 47.1161 80.9531 47.5668 80.8578 48.1648H84.9138C84.8098 47.5754 84.5801 47.1291 84.2248 46.8258ZM88.8281 54.7168H87.7101V45.4998H88.8281V46.5008C89.0534 46.1714 89.3698 45.9028 89.7771 45.6948C90.1931 45.4781 90.6394 45.3698 91.1161 45.3698C92.0174 45.3698 92.7714 45.6991 93.3781 46.3578C93.9934 47.0164 94.3011 47.8138 94.3011 48.7498C94.3011 49.6858 93.9934 50.4831 93.3781 51.1418C92.7714 51.8004 92.0174 52.1298 91.1161 52.1298C90.6394 52.1298 90.1931 52.0258 89.7771 51.8178C89.3698 51.6011 89.0534 51.3281 88.8281 50.9988V54.7168ZM89.3611 50.4268C89.7771 50.8774 90.3058 51.1028 90.9471 51.1028C91.5884 51.1028 92.1171 50.8774 92.5331 50.4268C92.9491 49.9761 93.1571 49.4171 93.1571 48.7498C93.1571 48.0824 92.9491 47.5234 92.5331 47.0728C92.1171 46.6221 91.5884 46.3968 90.9471 46.3968C90.3058 46.3968 89.7771 46.6221 89.3611 47.0728C88.9451 47.5234 88.7371 48.0824 88.7371 48.7498C88.7371 49.4171 88.9451 49.9761 89.3611 50.4268ZM95.9113 51.9998V45.4998H99.9803V46.5268H97.0293V51.9998H95.9113ZM103.939 52.1298C102.96 52.1298 102.145 51.8048 101.495 51.1548C100.854 50.4961 100.533 49.6944 100.533 48.7498C100.533 47.8051 100.854 47.0078 101.495 46.3578C102.145 45.6991 102.96 45.3698 103.939 45.3698C104.91 45.3698 105.716 45.6991 106.357 46.3578C107.007 47.0078 107.332 47.8051 107.332 48.7498C107.332 49.6944 107.007 50.4961 106.357 51.1548C105.716 51.8048 104.91 52.1298 103.939 52.1298ZM102.301 50.4138C102.726 50.8644 103.272 51.0898 103.939 51.0898C104.606 51.0898 105.148 50.8644 105.564 50.4138C105.98 49.9631 106.188 49.4084 106.188 48.7498C106.188 48.0911 105.98 47.5364 105.564 47.0858C105.148 46.6351 104.606 46.4098 103.939 46.4098C103.272 46.4098 102.726 46.6351 102.301 47.0858C101.885 47.5364 101.677 48.0911 101.677 48.7498C101.677 49.4084 101.885 49.9631 102.301 50.4138ZM111.823 52.1298C110.843 52.1298 110.033 51.8048 109.392 51.1548C108.75 50.4961 108.43 49.6944 108.43 48.7498C108.43 47.8051 108.75 47.0078 109.392 46.3578C110.033 45.6991 110.843 45.3698 111.823 45.3698C112.629 45.3698 113.326 45.5951 113.916 46.0458C114.505 46.4878 114.899 47.0684 115.099 47.7878H113.903C113.747 47.3631 113.487 47.0251 113.123 46.7738C112.759 46.5224 112.325 46.3968 111.823 46.3968C111.155 46.3968 110.609 46.6221 110.185 47.0728C109.769 47.5234 109.561 48.0824 109.561 48.7498C109.561 49.4171 109.769 49.9761 110.185 50.4268C110.609 50.8774 111.155 51.1028 111.823 51.1028C112.325 51.1028 112.759 50.9771 113.123 50.7258C113.487 50.4744 113.747 50.1364 113.903 49.7118H115.099C114.908 50.4311 114.518 51.0161 113.929 51.4668C113.339 51.9088 112.637 52.1298 111.823 52.1298ZM119.699 52.1298C118.677 52.1298 117.858 51.7918 117.242 51.1158C116.636 50.4398 116.332 49.5514 116.332 48.4508V47.7878C116.332 46.1931 116.618 45.0014 117.19 44.2128C117.762 43.4154 118.698 42.8911 119.998 42.6398L122.416 42.1978V43.2638L120.245 43.6668C119.318 43.8314 118.646 44.1434 118.23 44.6028C117.823 45.0621 117.567 45.7381 117.463 46.6308C118.027 45.8768 118.824 45.4998 119.855 45.4998C120.835 45.4998 121.619 45.8118 122.208 46.4358C122.806 47.0598 123.105 47.8224 123.105 48.7238C123.105 49.6771 122.78 50.4831 122.13 51.1418C121.489 51.8004 120.679 52.1298 119.699 52.1298ZM118.087 50.4268C118.503 50.8688 119.041 51.0898 119.699 51.0898C120.358 51.0898 120.9 50.8688 121.324 50.4268C121.749 49.9848 121.961 49.4171 121.961 48.7238C121.961 48.0738 121.749 47.5451 121.324 47.1378C120.908 46.7218 120.375 46.5138 119.725 46.5138C119.058 46.5138 118.512 46.7261 118.087 47.1508C117.671 47.5668 117.463 48.0911 117.463 48.7238C117.463 49.4171 117.671 49.9848 118.087 50.4268ZM127.473 52.1298C126.529 52.1298 125.744 51.8091 125.12 51.1678C124.505 50.5264 124.197 49.7204 124.197 48.7498C124.197 47.7704 124.496 46.9644 125.094 46.3318C125.701 45.6904 126.503 45.3698 127.499 45.3698C128.505 45.3698 129.293 45.7251 129.865 46.4358C130.437 47.1464 130.689 48.0174 130.619 49.0488H125.328C125.346 49.6381 125.562 50.1321 125.978 50.5308C126.394 50.9208 126.897 51.1158 127.486 51.1158C128.37 51.1158 128.999 50.7518 129.371 50.0238H130.515C130.351 50.6304 130 51.1331 129.462 51.5318C128.925 51.9304 128.262 52.1298 127.473 52.1298ZM128.747 46.8258C128.392 46.5138 127.963 46.3578 127.46 46.3578C126.958 46.3578 126.507 46.5094 126.108 46.8128C125.718 47.1161 125.476 47.5668 125.38 48.1648H129.436C129.332 47.5754 129.103 47.1291 128.747 46.8258ZM133.351 54.7168H132.233V45.4998H133.351V46.5008C133.576 46.1714 133.892 45.9028 134.3 45.6948C134.716 45.4781 135.162 45.3698 135.639 45.3698C136.54 45.3698 137.294 45.6991 137.901 46.3578C138.516 47.0164 138.824 47.8138 138.824 48.7498C138.824 49.6858 138.516 50.4831 137.901 51.1418C137.294 51.8004 136.54 52.1298 135.639 52.1298C135.162 52.1298 134.716 52.0258 134.3 51.8178C133.892 51.6011 133.576 51.3281 133.351 50.9988V54.7168ZM133.884 50.4268C134.3 50.8774 134.828 51.1028 135.47 51.1028C136.111 51.1028 136.64 50.8774 137.056 50.4268C137.472 49.9761 137.68 49.4171 137.68 48.7498C137.68 48.0824 137.472 47.5234 137.056 47.0728C136.64 46.6221 136.111 46.3968 135.47 46.3968C134.828 46.3968 134.3 46.6221 133.884 47.0728C133.468 47.5234 133.26 48.0824 133.26 48.7498C133.26 49.4171 133.468 49.9761 133.884 50.4268ZM143.203 52.1298C142.258 52.1298 141.474 51.8091 140.85 51.1678C140.234 50.5264 139.927 49.7204 139.927 48.7498C139.927 47.7704 140.226 46.9644 140.824 46.3318C141.43 45.6904 142.232 45.3698 143.229 45.3698C144.234 45.3698 145.023 45.7251 145.595 46.4358C146.167 47.1464 146.418 48.0174 146.349 49.0488H141.058C141.075 49.6381 141.292 50.1321 141.708 50.5308C142.124 50.9208 142.626 51.1158 143.216 51.1158C144.1 51.1158 144.728 50.7518 145.101 50.0238H146.245C146.08 50.6304 145.729 51.1331 145.192 51.5318C144.654 51.9304 143.991 52.1298 143.203 52.1298ZM144.477 46.8258C144.121 46.5138 143.692 46.3578 143.19 46.3578C142.687 46.3578 142.236 46.5094 141.838 46.8128C141.448 47.1161 141.205 47.5668 141.11 48.1648H145.166C145.062 47.5754 144.832 47.1291 144.477 46.8258ZM147.962 51.9998V45.4998H152.031V46.5268H149.08V51.9998H147.962ZM155.794 52.1298C154.893 52.1298 154.135 51.8004 153.519 51.1418C152.913 50.4831 152.609 49.6858 152.609 48.7498C152.609 47.8138 152.913 47.0164 153.519 46.3578C154.135 45.6991 154.893 45.3698 155.794 45.3698C156.271 45.3698 156.713 45.4781 157.12 45.6948C157.536 45.9028 157.857 46.1714 158.082 46.5008V45.4998H159.2V51.9998H158.082V50.9988C157.857 51.3281 157.536 51.6011 157.12 51.8178C156.713 52.0258 156.271 52.1298 155.794 52.1298ZM155.963 51.1028C156.605 51.1028 157.133 50.8774 157.549 50.4268C157.965 49.9761 158.173 49.4171 158.173 48.7498C158.173 48.0824 157.965 47.5234 157.549 47.0728C157.133 46.6221 156.605 46.3968 155.963 46.3968C155.313 46.3968 154.78 46.6221 154.364 47.0728C153.948 47.5234 153.74 48.0824 153.74 48.7498C153.74 49.4171 153.948 49.9761 154.364 50.4268C154.78 50.8774 155.313 51.1028 155.963 51.1028ZM166.895 52.1298C166.037 52.1298 165.309 51.8524 164.711 51.2978C164.121 50.7431 163.775 50.0411 163.671 49.1918H162.423V51.9998H161.305V45.4998H162.423V48.1908H163.684C163.814 47.3674 164.169 46.6914 164.75 46.1628C165.339 45.6341 166.054 45.3698 166.895 45.3698C167.839 45.3698 168.619 45.6948 169.235 46.3448C169.85 46.9948 170.158 47.7964 170.158 48.7498C170.158 49.7031 169.85 50.5048 169.235 51.1548C168.619 51.8048 167.839 52.1298 166.895 52.1298ZM165.374 50.4138C165.772 50.8558 166.279 51.0768 166.895 51.0768C167.51 51.0768 168.017 50.8558 168.416 50.4138C168.814 49.9631 169.014 49.4084 169.014 48.7498C169.014 48.0911 168.814 47.5408 168.416 47.0988C168.017 46.6481 167.51 46.4228 166.895 46.4228C166.279 46.4228 165.772 46.6438 165.374 47.0858C164.984 47.5278 164.789 48.0824 164.789 48.7498C164.789 49.4084 164.984 49.9631 165.374 50.4138ZM181.282 50.9728V53.6378H180.229V51.9998H171.753V45.4998H172.871V50.9728H175.458V45.4998H176.576V50.9728H179.163V45.4998H180.281V50.9728H181.282ZM183.786 51.9998H182.785V45.4998H183.903V50.2708L187.569 45.4998H188.557V51.9998H187.452V47.2288L183.786 51.9998ZM193.451 52.1298C192.506 52.1298 191.722 51.8091 191.098 51.1678C190.482 50.5264 190.175 49.7204 190.175 48.7498C190.175 47.7704 190.474 46.9644 191.072 46.3318C191.678 45.6904 192.48 45.3698 193.477 45.3698C194.482 45.3698 195.271 45.7251 195.843 46.4358C196.415 47.1464 196.666 48.0174 196.597 49.0488H191.306C191.323 49.6381 191.54 50.1321 191.956 50.5308C192.372 50.9208 192.874 51.1158 193.464 51.1158C194.348 51.1158 194.976 50.7518 195.349 50.0238H196.493C196.328 50.6304 195.977 51.1331 195.44 51.5318C194.902 51.9304 194.239 52.1298 193.451 52.1298ZM194.725 46.8258C194.369 46.5138 193.94 46.3578 193.438 46.3578C192.935 46.3578 192.484 46.5094 192.086 46.8128C191.696 47.1161 191.453 47.5668 191.358 48.1648H195.414C195.31 47.5754 195.08 47.1291 194.725 46.8258ZM205.387 51.9998V46.5268H203.32V45.4998H208.663V46.5268H206.505V51.9998H205.387ZM212.519 52.1298C211.574 52.1298 210.79 51.8091 210.166 51.1678C209.551 50.5264 209.243 49.7204 209.243 48.7498C209.243 47.7704 209.542 46.9644 210.14 46.3318C210.747 45.6904 211.548 45.3698 212.545 45.3698C213.55 45.3698 214.339 45.7251 214.911 46.4358C215.483 47.1464 215.734 48.0174 215.665 49.0488H210.374C210.391 49.6381 210.608 50.1321 211.024 50.5308C211.44 50.9208 211.943 51.1158 212.532 51.1158C213.416 51.1158 214.044 50.7518 214.417 50.0238H215.561C215.396 50.6304 215.045 51.1331 214.508 51.5318C213.971 51.9304 213.308 52.1298 212.519 52.1298ZM213.793 46.8258C213.438 46.5138 213.009 46.3578 212.506 46.3578C212.003 46.3578 211.553 46.5094 211.154 46.8128C210.764 47.1161 210.521 47.5668 210.426 48.1648H214.482C214.378 47.5754 214.148 47.1291 213.793 46.8258ZM221.393 51.9998L219.417 49.5428L217.441 51.9998H216.05L218.715 48.7108L216.271 45.4998H217.623L219.417 47.8528L221.198 45.4998H222.563L220.106 48.7108L222.771 51.9998H221.393ZM223.918 51.9998V45.4998H225.036V48.1778H228.585V45.4998H229.703V51.9998H228.585V49.1918H225.036V51.9998H223.918ZM234.701 52.1298C233.721 52.1298 232.907 51.8048 232.257 51.1548C231.615 50.4961 231.295 49.6944 231.295 48.7498C231.295 47.8051 231.615 47.0078 232.257 46.3578C232.907 45.6991 233.721 45.3698 234.701 45.3698C235.671 45.3698 236.477 45.6991 237.119 46.3578C237.769 47.0078 238.094 47.8051 238.094 48.7498C238.094 49.6944 237.769 50.4961 237.119 51.1548C236.477 51.8048 235.671 52.1298 234.701 52.1298ZM233.063 50.4138C233.487 50.8644 234.033 51.0898 234.701 51.0898C235.368 51.0898 235.91 50.8644 236.326 50.4138C236.742 49.9631 236.95 49.4084 236.95 48.7498C236.95 48.0911 236.742 47.5364 236.326 47.0858C235.91 46.6351 235.368 46.4098 234.701 46.4098C234.033 46.4098 233.487 46.6351 233.063 47.0858C232.647 47.5364 232.439 48.0911 232.439 48.7498C232.439 49.4084 232.647 49.9631 233.063 50.4138ZM239.402 52.0908C239.107 52.0908 238.912 52.0778 238.817 52.0518V51.0508C238.877 51.0681 239.016 51.0768 239.233 51.0768C239.501 51.0768 239.701 50.9858 239.831 50.8038C239.961 50.6131 240.026 50.2794 240.026 49.8028V45.4998H245.044V51.9998H243.926V46.5268H241.144V50.0368C241.144 50.7041 240.983 51.2154 240.663 51.5708C240.342 51.9174 239.922 52.0908 239.402 52.0908ZM250.049 52.1298C249.07 52.1298 248.255 51.8048 247.605 51.1548C246.964 50.4961 246.643 49.6944 246.643 48.7498C246.643 47.8051 246.964 47.0078 247.605 46.3578C248.255 45.6991 249.07 45.3698 250.049 45.3698C251.02 45.3698 251.826 45.6991 252.467 46.3578C253.117 47.0078 253.442 47.8051 253.442 48.7498C253.442 49.6944 253.117 50.4961 252.467 51.1548C251.826 51.8048 251.02 52.1298 250.049 52.1298ZM248.411 50.4138C248.836 50.8644 249.382 51.0898 250.049 51.0898C250.717 51.0898 251.258 50.8644 251.674 50.4138C252.09 49.9631 252.298 49.4084 252.298 48.7498C252.298 48.0911 252.09 47.5364 251.674 47.0858C251.258 46.6351 250.717 46.4098 250.049 46.4098C249.382 46.4098 248.836 46.6351 248.411 47.0858C247.995 47.5364 247.787 48.0911 247.787 48.7498C247.787 49.4084 247.995 49.9631 248.411 50.4138ZM255.047 51.9998V45.4998H259.116V46.5268H256.165V51.9998H255.047ZM261.393 51.9998H260.392V45.4998H261.51V50.2708L265.176 45.4998H266.164V51.9998H265.059V47.2288L261.393 51.9998ZM269.289 51.9998H268.288V45.4998H269.406V50.2708L273.072 45.4998H274.06V51.9998H272.955V47.2288L269.289 51.9998Z" fill="#555555"/>
<path d="M22.7894 61.9934C21.044 56.7186 27.5808 43.3433 31.0674 37.3149C25.4325 46.4696 22.5722 52.9025 21.3552 57.3161C19.6761 63.4054 26.2741 64.9591 29.0855 59.3027C29.6085 58.2504 30.0207 57.2519 30.2973 56.4674L26.5113 57.9745C25.3819 60.1849 23.5595 61.5748 22.7894 61.9934Z" fill="url(#paint0_linear_1_244)"/>
<path d="M22.791 61.9951C24.172 61.2345 25.8107 59.3902 26.5012 57.9959C28.1334 57.3621 28.5385 57.2614 28.8524 57.198C27.9622 59.3617 26.63 61.2415 25.4646 62.439C24.589 63.3387 23.1846 63.1872 22.791 61.9951Z" fill="url(#paint1_linear_1_244)"/>
<path d="M41.6755 31.047C40.3565 26.0105 36.6661 24.3107 36.4758 26.1994C34.954 30.4804 32.5444 34.6565 31.5298 36.2094C23.1273 52.1765 26.8798 57.0479 28.613 57.2997C43.7807 51.3566 43.6834 37.3007 41.6755 31.047Z" fill="url(#paint2_linear_1_244)"/>
<path d="M18.5857 23.1182C18.5605 23.277 18.534 23.4296 18.5062 23.5756C18.5338 23.4225 18.5603 23.27 18.5857 23.1182C19.3097 18.5526 18.8791 8.86354 11.7136 3.14098C11.2692 4.08996 11.2946 6.92423 13.6816 12.1879L11.3962 15.9205C9.25896 12.1246 5.49235 2.3818 8.79342 0.167525C11.8115 -1.33634 21.2191 7.36297 18.5857 23.1182Z" fill="url(#paint3_radial_1_244)"/>
<path d="M9.34669 3.02122C10.0887 2.52427 11.5774 2.90297 11.8247 3.21357C11.1321 5.69834 12.7889 10.1649 13.737 12.2149L11.9583 15.1446C8.4955 7.09401 8.54283 3.76665 9.34669 3.02122Z" fill="url(#paint4_linear_1_244)"/>
<path d="M27.4615 28.8717C28.4753 14.4396 21.3364 4.75539 17.6403 1.71729C34.9257 11.3722 40.7678 25.1002 41.5281 30.7574C39.1964 22.8122 31.1788 26.1898 27.4615 28.8717Z" fill="url(#paint5_linear_1_244)"/>
<path opacity="0.25" d="M38.4053 26.3615C35.3849 17.7425 26.1136 9.48461 21.8556 6.55762C27.4561 14.8404 27.8756 24.2649 27.519 28.728C32.0497 25.6765 35.4478 24.9914 38.4053 26.3615Z" fill="url(#paint6_linear_1_244)"/>
<path d="M36.7987 26.6982C40.9443 32.2013 45.3832 45.5262 29.9744 54.8016C31.6539 46.1269 35.37 28.3618 36.7987 26.6982Z" fill="url(#paint7_linear_1_244)"/>
<path d="M28.6221 57.2977C25.5318 54.3369 29.1283 42.3353 31.2959 36.6562C23.8791 50.1839 22.2907 56.5597 22.5566 58.7201C26.2907 58.3372 26.1112 58.0634 28.6221 57.2977Z" fill="#27569F"/>
<path d="M16.5456 57.9244C15.8324 47.8841 20.6212 36.6707 23.1047 32.3191C6.29296 40.2908 1.62302 35.6406 1.38952 32.3191C-2.58418 49.2715 9.83787 56.4528 16.5456 57.9244Z" fill="url(#paint8_linear_1_244)"/>
<path d="M16.5373 56.2069C16.3478 46.8023 20.684 36.3735 23.1047 32.3191C9.7804 38.2127 4.85481 37.1468 2.70776 34.827C0.889086 48.5704 11.2118 54.7858 16.5373 56.2069Z" fill="url(#paint9_linear_1_244)"/>
<path d="M1.40271 32.4307C3.39057 25.3387 8.41119 17.9934 12.4251 15.144C17.828 13.4216 18.754 19.2599 18.7328 22.4259C17.9172 30.4298 14.1454 35.1113 12.3614 36.3566C5.1618 38.5729 1.59385 35.8501 1.40271 32.4307Z" fill="url(#paint10_linear_1_244)"/>
<path d="M9.98975 17.3196L16.2641 8.74341C18.8723 12.7208 19.1138 19.3429 18.731 22.2167C17.8416 12.9105 12.5938 14.7923 9.98975 17.3196Z" fill="#148CCC"/>
<defs>
<linearGradient id="paint0_linear_1_244" x1="25.837" y1="37.3149" x2="23.0404" y2="65.9614" gradientUnits="userSpaceOnUse">
<stop stop-color="#1EA99E"/>
<stop offset="0.359375" stop-color="#D0FEFA"/>
<stop offset="1" stop-color="#1EA99E"/>
</linearGradient>
<linearGradient id="paint1_linear_1_244" x1="27.8771" y1="57.6167" x2="22.4127" y2="64.728" gradientUnits="userSpaceOnUse">
<stop stop-color="#188C83"/>
<stop offset="1" stop-color="white" stop-opacity="0"/>
</linearGradient>
<linearGradient id="paint2_linear_1_244" x1="37.7442" y1="26.0105" x2="28.7334" y2="57.2714" gradientUnits="userSpaceOnUse">
<stop stop-color="#2D63C8"/>
<stop offset="1" stop-color="#08A7FA"/>
</linearGradient>
<radialGradient id="paint3_radial_1_244" cx="0" cy="0" r="1" gradientUnits="userSpaceOnUse" gradientTransform="translate(14.2212 9.37259) rotate(-117.029) scale(10.5468 5.16135)">
<stop stop-color="#2AAFA4"/>
<stop offset="0.558139" stop-color="#D0FDF9"/>
<stop offset="1" stop-color="#2AAFA4"/>
</radialGradient>
<linearGradient id="paint4_linear_1_244" x1="9.71771" y1="2.83486" x2="12.9602" y2="13.449" gradientUnits="userSpaceOnUse">
<stop stop-color="#ADFFF8"/>
<stop offset="1" stop-color="#1EA99E"/>
</linearGradient>
<linearGradient id="paint5_linear_1_244" x1="29.6159" y1="-1.5513" x2="39.4231" y2="26.344" gradientUnits="userSpaceOnUse">
<stop stop-color="#00AFFF"/>
<stop offset="1" stop-color="#4268D5"/>
</linearGradient>
<linearGradient id="paint6_linear_1_244" x1="32.4902" y1="16.7087" x2="27.5036" y2="21.3065" gradientUnits="userSpaceOnUse">
<stop stop-color="white" stop-opacity="0.73"/>
<stop offset="1" stop-color="white" stop-opacity="0"/>
</linearGradient>
<linearGradient id="paint7_linear_1_244" x1="40.6891" y1="42.0102" x2="35.344" y2="40.2712" gradientUnits="userSpaceOnUse">
<stop stop-color="white" stop-opacity="0.18"/>
<stop offset="1" stop-color="white" stop-opacity="0"/>
</linearGradient>
<linearGradient id="paint8_linear_1_244" x1="23.1047" y1="32.3822" x2="4.50973" y2="52.1129" gradientUnits="userSpaceOnUse">
<stop stop-color="#0D9FF4"/>
<stop offset="1" stop-color="#2B67CB"/>
</linearGradient>
<linearGradient id="paint9_linear_1_244" x1="4.41277" y1="46.8023" x2="10.8757" y2="40.9881" gradientUnits="userSpaceOnUse">
<stop stop-color="white" stop-opacity="0.25"/>
<stop offset="1" stop-color="white" stop-opacity="0"/>
</linearGradient>
<linearGradient id="paint10_linear_1_244" x1="15.4197" y1="15.5872" x2="5.51793" y2="37.0998" gradientUnits="userSpaceOnUse">
<stop stop-color="#06AAFC"/>
<stop offset="1" stop-color="#1B4CAA"/>
</linearGradient>
</defs>
</svg>
