<?xml version="1.0" encoding="iso-8859-1"?>
<!-- Generator: Adobe Illustrator 19.0.0, SVG Export Plug-In . SVG Version: 6.00 Build 0)  -->
<svg version="1.1" id="Capa_1" xmlns="http://www.w3.org/2000/svg" xmlns:xlink="http://www.w3.org/1999/xlink" x="0px" y="0px"
	 viewBox="0 0 469.333 469.333" style="enable-background:new 0 0 469.333 469.333;" xml:space="preserve">
<g>
	<g>
		<g>
			<path d="M426.667,0h-384C19.146,0,0,19.135,0,42.667v416c0,4.313,2.604,8.208,6.583,9.854c1.313,0.552,2.708,0.813,4.083,0.813
				c2.771,0,5.5-1.083,7.542-3.125L121.75,362.667h304.917c23.521,0,42.667-19.135,42.667-42.667V42.667
				C469.333,19.135,450.188,0,426.667,0z M448,320c0,11.76-9.563,21.333-21.333,21.333H117.333c-2.833,0-5.542,1.125-7.542,3.125
				l-88.458,88.458V42.667c0-11.76,9.563-21.333,21.333-21.333h384c11.771,0,21.333,9.573,21.333,21.333V320z"/>
			<path d="M234.667,64c-64.688,0-117.333,52.635-117.333,117.333c0,64.698,52.646,117.333,117.333,117.333S352,246.031,352,181.333
				C352,116.635,299.354,64,234.667,64z M234.667,277.333c-52.938,0-96-43.062-96-96s43.063-96,96-96s96,43.063,96,96
				S287.604,277.333,234.667,277.333z"/>
			<circle cx="192" cy="149.333" r="21.333"/>
			<circle cx="277.333" cy="149.333" r="21.333"/>
			<path d="M290.625,192.354c-5.604-1.385-11.479,2-12.958,7.677c-0.375,1.417-9.396,34.635-43,34.635s-42.625-33.219-43-34.635
				c-1.458-5.688-7.333-9.188-12.917-7.708c-5.729,1.427-9.188,7.219-7.771,12.927c4.396,17.552,23.354,50.75,63.688,50.75
				s59.292-33.198,63.687-50.75C299.771,199.562,296.312,193.812,290.625,192.354z"/>
		</g>
	</g>
</g>
<g>
</g>
<g>
</g>
<g>
</g>
<g>
</g>
<g>
</g>
<g>
</g>
<g>
</g>
<g>
</g>
<g>
</g>
<g>
</g>
<g>
</g>
<g>
</g>
<g>
</g>
<g>
</g>
<g>
</g>
</svg>
