<svg width="249" height="249" viewBox="0 0 249 249" fill="none" xmlns="http://www.w3.org/2000/svg">
<g clip-path="url(#clip0)" filter="url(#filter0_d)">
<path d="M241.5 124.3C239.4 189 185.3 239.8 120.6 237.7C56 235.7 5.20002 181.6 7.30002 116.9C9.30002 52.2 63.4 1.40003 128.1 3.50003C192.8 5.50003 243.6 59.6 241.5 124.3Z" fill="#FEE074" stroke="#FEE074" stroke-width="6" stroke-miterlimit="10"/>
<path d="M239.358 124.364C237.358 187.664 184.358 237.364 121.058 235.364C57.7583 233.364 8.05831 180.364 10.0583 117.064C12.0583 53.764 65.0583 3.96405 128.358 6.06405C191.658 8.06405 241.358 61.064 239.358 124.364Z" fill="url(#paint0_radial)" stroke="#1E1E1C" stroke-width="3" stroke-miterlimit="10"/>
<path d="M124.4 187.3C161.237 187.3 191.1 157.437 191.1 120.6C191.1 83.7626 161.237 53.9 124.4 53.9C87.5626 53.9 57.7 83.7626 57.7 120.6C57.7 157.437 87.5626 187.3 124.4 187.3Z" fill="#E21E1D" stroke="black" stroke-width="2" stroke-miterlimit="10"/>
<path d="M169.083 139.602C174.642 139.602 179.148 134.945 179.148 129.201C179.148 123.458 174.642 118.801 169.083 118.801C163.524 118.801 159.018 123.458 159.018 129.201C159.018 134.945 163.524 139.602 169.083 139.602Z" fill="white"/>
<path d="M146.727 130.201L87.3955 143.602L91.2097 134.002L152.449 113.901L146.727 130.201Z" fill="white"/>
<path d="M167.175 148.402C177.006 148.402 184.975 139.761 184.975 129.101C184.975 118.442 177.006 109.801 167.175 109.801C157.345 109.801 149.376 118.442 149.376 129.101C149.376 139.761 157.345 148.402 167.175 148.402Z" fill="white"/>
<path d="M187.729 141.402H132.53V149.602H187.729V141.402Z" fill="white"/>
<path d="M198.113 149.702H132.53V162.502H198.113V149.702Z" fill="white"/>
<path d="M145.562 159.802H134.12V164.602H145.562V159.802Z" fill="white"/>
<path d="M161.984 164.902L82.9458 155.602L81.5685 126.501L152.131 131.501L161.984 164.902Z" fill="white"/>
<path d="M116.532 166.802C115.684 159.602 118.015 153.502 121.829 153.802C125.643 154.102 128.928 160.502 129.14 167.502C129.351 173.902 127.021 178.702 123.736 178.502C120.558 178.402 117.379 173.302 116.532 166.802Z" fill="white"/>
<path d="M105.831 165.602C105.301 158.902 107.315 153.402 110.493 153.602C113.566 153.902 116.214 159.602 116.426 166.002C116.638 172.102 114.625 176.702 111.87 176.702C109.01 176.702 106.361 171.902 105.831 165.602Z" fill="white"/>
<path d="M95.5536 163.202C94.9179 156.502 97.1429 151.002 100.427 151.202C103.606 151.502 106.36 157.202 106.678 163.602C106.89 169.702 104.771 174.302 101.911 174.302C99.05 174.302 96.1893 169.502 95.5536 163.202Z" fill="white"/>
<path d="M87.1841 161.402C86.7603 154.602 88.7734 149.102 91.5281 149.402C94.1768 149.602 96.4017 155.202 96.6136 161.502C96.8255 167.702 95.0244 172.602 92.5876 172.802C89.9388 173.002 87.502 168.002 87.1841 161.402Z" fill="white"/>
<path d="M73.9401 163.502C73.7282 159.402 75.3175 156.202 77.3305 156.702C79.3436 157.202 80.8268 161.002 80.7209 164.902C80.6149 168.502 79.1317 171.002 77.4365 170.702C75.7413 170.402 74.152 167.302 73.9401 163.502Z" fill="white"/>
<path d="M62.4975 157.302C62.1797 150.602 63.4511 145.102 65.4641 145.302C67.3712 145.602 69.0664 151.302 69.1724 157.702C69.2783 163.802 68.0069 168.402 66.3117 168.402C64.6165 168.402 62.9213 163.602 62.4975 157.302Z" fill="white"/>
<path d="M59.1068 164.002C59.0008 161.202 60.0603 158.802 61.5436 158.902C62.921 159.002 63.9805 161.202 63.8745 163.702C63.7686 166.002 62.815 167.902 61.6496 168.002C60.3782 168.202 59.2127 166.502 59.1068 164.002Z" fill="white"/>
<path d="M66.7355 158.902C66.0998 151.902 67.795 145.802 70.5497 146.102C73.1984 146.402 75.3174 152.302 75.4234 158.702C75.5293 164.502 73.9401 168.902 71.8211 169.202C69.7021 169.502 67.3712 165.102 66.7355 158.902Z" fill="white"/>
<path d="M73.7284 137.102L60.0609 144.202V137.502L73.7284 131.501V137.102Z" fill="white"/>
<path d="M77.8604 156.202L58.2597 157.302L57.8359 142.902L73.7284 136.202L77.8604 156.202Z" fill="white"/>
<path d="M70.4435 135.202H67.4769L67.371 132.102L70.0197 131.401L70.4435 135.202Z" fill="white"/>
<path d="M76.9068 142.702H74.6819V153.102H76.9068V142.702Z" fill="white"/>
<path d="M88.1371 127.301H79.6611V151.302H88.1371V127.301Z" fill="white"/>
<path d="M81.5685 124.401L110.387 125.701L109.751 134.501H81.5685V124.401Z" fill="white"/>
<path d="M69.2783 131.501H68.3247V136.402H69.2783V131.501Z" fill="white"/>
<path d="M86.972 134.902L73.7283 136.202L72.5629 130.701L81.5686 125.801L86.972 134.902Z" fill="white"/>
<path d="M87.5017 144.902H81.5685V166.702H87.5017V144.902Z" fill="white"/>
<path d="M83.793 143.702H77.8599V166.702H83.793V143.702Z" fill="white"/>
<path d="M191.862 173.602L131.259 172.102L132.53 161.802L187.73 162.502L191.862 173.602Z" fill="white"/>
<path d="M188.26 186.403L150.012 178.502L150.965 167.902L193.451 173.102L188.26 186.403Z" fill="white"/>
<path d="M193.941 175.326L191.17 174.326L188.748 180.304L191.518 181.304L193.941 175.326Z" fill="white"/>
<path d="M135.391 160.602H127.974V164.902H135.391V160.602Z" fill="white"/>
<path d="M126.491 130.101C131.406 130.101 135.391 124.012 135.391 116.501C135.391 108.99 131.406 102.901 126.491 102.901C121.576 102.901 117.591 108.99 117.591 116.501C117.591 124.012 121.576 130.101 126.491 130.101Z" fill="white"/>
<path d="M136.662 135.602C141.577 135.602 145.562 129.513 145.562 122.001C145.562 114.49 141.577 108.401 136.662 108.401C131.747 108.401 127.762 114.49 127.762 122.001C127.762 129.513 131.747 135.602 136.662 135.602Z" fill="white"/>
<path d="M134.013 107.101C133.801 106.801 133.695 106.401 133.589 106.001C133.483 105.801 133.589 105.501 133.589 105.301C132.953 105.101 132.318 104.901 131.682 104.701C131.364 104.601 131.046 104.401 130.729 104.201L119.286 103.801V122.001H134.119L134.861 108.001C134.543 107.801 134.225 107.401 134.013 107.101Z" fill="white"/>
<path d="M145.562 98.2008L144.82 115.701L151.283 114.501L153.614 115.701L166.01 109.801C166.01 109.801 174.486 103.601 164.527 96.4008C163.467 95.7008 157.11 98.9008 157.11 98.9008L159.759 97.3008L156.687 95.1008V80.5005C156.687 80.5005 159.018 79.8005 159.018 77.6004C159.018 75.5004 160.077 73.0003 155.415 71.8003C152.025 70.9003 143.867 70.8003 143.019 72.4003C142.172 74.0004 143.019 78.9005 143.019 78.9005L144.82 80.3005V93.4007L142.701 99.3008V102.901L145.562 98.2008Z" fill="white"/>
<path d="M72.8805 156.202V142.702H73.7281V136.202H69.702L57.2 142.502V143.602L57.5178 143.502V157.702L72.8805 156.202ZM68.5366 138.502L69.702 138.002V155.602L68.5366 155.802V138.502ZM66.5235 139.402L67.583 138.902V155.902L66.5235 156.102V139.402ZM64.5105 140.302L65.7819 139.702V156.102L64.5105 156.302V140.302ZM62.4974 141.202L63.8748 140.602V156.402H63.9807L62.4974 156.602V141.202ZM60.3784 142.202L61.7558 141.602V156.802H62.1796L60.3784 157.102V142.202V142.202ZM58.2594 143.102L59.7427 142.502V157.102L58.2594 157.302V143.102Z" fill="#030404" stroke="#1E1E1C" stroke-width="0.25" stroke-miterlimit="10"/>
<path d="M59.2126 141.202L68.3243 136.502V131.501L58.7888 138.302V139.902H59.2126V141.202Z" fill="#020203" stroke="#1E1E1C" stroke-width="0.25" stroke-miterlimit="10"/>
<path d="M73.7278 131.501H68.7482V135.702H73.7278V131.501Z" fill="#020203" stroke="#1E1E1C" stroke-width="0.25" stroke-miterlimit="10"/>
<path d="M117.909 144.902L117.698 140.702L89.3031 145.502V148.802L92.9054 148.302V146.202L99.7921 145.202V147.402L102.865 146.902V144.602L110.705 143.502V145.902L117.909 144.902Z" fill="#030404" stroke="#1E1E1C" stroke-width="0.25" stroke-miterlimit="10"/>
<path d="M177.877 129.001C177.877 123.601 173.85 119.201 168.977 119.201C164.315 119.201 160.395 123.201 160.077 128.201C161.56 124.901 164.527 122.701 168.129 122.701C173.003 122.701 177.029 127.101 177.029 132.501C177.029 132.701 177.029 133.001 177.029 133.201C177.559 132.001 177.877 130.501 177.877 129.001Z" fill="#060606" stroke="#1E1E1C" stroke-width="0.25" stroke-miterlimit="10"/>
<path d="M199.596 157.702V148.602H189.955V138.602H187.73H183.915C185.293 135.802 186.034 132.601 186.034 129.201C186.034 118.201 177.982 109.201 167.705 108.401C168.553 107.501 169.294 106.001 169.294 103.701C169.294 97.4008 164.527 96.3008 164.527 96.3008C162.514 96.3008 161.03 96.6008 159.759 97.1008V96.5008C159.759 96.5008 158.699 95.6008 156.686 94.9008V80.5005C157.958 80.5005 159.017 78.3005 159.017 78.3005V73.6004C159.017 73.6004 157.11 70.7003 150.859 70.7003C144.502 70.7003 142.171 73.0004 142.171 73.0004C142.171 73.0004 142.171 76.8004 142.171 78.2005C142.171 79.5005 144.078 80.8005 144.078 80.8005V95.3008C142.595 96.1008 142.277 97.0008 142.277 97.0008V110.301C141.536 109.401 139.523 107.701 136.344 107.701C135.602 107.701 134.967 107.801 134.437 107.901V105.701C134.437 105.701 130.517 102.601 124.16 103.001C117.803 103.401 116.849 105.901 116.849 105.901V125.101L110.598 127.401L109.009 128.001V127.501C109.009 127.501 102.546 126.601 98.2023 126.301C91.6334 125.901 81.7801 126.701 81.7801 126.701V148.302H83.1574C83.1574 144.802 83.8991 144.202 83.8991 144.202L88.4549 143.702C88.4549 138.002 91.5274 134.902 91.5274 134.902L98.9439 132.201L153.72 113.501C153.084 114.101 152.448 114.701 151.919 115.401L92.5869 135.802L91.7393 137.102L149.27 119.301C147.681 122.301 146.833 125.701 146.833 129.301C146.833 129.701 146.833 130.101 146.833 130.501L89.1966 142.802V144.902L147.681 135.202C147.999 136.502 148.528 137.702 149.058 138.802H132.636L129.775 139.202V159.402C129.775 159.402 130.411 162.602 133.907 164.302H132.53C132.53 164.302 131.47 163.802 130.093 163.202C129.351 162.802 128.398 162.402 127.55 161.902C127.021 161.602 126.385 161.302 125.855 161.002C125.325 160.702 124.796 160.302 124.372 160.002C123.948 159.702 123.63 159.402 123.524 159.102C123.418 158.902 123.312 158.602 123.312 158.202C123.206 157.802 123.1 157.302 122.994 156.802C122.889 156.102 122.783 155.302 122.677 154.502C122.571 154.102 122.571 153.702 122.465 153.302C121.723 147.902 121.087 140.702 121.087 140.702L118.756 141.002C118.756 141.002 119.604 148.702 120.664 154.402C119.074 155.902 117.909 158.702 117.379 162.002C117.273 161.702 117.273 161.402 117.167 161.102C117.485 159.802 118.227 156.502 119.498 154.902L119.18 153.102L82.4158 154.102V156.402H86.5478L87.5014 161.902H87.7133C87.7133 161.902 88.4549 156.702 91.2096 156.002C89.3025 156.802 87.8192 160.402 87.7133 164.602H84.5348V157.402H81.7801V154.902L80.9325 155.002V158.002H81.886V167.002H87.9252C88.4549 170.802 90.1501 173.602 92.1631 173.602H94.0702C94.0702 173.602 95.9773 172.302 96.613 167.902C97.1428 172.002 99.0499 175.002 101.169 175.002H103.394C103.394 175.002 105.407 173.702 106.148 169.202C106.784 173.802 108.903 177.202 111.446 177.202H113.989C113.989 177.202 116.426 175.602 117.167 170.102C118.015 175.102 120.346 178.802 123.1 178.802H125.961C125.961 178.802 129.987 176.102 129.987 166.102C129.987 166.002 129.987 166.002 129.987 165.902C131.047 166.302 131.682 166.602 131.682 166.602H148.74L148.316 170.802L131.47 170.202L131.047 172.502L135.073 172.902C135.708 174.002 137.298 176.202 139.734 176.202C141.853 176.202 143.443 174.802 144.184 173.802L147.893 174.202L147.363 180.002L188.153 187.603L195.04 177.002L188.471 163.802C190.484 163.802 193.875 163.802 196.206 163.802C200.02 163.302 199.596 157.702 199.596 157.702ZM89.6204 135.702H84.4288V128.601H89.6204V135.702ZM97.3547 131.101L90.7858 133.101V128.501H97.3547V131.101ZM102.864 129.301L99.1558 130.501V128.501H102.864V129.301ZM103.818 129.201V128.501H106.043L103.818 129.201ZM133.907 105.801V106.401C127.338 103.901 119.286 105.701 119.286 105.701C127.021 100.901 133.907 105.801 133.907 105.801ZM133.907 106.801V107.801C131.047 108.401 129.351 110.001 129.351 110.001V116.501L128.292 116.901V105.601C131.364 105.901 133.589 106.701 133.907 106.801ZM122.888 122.601L121.617 123.101V106.001C122.041 105.901 122.465 105.801 122.888 105.801V122.601ZM127.126 121.001L125.007 121.801V105.501C125.749 105.501 126.491 105.501 127.126 105.501V121.001ZM142.171 115.501L128.292 120.701V118.601L142.171 113.801V115.501ZM142.171 111.501L135.285 114.201V108.601C135.285 108.601 138.887 107.601 142.171 110.801V111.501ZM91.7393 172.302C90.1501 172.302 88.7728 169.902 88.349 166.602H88.6668C89.0906 169.002 90.1501 170.702 91.4215 170.702C93.0107 170.702 94.3881 167.802 94.3881 164.302C94.3881 160.802 93.1167 157.902 91.4215 157.902C89.8323 157.902 88.5609 160.702 88.4549 164.202H88.1371C88.1371 159.802 89.7263 156.302 91.7393 156.302C93.7524 156.302 95.3416 159.902 95.3416 164.302C95.2357 168.802 93.6464 172.302 91.7393 172.302ZM88.7728 164.802C88.7728 164.702 88.7728 164.502 88.7728 164.402C88.7728 161.202 89.8323 158.602 91.2096 158.602C92.481 158.602 93.6464 161.202 93.6464 164.402C93.6464 167.602 92.5869 170.202 91.2096 170.202C90.2561 170.202 89.4085 168.802 88.9847 166.702H89.0906L88.7728 164.802ZM96.613 161.102C96.9309 159.502 97.9904 155.902 100.639 155.202C98.838 155.702 97.3547 158.302 96.719 161.802C96.719 161.602 96.613 161.402 96.613 161.102ZM100.851 173.602C98.732 173.602 96.9309 169.702 96.9309 164.902C96.9309 160.102 98.6261 156.202 100.851 156.202C102.97 156.202 104.771 160.102 104.771 164.902C104.771 169.702 103.076 173.602 100.851 173.602ZM106.148 160.902C106.466 159.402 107.42 156.302 109.857 155.102C108.267 156.102 106.996 158.702 106.36 161.902C106.254 161.602 106.254 161.202 106.148 160.902ZM111.022 175.702C108.585 175.702 106.572 171.202 106.572 165.702C106.572 160.202 108.585 155.702 111.022 155.702C113.459 155.702 115.472 160.202 115.472 165.702C115.472 171.202 113.459 175.702 111.022 175.702ZM121.829 159.702C122.359 160.802 123.63 162.002 125.113 162.902C125.219 163.802 125.325 164.702 125.325 165.702C125.325 170.302 123.842 173.902 121.935 173.902C120.028 173.902 118.545 170.202 118.545 165.702C118.545 161.702 119.71 158.402 121.299 157.602C121.405 158.502 121.617 159.302 121.829 159.702ZM122.677 177.102C119.816 177.102 117.591 172.002 117.591 165.702C117.591 161.002 118.862 156.902 120.664 155.202C120.77 155.802 120.875 156.402 120.981 156.902C119.286 158.002 118.015 161.502 118.015 165.702C118.015 170.802 119.922 174.902 122.253 174.902C124.584 174.902 126.491 170.802 126.491 165.702C126.491 165.002 126.491 164.302 126.385 163.702C126.809 164.002 127.338 164.202 127.762 164.502C127.762 164.902 127.762 165.302 127.762 165.802C127.762 172.002 125.431 177.102 122.677 177.102ZM187.73 141.402V148.702H173.32C176.923 147.302 180.101 144.702 182.326 141.402H187.73ZM169.082 139.102C163.785 139.102 159.441 134.602 159.441 128.901C159.441 123.301 163.785 118.701 169.082 118.701C174.38 118.701 178.724 123.201 178.724 128.901C178.618 134.502 174.38 139.102 169.082 139.102ZM163.467 97.3008C164.739 97.7008 168.765 99.1009 168.765 103.801C168.765 106.101 168.023 107.501 167.069 108.501C167.811 107.101 170.354 101.001 163.997 97.7008L163.467 97.3008ZM161.984 99.2009C163.255 99.4009 165.904 100.201 165.904 103.701C165.904 106.201 164.844 107.501 163.679 108.301C162.831 107.901 162.09 107.401 161.56 106.501C161.666 106.501 161.666 106.501 161.772 106.501C162.831 106.501 163.679 105.501 163.679 104.201C163.679 103.001 162.831 101.901 161.772 101.901C161.454 101.901 161.136 102.001 160.924 102.101C161.136 101.101 161.454 100.101 161.984 99.2009ZM156.157 80.3005V94.8008C155.945 94.7008 155.733 94.7008 155.521 94.6008V77.8005C156.474 77.9005 157.428 78.1005 158.488 78.3005C158.488 78.3005 157.64 79.7005 156.157 80.3005ZM150.012 71.8003C152.66 71.7003 155.733 72.0003 158.488 73.8004V77.7004C158.488 77.7004 154.779 76.8004 150.012 77.0004V71.8003ZM152.448 77.6004V94.0008C151.707 93.9008 150.965 93.9008 150.223 93.9008V77.7004C150.118 77.7004 151.071 77.6004 152.448 77.6004ZM144.396 72.9004C144.396 72.9004 146.197 72.2004 148.634 71.9003V77.0004C147.257 77.1004 145.774 77.3004 144.396 77.6004V72.9004ZM148.422 113.201L147.151 113.701L147.045 97.2008C147.469 97.1008 147.893 97.0008 148.316 97.0008V113.201H148.422ZM152.66 111.601L150.541 112.401V96.6008C151.283 96.6008 152.025 96.6008 152.66 96.6008V111.601ZM144.82 96.8008C152.554 92.0007 159.441 96.9008 159.441 96.9008V97.4008C159.441 97.4008 159.441 97.4008 159.335 97.4008C152.872 95.0008 144.82 96.8008 144.82 96.8008ZM158.805 97.7008C156.157 99.2009 155.521 101.301 155.521 101.301V110.501L153.826 111.101V96.7008C156.157 96.9008 157.958 97.4008 158.805 97.7008ZM166.963 110.501C172.367 110.501 177.135 113.101 180.313 117.201C180.525 119.101 181.373 126.801 179.36 132.501C179.677 131.501 179.783 130.401 179.783 129.201C179.783 122.801 174.91 117.601 168.871 117.601C162.831 117.601 157.958 122.801 157.958 129.201C157.958 134.002 160.712 138.202 164.739 139.902C160.077 139.602 155.097 137.902 150.859 134.602C150.223 132.701 149.906 130.801 149.906 128.701C149.694 118.701 157.428 110.501 166.963 110.501ZM132.53 141.402H150.541C152.766 144.702 155.945 147.202 159.547 148.702H137.615L132.53 149.202C132.53 146.302 132.53 143.402 132.53 141.402ZM193.557 176.802L187.624 185.202L151.389 178.102L151.495 163.902H153.19L153.614 177.402L156.58 177.702L156.369 164.102L157.852 178.002L159.123 178.202L160.818 178.402L159.441 164.202L162.62 178.802L166.222 179.402L163.785 163.902L167.705 179.702L170.99 180.202L167.811 164.102L172.791 180.502L175.863 181.002L171.519 164.002L177.241 181.202L180.843 181.802L175.651 163.902L182.326 182.002L185.399 182.502L179.677 164.002L186.988 182.402L189.001 179.902L182.962 163.702L189.743 179.002L191.65 176.702L185.823 163.402H186.458L193.557 176.802ZM198.113 157.802C198.113 161.902 195.994 162.402 195.994 162.402H183.809L149.27 162.502H145.774L144.608 164.202H140.688C136.98 163.802 132.636 162.702 132.636 159.102C132.636 157.002 132.636 153.802 132.636 150.602L137.721 150.102H198.219C198.113 150.002 198.113 153.702 198.113 157.802Z" fill="#020203" stroke="#1E1E1C" stroke-width="0.25" stroke-miterlimit="10"/>
<path d="M81.3567 124.301L72.5629 130.001V130.701L81.2507 125.801C81.2507 125.801 90.7862 125.001 97.1432 125.101C103.182 125.201 110.493 127.201 110.493 127.201V125.101C110.387 125.101 96.6134 122.101 81.3567 124.301Z" fill="#020203" stroke="#1E1E1C" stroke-width="0.25" stroke-miterlimit="10"/>
<path d="M196.312 152.402H139.735V156.602H196.312V152.402Z" fill="#020203" stroke="#1E1E1C" stroke-width="0.25" stroke-miterlimit="10"/>
<path d="M61.0141 160.202C60.1665 160.202 59.5308 161.702 59.5308 163.502C59.5308 165.302 60.1665 166.802 61.0141 166.802C61.8616 166.802 62.4973 165.302 62.4973 163.502C62.4973 161.602 61.8616 160.202 61.0141 160.202ZM60.9081 166.402C60.2724 166.402 59.7427 165.102 59.7427 163.502C59.7427 161.902 60.2724 160.602 60.9081 160.602C61.5438 160.602 62.0735 161.902 62.0735 163.502C62.0735 165.002 61.5438 166.402 60.9081 166.402Z" fill="#030404" stroke="#1E1E1C" stroke-width="0.25" stroke-miterlimit="10"/>
<path d="M60.908 163.402C60.908 164.002 61.1199 164.502 61.3318 164.502C61.5437 164.502 61.7556 164.002 61.7556 163.402C61.7556 162.802 61.5437 162.302 61.3318 162.302C61.1199 162.302 60.908 162.802 60.908 163.402Z" fill="#030404" stroke="#1E1E1C" stroke-width="0.25" stroke-miterlimit="10"/>
<path d="M65.7816 160.102C64.8281 160.102 64.1924 161.702 64.1924 163.702C64.1924 165.702 64.934 167.302 65.7816 167.302C66.6292 167.302 67.3709 165.702 67.3709 163.702C67.4768 161.702 66.7352 160.102 65.7816 160.102ZM65.6757 166.902C64.934 166.902 64.2983 165.502 64.2983 163.702C64.2983 161.902 64.934 160.502 65.6757 160.502C66.4173 160.502 67.053 161.902 67.053 163.702C66.9471 165.502 66.4173 166.902 65.6757 166.902Z" fill="#030404" stroke="#1E1E1C" stroke-width="0.25" stroke-miterlimit="10"/>
<path d="M65.6763 163.702C65.6763 164.402 65.8882 164.902 66.1001 164.902C66.312 164.902 66.5239 164.302 66.5239 163.702C66.5239 163.002 66.312 162.502 66.1001 162.502C65.8882 162.402 65.6763 163.002 65.6763 163.702Z" fill="#030404" stroke="#1E1E1C" stroke-width="0.25" stroke-miterlimit="10"/>
<path d="M70.9736 160.002C69.9141 160.002 69.0665 161.802 69.0665 164.102C69.0665 166.402 69.9141 168.202 70.9736 168.202C72.0331 168.202 72.8807 166.402 72.8807 164.102C72.8807 161.802 71.9272 160.002 70.9736 160.002ZM70.7617 167.802C69.9141 167.802 69.2784 166.202 69.2784 164.102C69.2784 162.002 69.9141 160.402 70.7617 160.402C71.6093 160.402 72.245 162.002 72.245 164.102C72.245 166.202 71.6093 167.802 70.7617 167.802Z" fill="#030404" stroke="#1E1E1C" stroke-width="0.25" stroke-miterlimit="10"/>
<path d="M70.7615 164.102C70.7615 164.902 70.9734 165.502 71.2912 165.502C71.6091 165.502 71.821 164.902 71.821 164.102C71.821 163.302 71.6091 162.702 71.2912 162.702C70.9734 162.702 70.7615 163.302 70.7615 164.102Z" fill="#030404" stroke="#1E1E1C" stroke-width="0.25" stroke-miterlimit="10"/>
<path d="M76.9067 159.402C75.7413 159.402 74.7877 161.502 74.7877 164.102C74.7877 166.702 75.7413 168.802 76.9067 168.802C78.0722 168.802 79.0257 166.702 79.0257 164.102C79.0257 161.502 78.0722 159.402 76.9067 159.402ZM76.6948 168.302C75.7413 168.302 74.9996 166.402 74.9996 164.102C74.9996 161.802 75.7413 159.902 76.6948 159.902C77.6484 159.902 78.39 161.802 78.39 164.102C78.4959 166.402 77.6484 168.302 76.6948 168.302Z" fill="#030404" stroke="#1E1E1C" stroke-width="0.25" stroke-miterlimit="10"/>
<path d="M76.6945 164.102C76.6945 165.002 76.9064 165.702 77.2242 165.702C77.5421 165.702 77.754 165.002 77.754 164.102C77.754 163.202 77.5421 162.502 77.2242 162.502C76.9064 162.502 76.6945 163.202 76.6945 164.102Z" fill="#030404" stroke="#1E1E1C" stroke-width="0.25" stroke-miterlimit="10"/>
<path d="M91.8452 166.502C92.2548 166.502 92.5868 165.517 92.5868 164.302C92.5868 163.087 92.2548 162.102 91.8452 162.102C91.4356 162.102 91.1035 163.087 91.1035 164.302C91.1035 165.517 91.4356 166.502 91.8452 166.502Z" fill="#030404" stroke="#1E1E1C" stroke-width="0.25" stroke-miterlimit="10"/>
<path d="M100.533 157.802C98.7322 157.802 97.3549 161.002 97.3549 164.902C97.3549 168.802 98.8382 172.002 100.533 172.002C102.334 172.002 103.712 168.802 103.712 164.902C103.712 161.002 102.334 157.802 100.533 157.802ZM100.215 171.202C98.7322 171.202 97.5668 168.402 97.5668 164.902C97.5668 161.402 98.7322 158.602 100.215 158.602C101.699 158.602 102.864 161.402 102.864 164.902C102.864 168.402 101.699 171.202 100.215 171.202Z" fill="#030404" stroke="#1E1E1C" stroke-width="0.25" stroke-miterlimit="10"/>
<path d="M100.215 164.802C100.215 166.102 100.639 167.202 101.063 167.202C101.486 167.202 101.91 166.102 101.91 164.802C101.91 163.502 101.486 162.402 101.063 162.402C100.639 162.402 100.215 163.502 100.215 164.802Z" fill="#030404" stroke="#1E1E1C" stroke-width="0.25" stroke-miterlimit="10"/>
<path d="M110.598 157.702C108.585 157.702 106.89 161.302 106.89 165.802C106.89 170.202 108.585 173.902 110.598 173.902C112.611 173.902 114.306 170.302 114.306 165.802C114.306 161.302 112.717 157.702 110.598 157.702ZM110.386 172.902C108.691 172.902 107.42 169.702 107.42 165.702C107.42 161.702 108.797 158.502 110.386 158.502C112.082 158.502 113.353 161.702 113.353 165.702C113.353 169.702 111.976 172.902 110.386 172.902Z" fill="#030404" stroke="#1E1E1C" stroke-width="0.25" stroke-miterlimit="10"/>
<path d="M110.387 165.702C110.387 167.202 110.811 168.502 111.341 168.502C111.87 168.502 112.294 167.302 112.294 165.702C112.294 164.202 111.87 162.902 111.341 162.902C110.811 162.902 110.387 164.102 110.387 165.702Z" fill="#030404" stroke="#1E1E1C" stroke-width="0.25" stroke-miterlimit="10"/>
<path d="M122.994 168.802C123.63 168.802 124.054 167.402 124.054 165.602C124.054 163.902 123.524 162.402 122.994 162.402C122.359 162.402 121.935 163.802 121.935 165.602C121.829 167.402 122.359 168.802 122.994 168.802Z" fill="#030404" stroke="#1E1E1C" stroke-width="0.25" stroke-miterlimit="10"/>
<path d="M78.6015 157.702L79.9788 157.602V153.502L118.862 151.802L118.544 150.002L79.9788 152.602V152.202L118.439 149.102L118.015 145.402L79.9788 150.302V127.201L74.0457 130.601V142.602L78.3896 141.202L74.7873 142.602H76.6944V155.602L73.0921 155.902V158.002L76.5885 157.802C75.529 158.402 74.5754 160.102 74.2576 162.302C73.8338 159.702 72.6683 158.702 72.3505 158.402H72.4564V156.602L58.683 157.602V159.002L60.696 158.902C59.7425 159.402 59.0008 161.202 59.0008 163.302C59.0008 165.802 59.9544 167.802 61.2258 167.802H62.2853C62.2853 167.802 63.4507 167.002 63.6626 164.302C63.8745 166.702 64.8281 168.502 66.0995 168.502H67.2649C67.2649 168.502 68.2184 167.802 68.6422 165.602C68.9601 167.902 70.0196 169.702 71.291 169.702H72.5624C72.5624 169.702 73.8338 168.802 74.2576 165.802C74.6814 168.502 75.8468 170.502 77.3301 170.502H78.8134C78.8134 170.502 80.8264 169.102 80.8264 164.002C80.9324 159.702 79.1312 158.102 78.6015 157.702ZM61.1198 167.502C60.1663 167.502 59.3187 165.702 59.3187 163.502C59.3187 161.302 60.1663 159.502 61.1198 159.502C62.0734 159.502 62.921 161.302 62.921 163.502C62.921 165.702 62.1793 167.502 61.1198 167.502ZM62.1793 159.002L65.5697 158.802C64.6162 159.202 63.8745 160.802 63.6626 162.702C63.6626 160.302 62.6031 159.302 62.1793 159.002ZM65.9935 168.102C64.934 168.102 63.9805 166.102 63.9805 163.702C63.9805 161.202 64.8281 159.302 65.9935 159.302C67.053 159.302 68.0065 161.302 68.0065 163.702C67.9006 166.102 67.053 168.102 65.9935 168.102ZM67.053 158.802L70.7612 158.602C69.8077 159.002 69.066 160.402 68.7482 162.202C68.4303 159.902 67.3708 159.002 67.053 158.802ZM71.185 169.202C69.9136 169.202 68.9601 166.902 68.9601 164.102C68.9601 161.302 70.0196 159.002 71.185 159.002C72.4564 159.002 73.41 161.302 73.41 164.102C73.41 166.902 72.3505 169.202 71.185 169.202ZM74.4695 138.002V131.201L79.3431 128.601V136.102L74.4695 138.002ZM77.1182 169.902C75.7409 169.902 74.5754 167.302 74.5754 164.102C74.5754 160.902 75.7409 158.302 77.1182 158.302C78.4955 158.302 79.661 160.902 79.661 164.102C79.661 167.302 78.4955 169.902 77.1182 169.902Z" fill="#020203" stroke="#1E1E1C" stroke-width="0.25" stroke-miterlimit="10"/>
<path d="M167.706 114.401C168.235 114.401 168.659 113.901 168.659 113.201C168.659 112.501 168.235 112.001 167.706 112.001C167.176 112.001 166.752 112.501 166.752 113.201C166.752 113.901 167.176 114.401 167.706 114.401Z" fill="white" stroke="#1E1E1C" stroke-width="0.25" stroke-miterlimit="10"/>
<path d="M178.3 120.001C178.83 120.001 179.254 119.501 179.254 118.801C179.254 118.101 178.83 117.601 178.3 117.601C177.77 117.601 177.346 118.101 177.346 118.801C177.346 119.401 177.77 120.001 178.3 120.001Z" fill="white" stroke="#1E1E1C" stroke-width="0.25" stroke-miterlimit="10"/>
<path d="M152.66 130.202C153.19 130.202 153.614 129.702 153.614 129.002C153.614 128.302 153.19 127.802 152.66 127.802C152.13 127.802 151.707 128.302 151.707 129.002C151.707 129.602 152.13 130.202 152.66 130.202Z" fill="white" stroke="#1E1E1C" stroke-width="0.25" stroke-miterlimit="10"/>
<path d="M157.323 119.601C157.852 119.601 158.276 119.101 158.276 118.401C158.276 117.701 157.852 117.201 157.323 117.201C156.793 117.201 156.369 117.701 156.369 118.401C156.369 119.001 156.793 119.601 157.323 119.601Z" fill="white" stroke="#1E1E1C" stroke-width="0.25" stroke-miterlimit="10"/>
<path d="M145.244 64.0002C145.032 63.4002 144.714 62.7002 144.079 62.1002C143.973 62.0002 143.867 61.9002 143.761 61.8002C143.761 61.9002 143.867 62.0002 143.867 62.1002C144.079 62.8002 144.185 63.5002 144.185 64.1002C144.185 64.2002 144.185 64.3002 144.185 64.3002C144.185 64.5002 144.185 64.6002 144.185 64.8002C144.185 64.9002 144.185 65.1002 144.185 65.2002C144.185 65.3002 144.185 65.5002 144.079 65.6002V65.7002C144.079 65.8002 144.079 65.8002 144.079 65.9002C143.973 66.2003 143.973 66.4003 143.973 66.4003C143.973 66.4003 143.867 66.6003 143.761 66.9003C143.761 66.9003 143.761 67.0003 143.655 67.1003V67.2003C143.655 67.3003 143.549 67.4003 143.549 67.5003C143.443 67.6003 143.443 67.7003 143.337 67.9003C143.231 68.0003 143.231 68.2003 143.125 68.3003C143.125 68.4003 143.019 68.4003 143.019 68.5003C142.701 69.0003 142.278 69.6003 141.642 70.1003C141.112 70.5003 140.582 70.9003 139.841 71.2003C140.476 71.2003 141.112 71.1003 141.642 71.0003C142.489 70.8003 143.125 70.4003 143.655 69.9003C144.185 69.5003 144.502 69.0003 144.82 68.6003C144.926 68.4003 145.032 68.2003 145.138 68.0003C145.244 67.8003 145.244 67.7003 145.35 67.6003C145.456 67.4003 145.456 67.2003 145.456 67.2003C145.456 67.2003 145.456 67.1003 145.562 66.8003C145.562 66.7003 145.668 66.5003 145.668 66.3003C145.668 66.1003 145.668 65.9002 145.668 65.7002C145.456 65.2002 145.456 64.6002 145.244 64.0002Z" fill="white" stroke="#1E1E1C" stroke-width="0.75" stroke-miterlimit="10"/>
<path d="M144.078 65.2002C144.078 65.1002 144.078 64.9002 144.078 64.8002C144.078 64.7002 144.078 64.5002 144.078 64.3002C144.078 63.7002 143.972 62.9002 143.654 62.0002C143.337 61.2002 142.913 60.3001 142.065 59.4001C141.324 58.6001 140.264 57.9001 139.099 57.4001C137.827 57.0001 136.45 56.8001 135.073 57.0001C134.967 57.0001 134.861 57.0001 134.755 57.1001C134.861 57.3001 134.967 57.5001 134.967 57.7001C135.178 58.3001 135.284 58.9001 135.284 59.4001C135.284 59.6001 135.284 59.9001 135.284 60.0001C135.284 60.2001 135.284 60.3001 135.178 60.5001C135.073 60.8002 135.073 60.9002 135.073 60.9002C135.073 60.9002 135.073 61.0002 134.967 61.3002C134.967 61.4002 134.861 61.6002 134.755 61.7002C134.755 61.8002 134.649 61.9002 134.649 62.0002C134.649 61.9002 134.755 61.8002 134.755 61.7002C134.861 61.5002 134.861 61.4002 134.967 61.3002C135.073 61.1002 135.073 60.9002 135.073 60.9002C135.073 60.9002 135.073 60.8002 135.178 60.5001C135.178 60.4001 135.284 60.2001 135.284 60.0001C135.284 59.8001 135.284 59.6001 135.284 59.4001C135.284 58.9001 135.178 58.3001 134.967 57.7001C134.755 57.1001 134.331 56.4001 133.801 55.8001C133.271 55.2 132.424 54.7 131.576 54.3C130.623 54 129.563 53.9 128.504 54C127.444 54.2 126.491 54.6 125.643 55.3C125.325 55.5001 125.113 55.8001 124.901 56.1001C125.431 56.4001 125.855 56.7001 126.173 57.1001C126.597 57.6001 126.914 58.2001 127.126 58.7001C127.338 59.2001 127.338 59.7001 127.338 60.1001C127.338 60.3001 127.338 60.5001 127.338 60.6001C127.338 60.8002 127.338 60.9002 127.232 61.0002C127.232 61.2002 127.126 61.3002 127.126 61.3002C127.126 61.3002 127.126 61.4002 127.02 61.6002C127.02 61.6002 127.02 61.6002 127.02 61.7002C127.338 61.5002 127.656 61.3002 127.974 61.2002C128.504 61.0002 129.033 60.8002 129.563 60.8002C129.987 60.8002 130.411 60.7002 130.729 60.8002C130.411 60.8002 130.199 60.8002 129.881 60.9002C128.822 61.1002 127.762 61.5002 126.914 62.3002C126.491 62.7002 126.173 63.1002 125.855 63.5002C125.537 64.0002 125.325 64.5002 125.219 65.0002C125.113 65.5002 125.007 66.1003 125.007 66.6003C125.007 67.1003 125.113 67.7003 125.325 68.2003C125.643 69.2003 126.385 70.1003 127.126 70.8003C127.55 71.1004 127.974 71.4004 128.504 71.6004C128.716 71.7004 129.033 71.8004 129.245 71.9004C129.457 72.0004 129.775 72.0004 129.987 72.1004C130.94 72.3004 132 72.2004 132.848 71.9004C133.377 71.8004 133.801 71.6004 134.119 71.3004H134.225C134.543 71.4004 134.861 71.5004 135.178 71.5004C136.45 71.7004 137.721 71.6004 138.887 71.3004C139.946 71.0003 140.9 70.4003 141.641 69.8003C142.383 69.2003 142.807 68.6003 143.231 68.0003C143.337 67.9003 143.443 67.7003 143.443 67.6003C143.548 67.5003 143.548 67.4003 143.654 67.2003C143.76 67.0003 143.866 66.8003 143.866 66.6003C143.972 66.3003 144.078 66.1003 144.078 66.1003C144.078 66.1003 144.078 65.9002 144.184 65.6002C144.078 65.6002 144.078 65.4002 144.078 65.2002Z" fill="white" stroke="#1E1E1C" stroke-width="0.75" stroke-miterlimit="10"/>
<path d="M127.232 60.8001C127.232 60.6001 127.232 60.5001 127.232 60.3001C127.232 59.9001 127.126 59.4001 127.021 58.9001C126.809 58.4001 126.491 57.8 126.067 57.3C125.643 56.8 125.007 56.4 124.266 56.1C123.524 55.8 122.677 55.7 121.829 55.9C120.981 56 120.134 56.4 119.498 57C119.286 57.2 118.968 57.5 118.862 57.7C119.816 58.1001 120.664 58.7001 121.299 59.4001C121.935 60.1001 122.359 60.9001 122.571 61.7001C122.571 61.8001 122.571 61.8001 122.677 61.9001C123.1 61.9001 123.524 61.9001 124.054 61.9001C124.266 61.9001 124.584 62.0001 124.796 62.0001C125.007 62.1001 125.325 62.1001 125.537 62.2001C125.749 62.3001 125.961 62.4001 126.279 62.5001C126.491 62.3001 126.597 62.2001 126.809 62.0001C126.915 61.9001 127.126 61.8001 127.232 61.7001C127.232 61.7001 127.232 61.7001 127.232 61.6001C127.338 61.4001 127.338 61.3001 127.338 61.3001C127.338 61.3001 127.338 61.2001 127.444 61.0001C127.232 61.0001 127.232 60.9001 127.232 60.8001Z" fill="white" stroke="#1E1E1C" stroke-width="0.75" stroke-miterlimit="10"/>
<path d="M125.537 69.5003C125.219 69.1003 125.007 68.6003 124.795 68.1003C124.584 67.6003 124.478 67.0003 124.478 66.5003C124.478 65.9002 124.584 65.4002 124.69 64.9002C124.901 64.4002 125.113 63.9002 125.431 63.4002C125.537 63.2002 125.749 63.0002 125.855 62.8002C125.643 62.7002 125.431 62.6002 125.219 62.5002C125.007 62.4002 124.795 62.3002 124.478 62.2002C124.266 62.1002 123.948 62.1002 123.736 62.0002C122.782 61.8002 121.829 61.9002 120.981 62.2002C120.134 62.4002 119.498 62.9002 118.968 63.3002C118.544 63.7002 118.121 64.1002 117.909 64.5002C118.121 64.1002 118.544 63.7002 118.968 63.3002C119.498 62.9002 120.134 62.4002 120.981 62.2002C121.405 62.1002 121.935 62.0002 122.359 61.9002C122.359 61.8002 122.359 61.8002 122.253 61.7002C122.041 61.0002 121.617 60.2001 120.875 59.5001C120.24 58.8001 119.286 58.2001 118.227 57.8001C117.167 57.4001 115.896 57.3001 114.73 57.5001C113.565 57.7001 112.293 58.2001 111.34 59.0001C110.81 59.4001 110.492 59.9001 110.069 60.4001C109.751 60.9002 109.539 61.5002 109.327 62.1002C110.069 62.1002 110.704 62.3002 111.34 62.5002C112.293 62.9002 113.035 63.4002 113.565 64.0002C113.777 64.2002 113.883 64.4002 114.095 64.7002C114.095 64.7002 114.095 64.7002 113.989 64.7002C113.883 64.5002 113.671 64.3002 113.459 64.1002C112.929 63.5002 112.187 63.0002 111.234 62.7002C110.386 62.4002 109.327 62.3002 108.267 62.4002C107.208 62.6002 106.254 63.0002 105.513 63.7002C105.089 64.0002 104.771 64.4002 104.453 64.9002C104.135 65.3002 103.923 65.8002 103.817 66.3003C103.712 66.8003 103.606 67.3003 103.606 67.8003C103.712 67.8003 103.923 67.7003 104.029 67.7003C104.771 67.6003 105.619 67.7003 106.254 68.0003C105.619 67.8003 104.983 67.8003 104.241 67.9003C103.5 68.0003 102.652 68.4003 102.122 68.9003C101.804 69.2003 101.593 69.5003 101.275 69.8003C101.063 70.1003 100.957 70.5003 100.745 70.9003C100.639 71.3003 100.533 71.7004 100.639 72.1004C100.639 72.5004 100.745 72.9004 100.851 73.3004C100.957 73.6004 101.063 73.8004 101.275 74.1004C101.381 74.1004 101.487 74.0004 101.487 74.0004C101.804 73.9004 102.122 73.8004 102.546 73.7004C103.182 73.6004 103.923 73.7004 104.453 74.0004C104.559 74.0004 104.665 74.1004 104.771 74.1004C104.665 74.1004 104.559 74.0004 104.453 74.0004C103.923 73.8004 103.288 73.8004 102.758 73.9004C102.122 74.0004 101.593 74.3004 101.169 74.7004C100.957 74.9004 100.745 75.1004 100.533 75.4004C100.321 75.7004 100.215 75.9004 100.109 76.2004C100.003 76.5004 100.003 76.8004 100.003 77.1005C100.003 77.4005 100.109 77.7005 100.109 78.0005C100.321 78.6005 100.639 79.1005 101.063 79.4005C101.275 79.6005 101.487 79.7005 101.804 79.9005C101.91 80.0005 102.122 80.0005 102.228 80.1005C102.334 80.1005 102.546 80.2005 102.652 80.2005C103.182 80.3005 103.712 80.3005 104.241 80.1005C104.665 80.0005 105.089 79.7005 105.407 79.5005C105.725 79.3005 105.936 79.0005 106.042 78.7005C106.148 78.5005 106.254 78.3005 106.36 78.1005C106.36 78.0005 106.466 77.9005 106.466 77.9005C106.572 78.0005 106.784 78.1005 106.996 78.1005C107.632 78.3005 108.373 78.4005 109.009 78.3005C109.751 78.2005 110.386 77.9005 110.916 77.4005C111.234 77.2005 111.446 76.9004 111.658 76.6004C111.87 76.3004 111.976 76.0004 112.082 75.6004C112.187 75.3004 112.187 74.9004 112.187 74.6004C112.187 74.3004 112.082 73.9004 111.976 73.6004C111.764 72.9004 111.34 72.3004 110.81 71.9004C110.492 71.7004 110.28 71.5004 109.963 71.4003C109.857 71.3003 109.645 71.3003 109.433 71.2003C109.327 71.2003 109.221 71.2003 109.115 71.1003C109.115 71.0003 109.115 71.0003 109.115 70.9003C109.115 70.9003 109.115 70.9003 109.115 70.8003C109.221 70.8003 109.433 70.8003 109.539 70.9003C109.645 70.9003 109.645 70.9003 109.751 71.0003C110.069 71.1003 110.386 71.2003 110.704 71.4003C111.022 71.6004 111.34 71.9004 111.552 72.2004C111.764 72.5004 111.976 72.9004 112.082 73.2004C112.399 73.9004 112.399 74.7004 112.187 75.5004C112.611 75.8004 113.141 76.1004 113.777 76.3004C114.836 76.7005 116.002 76.8004 117.167 76.6004C118.333 76.4004 119.498 75.9004 120.346 75.2004C120.769 74.8004 121.193 74.4004 121.511 73.9004C121.829 73.4004 122.041 72.9004 122.253 72.3004C122.359 71.8004 122.465 71.2003 122.465 70.6003C122.465 70.0003 122.359 69.4003 122.147 68.9003C121.723 67.8003 121.087 66.8003 120.134 66.1002C119.922 66.0002 119.816 65.8002 119.604 65.7002C119.816 65.8002 120.134 66.0002 120.346 66.2002C120.769 66.5003 121.193 67.0003 121.617 67.4003C121.935 67.9003 122.253 68.4003 122.465 69.0003C122.676 69.6003 122.782 70.2003 122.782 70.8003C122.782 71.4004 122.676 72.0004 122.571 72.6004C122.465 72.8004 122.465 73.0004 122.359 73.3004C122.676 73.3004 122.994 73.3004 123.418 73.2004C124.478 73.0004 125.431 72.6004 126.279 71.9004C126.491 71.7004 126.703 71.5004 126.809 71.3003C126.597 71.2003 126.491 71.1003 126.279 71.0003C126.279 70.3003 125.855 70.0003 125.537 69.5003Z" fill="white" stroke="#1E1E1C" stroke-width="0.75" stroke-miterlimit="10"/>
<path d="M79.3432 136.002L74.4695 138.002V131.201L79.3432 128.501V136.002Z" fill="white"/>
<path d="M71.6326 60.32C70.1678 61.6192 68.8532 62.4911 67.6889 62.9356C66.5265 63.3491 65.5151 63.4521 64.6548 63.2447C63.7946 63.0373 63.1089 62.6456 62.598 62.0695C62.0433 61.4441 61.8184 60.7761 61.9233 60.0655C62.0447 59.3403 62.4674 58.6566 63.1916 58.0143C63.8998 58.68 64.6556 59.2007 65.4591 59.5761C66.279 59.9369 67.1047 60.0721 67.936 59.9816C68.7674 59.8912 69.5699 59.5029 70.3435 58.8168C71.2816 57.9847 71.7924 57.0023 71.8759 55.8697C71.9612 54.706 71.7004 53.467 71.0934 52.1527C70.4718 50.822 69.5945 49.4681 68.4614 48.0911L62.2647 53.5873L61.0384 52.2048L67.2352 46.7086C65.2278 44.578 63.3941 43.1902 61.7341 42.5453C60.074 41.9004 58.5116 42.2275 57.0467 43.5268C56.3555 44.1399 55.9409 44.8163 55.8031 45.5561C55.6652 46.2959 55.722 47.0395 55.9733 47.7871C56.2265 48.5035 56.6012 49.1416 57.0976 49.7012C56.2911 50.4165 55.494 50.844 54.7065 50.9839C53.9207 51.0926 53.2578 50.8425 52.7177 50.2335C52.2359 49.6904 51.9964 49.0059 51.9991 48.1801C51.9873 47.3379 52.277 46.4046 52.8682 45.3803C53.4448 44.3395 54.3833 43.2425 55.6835 42.0892C57.4117 40.5564 59.173 39.6412 60.9675 39.3435C62.7619 39.0459 64.5384 39.3081 66.2969 40.1304C68.0408 40.9361 69.701 42.2278 71.2776 44.0054C72.9564 45.8981 74.1035 47.8214 74.7189 49.7751C75.3362 51.6978 75.3953 53.5715 74.8964 55.3961C74.3994 57.1897 73.3114 58.831 71.6326 60.32Z" fill="black"/>
<path d="M47.8255 85.3326L46.5587 84.3275L47.1946 83.5261C47.5501 83.0781 47.7561 82.6237 47.8127 82.1631C47.8657 81.6715 47.513 81.1249 46.7547 80.5233L34.1908 70.555C33.4842 69.9944 32.9062 69.8026 32.4568 69.9796C32.0075 70.1566 31.6118 70.4606 31.27 70.8915L30.6342 71.6929L29.3674 70.6878L36.0129 62.3119L37.2797 63.3169L36.6438 64.1183C36.2883 64.5664 36.0841 65.0363 36.0311 65.5278C35.9745 65.9884 36.3254 66.5196 37.0837 67.1212L42.1765 71.1619L48.0221 63.7942L42.9293 59.7535C42.171 59.1519 41.5671 58.9396 41.1178 59.1166C40.6648 59.2627 40.2606 59.5598 39.9051 60.0079L39.2692 60.8093L38.0025 59.8043L44.648 51.4284L45.9147 52.4334L45.2789 53.2348C44.9371 53.6657 44.7396 54.1269 44.6866 54.6184C44.6301 55.0791 44.981 55.6102 45.7393 56.2118L58.329 66.2006C59.0356 66.7613 59.6068 66.9617 60.0425 66.8019C60.4746 66.6112 60.8616 66.3004 61.2035 65.8695L61.8393 65.0681L63.106 66.0731L56.4605 74.4491L55.1938 73.444L55.8296 72.6426C56.1852 72.1945 56.3912 71.7402 56.4477 71.2795C56.5007 70.788 56.1481 70.2414 55.3898 69.6398L49.4956 64.9633L43.65 72.331L49.5442 77.0075C50.3025 77.6091 50.9081 77.8369 51.3611 77.6907C51.8104 77.5137 52.2129 77.2011 52.5684 76.753L53.2042 75.9516L54.471 76.9567L47.8255 85.3326Z" fill="black"/>
<path d="M82.5914 52.3207L82.0791 50.8388L83.1376 50.4728C83.6618 50.2916 84.0671 50.0274 84.3533 49.6801C84.6597 49.3259 84.6596 48.7052 84.3529 47.818L78.6858 31.426L76.0849 32.3252C75.1776 32.6389 74.6257 33.0667 74.4294 33.6086C74.233 34.1505 74.2095 34.7681 74.3589 35.4613L74.7525 37.1874L72.9076 37.8252L71.1036 32.1174L89.2498 25.8439L91.3562 31.4472L89.5114 32.085L88.7246 30.4948C88.4341 29.8504 88.0342 29.3792 87.5249 29.0812C87.0357 28.7763 86.3375 28.7807 85.4302 29.0944L82.8292 29.9936L88.4858 46.3554C88.7925 47.2425 89.1691 47.7443 89.6157 47.8608C90.0553 47.9571 90.5473 47.9112 91.0917 47.723L92.1502 47.357L92.6625 48.839L82.5914 52.3207Z" fill="black"/>
<path d="M109.092 42.5273L109.049 40.9598L110.041 40.9326C110.574 40.918 111.04 40.7985 111.44 40.5742C111.838 40.3285 112.026 39.7684 112.002 38.8941L111.571 23.188C111.547 22.3137 111.329 21.7648 110.918 21.5413C110.506 21.3178 110.034 21.2134 109.5 21.2281L108.509 21.2553L108.466 19.6878L118.638 19.4088L118.681 20.9762L117.689 21.0034C117.135 21.0186 116.659 21.1598 116.26 21.4268C115.883 21.6719 115.707 22.2636 115.733 23.2019L115.92 30.0153C116.73 29.9931 117.304 29.9133 117.642 29.776C118 29.6168 118.324 29.3625 118.613 29.0131C118.903 28.685 119.251 28.1313 119.656 27.3519C120.082 26.5506 120.578 25.5553 121.143 24.366C121.969 22.572 122.786 21.2371 123.594 20.3613C124.402 19.4855 125.446 19.03 126.726 18.9949C127.643 18.9698 128.298 19.1438 128.693 19.5172C129.108 19.8899 129.324 20.3642 129.34 20.94C129.358 21.5797 129.223 22.1063 128.935 22.5196C128.647 22.9117 128.28 23.1565 127.835 23.2541C127.737 22.8086 127.535 22.4193 127.227 22.0863C126.94 21.7527 126.519 21.5935 125.965 21.6087C125.325 21.6263 124.768 21.9297 124.293 22.5189C123.818 23.0868 123.267 24.0196 122.641 25.3173C121.975 26.6801 121.437 27.7085 121.029 28.4026C120.642 29.0748 120.199 29.6312 119.699 30.0717C120.722 30.0437 121.572 30.2871 122.248 30.8021C122.944 31.2952 123.55 31.9829 124.065 32.8651L126.951 37.7158C127.511 38.6821 128.064 39.3712 128.608 39.7831C129.175 40.1944 129.799 40.3907 130.481 40.372L130.641 40.3676L130.684 41.935L129.085 41.9789C127.891 42.0116 126.918 41.9423 126.166 41.7708C125.414 41.578 124.797 41.2642 124.315 40.8292C123.834 40.3942 123.391 39.8195 122.988 39.105L119.829 33.6535C119.471 33.0444 119.128 32.595 118.8 32.3052C118.493 32.0149 118.125 31.8436 117.697 31.7913C117.268 31.7177 116.691 31.6908 115.966 31.7107L116.156 38.6201C116.182 39.5584 116.39 40.1503 116.781 40.3956C117.192 40.6191 117.675 40.7232 118.23 40.708L119.221 40.6808L119.264 42.2482L109.092 42.5273Z" fill="black"/>
<path d="M133.409 42.0709L133.612 40.516L134.088 40.5781C134.68 40.6553 135.175 40.5693 135.573 40.32C135.974 40.0496 136.418 39.4513 136.905 38.5251L146.295 20.7096L149.912 21.1813L154.284 41.1138C154.454 41.9535 154.7 42.5449 155.021 42.888C155.365 43.2126 155.813 43.4108 156.363 43.4825L156.871 43.5487L156.668 45.1036L146.863 43.8251L147.066 42.2703L148.113 42.4068C148.536 42.462 148.909 42.4031 149.233 42.2302C149.578 42.06 149.781 41.7422 149.841 41.2768C149.872 41.0441 149.869 40.8179 149.833 40.5981C149.821 40.3598 149.785 40.14 149.725 39.9386L149.018 36.4579L141.053 35.4194L139.649 38.2697C139.51 38.5098 139.388 38.7843 139.283 39.0934C139.181 39.3813 139.116 39.631 139.089 39.8425C139.028 40.3079 139.13 40.6763 139.396 40.9476C139.686 41.2005 140.085 41.36 140.592 41.4262L141.671 41.5669L141.469 43.1218L133.409 42.0709ZM141.919 33.7252L148.615 34.5981L147.537 29.0038C147.364 28.1853 147.197 27.3244 147.035 26.4212C146.894 25.5208 146.787 24.6894 146.714 23.9269C146.454 24.6029 146.145 25.3263 145.786 26.0971C145.427 26.8678 145.046 27.6464 144.642 28.4328L141.919 33.7252Z" fill="black"/>
<path d="M157.978 46.9268L158.676 45.5227L159.564 45.9642C160.061 46.2111 160.534 46.3149 160.982 46.2757C161.459 46.2269 161.906 45.7822 162.324 44.9416L169.246 31.015C169.635 30.2317 169.701 29.6448 169.442 29.2543C169.184 28.8637 168.815 28.5497 168.338 28.3124L167.45 27.8708L168.147 26.4667L176.658 30.6968C179.218 31.9692 180.839 33.4536 181.52 35.1502C182.23 36.8372 182.12 38.6168 181.189 40.489C180.62 41.6352 179.821 42.5721 178.792 43.2996C177.763 44.0271 176.505 44.4022 175.016 44.4248C173.528 44.4475 171.781 43.9603 169.775 42.9633L168.486 42.3224L166.15 47.0219C165.761 47.8051 165.695 48.392 165.954 48.7826C166.222 49.154 166.604 49.4632 167.101 49.7101L168.534 50.4222L167.836 51.8263L157.978 46.9268ZM170.258 41.2735C171.786 42.0331 173.06 42.2018 174.08 41.7796C175.119 41.3668 176.075 40.2817 176.949 38.5242C177.727 36.9577 178.015 35.6595 177.812 34.6296C177.61 33.5997 176.801 32.7334 175.388 32.0307L173.955 31.3186L169.255 40.775L170.258 41.2735Z" fill="black"/>
<path d="M175.527 56.9391L176.565 55.7635L177.309 56.4199C177.725 56.7869 178.154 57.0095 178.597 57.0876C179.071 57.1639 179.618 56.8501 180.239 56.1463L190.445 44.5817C191.066 43.8779 191.302 43.304 191.153 42.8598C191.035 42.4138 190.768 42.0073 190.352 41.6402L189.608 40.9838L190.646 39.8082L203.29 50.9669L199.477 55.6258L198.158 54.4612L198.852 53.239C199.315 52.4241 199.534 51.6925 199.509 51.0442C199.513 50.394 199.14 49.7372 198.388 49.0737L194.981 46.067L183.441 59.1431C182.862 59.7989 182.639 60.3419 182.772 60.7719C182.921 61.216 183.195 61.6146 183.595 61.9675L184.818 63.0474L183.781 64.223L175.527 56.9391Z" fill="black"/>
<path d="M195.64 78.9829C193.988 77.1845 192.991 75.3517 192.65 73.4843C192.309 71.617 192.535 69.7659 193.33 67.9312C194.138 66.1126 195.442 64.3773 197.241 62.7253C199.039 61.0733 200.87 59.9287 202.735 59.2915C204.614 58.6705 206.461 58.6166 208.277 59.1295C210.123 59.6438 211.873 60.8002 213.525 62.5985C215.087 64.2997 216.039 66.084 216.381 67.9513C216.753 69.82 216.549 71.6798 215.77 73.5307C215.007 75.3668 213.727 77.1109 211.928 78.7629C210.13 80.4149 208.275 81.5508 206.365 82.1704C204.471 82.7752 202.601 82.8204 200.754 82.3061C198.922 81.808 197.218 80.7003 195.64 78.9829ZM197.123 77.6211C198.626 79.2575 200.339 79.805 202.261 79.2637C204.184 78.7225 206.32 77.3728 208.669 75.2147C211.018 73.0567 212.536 71.0502 213.222 69.1953C213.924 67.3255 213.531 65.5805 212.042 63.9604C210.554 62.3402 208.841 61.7926 206.904 62.3177C204.982 62.8279 202.847 64.162 200.498 66.3201C198.149 68.4781 196.623 70.492 195.921 72.3618C195.234 74.2478 195.634 76.0009 197.123 77.6211Z" fill="black"/>
<path d="M71 173C83.5902 185.4 119.017 205.327 160 185.828" stroke="black" stroke-width="3" stroke-linecap="round"/>
<path d="M54 140.5C48.4638 116.275 50.9906 62.0604 110 49" stroke="black" stroke-width="3" stroke-linecap="round"/>
<path d="M193 145C198.618 127.16 202.956 85.5847 169 62" stroke="black" stroke-width="3" stroke-linecap="round"/>
<path d="M117.5 48C131.5 46.5 150 48.5 163 58" stroke="black" stroke-width="3" stroke-linecap="round"/>
<path d="M64 201C80.1312 215.782 125.715 237.387 179 205.548" stroke="black" stroke-width="4" stroke-linecap="round"/>
<path d="M75.8065 198.22C89.3948 208.682 127.039 223.884 168.911 200.998" stroke="black" stroke-width="3" stroke-linecap="round"/>
<path d="M31.6728 84.9969C23.8197 103.452 14.999 148.325 42.541 180.172" stroke="black" stroke-width="4" stroke-linecap="round"/>
<path d="M37.5893 93.0749C32.3477 107.703 26.3147 143.534 44.1157 169.839" stroke="black" stroke-width="2" stroke-linecap="round"/>
<path d="M206.265 181.386C217.495 164.768 234.716 122.402 213.757 85.885" stroke="black" stroke-width="4" stroke-linecap="round"/>
<path d="M201.998 172.327C209.935 158.968 222.694 124.946 210.239 95.7286" stroke="black" stroke-width="2" stroke-linecap="round"/>
</g>
<defs>
<filter id="filter0_d" x="-1" y="0" width="252.6" height="250.1" filterUnits="userSpaceOnUse" color-interpolation-filters="sRGB">
<feFlood flood-opacity="0" result="BackgroundImageFix"/>
<feColorMatrix in="SourceAlpha" type="matrix" values="0 0 0 0 0 0 0 0 0 0 0 0 0 0 0 0 0 0 127 0" result="hardAlpha"/>
<feOffset dy="4"/>
<feGaussianBlur stdDeviation="2"/>
<feComposite in2="hardAlpha" operator="out"/>
<feColorMatrix type="matrix" values="0 0 0 0 0 0 0 0 0 0 0 0 0 0 0 0 0 0 0.25 0"/>
<feBlend mode="normal" in2="BackgroundImageFix" result="effect1_dropShadow"/>
<feBlend mode="normal" in="SourceGraphic" in2="effect1_dropShadow" result="shape"/>
</filter>
<radialGradient id="paint0_radial" cx="0" cy="0" r="1" gradientUnits="userSpaceOnUse" gradientTransform="translate(124.649 120.774) scale(114.741)">
<stop offset="0.0761421" stop-color="#E21E1D"/>
<stop offset="0.2048" stop-color="#EF7E20"/>
<stop offset="0.2716" stop-color="#F6A320"/>
<stop offset="0.2952" stop-color="#F8AB36"/>
<stop offset="0.3666" stop-color="#FBBF6B"/>
<stop offset="0.4418" stop-color="#FDD195"/>
<stop offset="0.5192" stop-color="#FEDFB7"/>
<stop offset="0.5995" stop-color="#FEEBD2"/>
<stop offset="0.6837" stop-color="#FFF4E6"/>
<stop offset="0.7735" stop-color="#FFFAF5"/>
<stop offset="0.8728" stop-color="#FFFEFD"/>
<stop offset="1" stop-color="white"/>
</radialGradient>
<clipPath id="clip0">
<rect width="244.6" height="242.1" fill="white" transform="translate(3)"/>
</clipPath>
</defs>
</svg>
