<?xml version="1.0" encoding="utf-8"?>
<!-- Generator: Adobe Illustrator 25.2.3, SVG Export Plug-In . SVG Version: 6.00 Build 0)  -->
<svg version="1.1" id="Layer_1" xmlns="http://www.w3.org/2000/svg" xmlns:xlink="http://www.w3.org/1999/xlink" x="0px" y="0px"
	 viewBox="0 0 2099.1 2107.9" style="enable-background:new 0 0 2099.1 2107.9;" xml:space="preserve">
<style type="text/css">
	.st0{clip-path:url(#SVGID_2_);fill:#FEE074;stroke:#FEE074;stroke-width:50;stroke-miterlimit:10;}
	.st1{clip-path:url(#SVGID_2_);fill:url(#SVGID_3_);stroke:#1E1E1C;stroke-width:18;stroke-miterlimit:10;}
	.st2{clip-path:url(#SVGID_2_);fill:#E21E1D;stroke:#000000;stroke-width:2;stroke-miterlimit:10;}
	.st3{clip-path:url(#SVGID_2_);fill:#FFFFFF;}
	.st4{clip-path:url(#SVGID_2_);fill:#030404;stroke:#1E1E1C;stroke-width:0.25;stroke-miterlimit:10;}
	.st5{clip-path:url(#SVGID_2_);fill:#020203;stroke:#1E1E1C;stroke-width:0.25;stroke-miterlimit:10;}
	.st6{clip-path:url(#SVGID_2_);fill:#060606;stroke:#1E1E1C;stroke-width:0.25;stroke-miterlimit:10;}
	.st7{clip-path:url(#SVGID_2_);fill:#FFFFFF;stroke:#1E1E1C;stroke-width:0.25;stroke-miterlimit:10;}
	.st8{clip-path:url(#SVGID_2_);fill:#FFFFFF;stroke:#1E1E1C;stroke-width:3;stroke-miterlimit:10;}
	.st9{clip-path:url(#SVGID_2_);}
	.st10{clip-path:url(#SVGID_2_);fill:none;stroke:#000000;stroke-width:18;stroke-linecap:round;}
	.st11{clip-path:url(#SVGID_2_);fill:none;stroke:#000000;stroke-width:24;stroke-linecap:round;}
	.st12{clip-path:url(#SVGID_2_);fill:none;stroke:#000000;stroke-width:16;stroke-linecap:round;}
</style>
<g>
	<defs>
		<rect id="SVGID_1_" x="26.2" y="25.9" width="2046.6" height="2025.7"/>
	</defs>
	<clipPath id="SVGID_2_">
		<use xlink:href="#SVGID_1_"  style="overflow:visible;"/>
	</clipPath>
	<path class="st0" d="M2029.3,1069.7c-17.6,541.4-470.2,966.4-1011.6,948.8c-540.5-16.7-965.6-469.4-948-1010.7
		C86.5,466.4,539.1,41.4,1080.5,58.9C1621.8,75.7,2046.9,528.3,2029.3,1069.7z"/>
	
		<radialGradient id="SVGID_3_" cx="753.5574" cy="1477.1047" r="8.3648" gradientTransform="matrix(114.741 0 0 -114.741 -85411.8203 170524.125)" gradientUnits="userSpaceOnUse">
		<stop  offset="7.614210e-02" style="stop-color:#E21E1D"/>
		<stop  offset="0.2048" style="stop-color:#EF7E20"/>
		<stop  offset="0.2716" style="stop-color:#F6A320"/>
		<stop  offset="0.2952" style="stop-color:#F8AB36"/>
		<stop  offset="0.3666" style="stop-color:#FBBF6B"/>
		<stop  offset="0.4418" style="stop-color:#FDD195"/>
		<stop  offset="0.5192" style="stop-color:#FEDFB7"/>
		<stop  offset="0.5995" style="stop-color:#FEEBD2"/>
		<stop  offset="0.6837" style="stop-color:#FFF4E6"/>
		<stop  offset="0.7735" style="stop-color:#FFFAF5"/>
		<stop  offset="0.8728" style="stop-color:#FFFEFD"/>
		<stop  offset="1" style="stop-color:#FFFFFF"/>
	</radialGradient>
	<path class="st1" d="M2011.4,1070.2c-16.7,529.6-460.2,945.5-989.8,928.8c-529.6-16.7-945.5-460.2-928.7-989.8
		C109.6,479.5,553,62.8,1082.6,80.4C1612.3,97.1,2028.1,540.6,2011.4,1070.2z"/>
	<path class="st2" d="M1049.5,1596.8c308.2,0,558.1-249.9,558.1-558.1c0-308.2-249.9-558.1-558.1-558.1
		c-308.2,0-558.1,249.9-558.1,558.1C491.4,1346.9,741.3,1596.8,1049.5,1596.8z"/>
	<path class="st3" d="M1423.4,1197.7c46.5,0,84.2-39,84.2-87c0-48.1-37.7-87-84.2-87s-84.2,39-84.2,87
		C1339.2,1158.7,1376.9,1197.7,1423.4,1197.7z"/>
	<path class="st3" d="M1236.3,1119l-496.4,112.1l31.9-80.3l512.4-168.2L1236.3,1119z"/>
	<path class="st3" d="M1407.4,1271.3c82.3,0,148.9-72.3,148.9-161.5c0-89.2-66.7-161.5-148.9-161.5c-82.2,0-148.9,72.3-148.9,161.5
		C1258.5,1199,1325.2,1271.3,1407.4,1271.3z"/>
	<path class="st3" d="M1579.4,1212.8h-461.9v68.6h461.9V1212.8z"/>
	<path class="st3" d="M1666.3,1282.2h-548.7v107.1h548.7V1282.2z"/>
	<path class="st3" d="M1226.6,1366.7h-95.7v40.2h95.7V1366.7z"/>
	<path class="st3" d="M1364,1409.4l-661.3-77.8l-11.5-243.5l590.4,41.8L1364,1409.4z"/>
	<path class="st3" d="M983.7,1425.3c-7.1-60.2,12.4-111.3,44.3-108.8c31.9,2.5,59.4,56.1,61.2,114.6c1.8,53.5-17.7,93.7-45.2,92
		C1017.4,1522.4,990.8,1479.7,983.7,1425.3z"/>
	<path class="st3" d="M894.2,1415.3c-4.4-56.1,12.4-102.1,39-100.4c25.7,2.5,47.9,50.2,49.6,103.8c1.8,51-15.1,89.5-38.1,89.5
		C920.8,1508.1,898.6,1468,894.2,1415.3z"/>
	<path class="st3" d="M808.2,1395.2c-5.3-56.1,13.3-102.1,40.8-100.4c26.6,2.5,49.6,50.2,52.3,103.8c1.8,51-16,89.5-39.9,89.5
		C837.4,1488,813.5,1447.9,808.2,1395.2z"/>
	<path class="st3" d="M738.1,1380.1c-3.5-56.9,13.3-102.9,36.3-100.4c22.2,1.7,40.8,48.5,42.6,101.2c1.8,51.9-13.3,92.9-33.7,94.5
		C761.2,1477.2,740.8,1435.3,738.1,1380.1z"/>
	<path class="st3" d="M627.3,1397.7c-1.8-34.3,11.5-61.1,28.4-56.9c16.8,4.2,29.3,36,28.4,68.6c-0.9,30.1-13.3,51-27.5,48.5
		C642.4,1455.4,629.1,1429.5,627.3,1397.7z"/>
	<path class="st3" d="M531.6,1345.8c-2.7-56.1,8-102.1,24.8-100.4c16,2.5,30.1,50.2,31,103.8c0.9,51-9.8,89.5-23.9,89.5
		C549.3,1438.7,535.1,1398.5,531.6,1345.8z"/>
	<path class="st3" d="M503.2,1401.9c-0.9-23.4,8-43.5,20.4-42.7c11.5,0.8,20.4,19.2,19.5,40.2c-0.9,19.2-8.9,35.1-18.6,36
		C513.9,1437,504.1,1422.8,503.2,1401.9z"/>
	<path class="st3" d="M567,1359.2c-5.3-58.6,8.9-109.6,31.9-107.1c22.2,2.5,39.9,51.9,40.8,105.4c0.9,48.5-12.4,85.3-30.1,87.9
		C591.9,1447.9,572.4,1411.1,567,1359.2z"/>
	<path class="st3" d="M625.6,1176.8l-114.4,59.4v-56.1l114.4-50.2V1176.8z"/>
	<path class="st3" d="M660.1,1336.6l-164,9.2l-3.5-120.5l133-56.1L660.1,1336.6z"/>
	<path class="st3" d="M598.1,1160.9h-24.8l-0.9-25.9l22.2-5.9L598.1,1160.9z"/>
	<path class="st3" d="M652.1,1223.6h-18.6v87h18.6V1223.6z"/>
	<path class="st3" d="M746.1,1094.8h-70.9v200.8h70.9V1094.8z"/>
	<path class="st3" d="M691.2,1070.5l241.1,10.9L927,1155H691.2V1070.5z"/>
	<path class="st3" d="M588.3,1129.9h-8v41h8V1129.9z"/>
	<path class="st3" d="M736.4,1158.4l-110.8,10.9l-9.8-46l75.4-41L736.4,1158.4z"/>
	<path class="st3" d="M740.8,1242.1h-49.6v182.4h49.6V1242.1z"/>
	<path class="st3" d="M709.8,1232h-49.6v192.4h49.6V1232z"/>
	<path class="st3" d="M1614,1482.2l-507.1-12.6l10.6-86.2l461.9,5.9L1614,1482.2z"/>
	<path class="st3" d="M1583.9,1589.3l-320-66.1l8-88.7l355.5,43.5L1583.9,1589.3z"/>
	<path class="st3" d="M1631.4,1496.6l-23.2-8.4l-20.3,50l23.2,8.4L1631.4,1496.6z"/>
	<path class="st3" d="M1141.5,1373.4h-62.1v36h62.1V1373.4z"/>
	<path class="st3" d="M1067,1118.2c41.1,0,74.5-50.9,74.5-113.8c0-62.8-33.3-113.8-74.5-113.8s-74.5,50.9-74.5,113.8
		C992.6,1067.3,1025.9,1118.2,1067,1118.2z"/>
	<path class="st3" d="M1152.1,1164.2c41.1,0,74.5-50.9,74.5-113.8c0-62.8-33.3-113.8-74.5-113.8s-74.5,50.9-74.5,113.8
		C1077.7,1113.3,1111,1164.2,1152.1,1164.2z"/>
	<path class="st3" d="M1130,925.8c-1.8-2.5-2.7-5.9-3.5-9.2c-0.9-1.7,0-4.2,0-5.9c-5.3-1.7-10.6-3.3-16-5c-2.7-0.8-5.3-2.5-8-4.2
		l-95.7-3.3v152.3h124.1l6.2-117.1C1134.4,931.6,1131.7,928.3,1130,925.8z"/>
	<path class="st3" d="M1226.6,851.3l-6.2,146.4l54.1-10l19.5,10l103.7-49.4c0,0,70.9-51.9-12.4-112.1c-8.9-5.9-62.1,20.9-62.1,20.9
		l22.2-13.4l-25.7-18.4V703.2c0,0,19.5-5.9,19.5-24.3c0-17.6,8.9-38.5-30.1-48.5c-28.4-7.5-96.6-8.4-103.7,5
		c-7.1,13.4,0,54.4,0,54.4l15.1,11.7v109.6l-17.7,49.4v30.1L1226.6,851.3z"/>
	<path class="st4" d="M618.5,1336.6v-113h7.1v-54.4h-33.7L487.3,1222v9.2l2.7-0.8v118.8L618.5,1336.6z M582.1,1188.5l9.8-4.2v147.3
		l-9.8,1.7V1188.5z M565.3,1196l8.9-4.2v142.2l-8.9,1.7V1196z M548.4,1203.6l10.6-5v137.2l-10.6,1.7V1203.6z M531.6,1211.1l11.5-5
		v132.2h0.9l-12.4,1.7V1211.1z M513.9,1219.5l11.5-5v127.2h3.5l-15.1,2.5V1219.5L513.9,1219.5z M496.1,1227l12.4-5v122.2l-12.4,1.7
		V1227z"/>
	<path class="st5" d="M504.1,1211.1l76.2-39.3v-41.8l-79.8,56.9v13.4h3.5V1211.1z"/>
	<path class="st5" d="M625.5,1129.9h-41.7v35.2h41.7V1129.9z"/>
	<path class="st4" d="M995.2,1242.1l-1.8-35.1l-237.6,40.2v27.6l30.1-4.2v-17.6l57.6-8.4v18.4l25.7-4.2v-19.2l65.6-9.2v20.1
		L995.2,1242.1z"/>
	<path class="st6" d="M1497,1109c0-45.2-33.7-82-74.5-82c-39,0-71.8,33.5-74.5,75.3c12.4-27.6,37.2-46,67.4-46
		c40.8,0,74.5,36.8,74.5,82c0,1.7,0,4.2,0,5.9C1494.3,1134.1,1497,1121.6,1497,1109z"/>
	<path class="st5" d="M1678.7,1349.2V1273H1598v-83.7h-18.6h-31.9c11.5-23.4,17.7-50.2,17.7-78.7c0-92-67.4-167.3-153.4-174
		c7.1-7.5,13.3-20.1,13.3-39.3c0-52.7-39.9-61.9-39.9-61.9c-16.8,0-29.3,2.5-39.9,6.7v-5c0,0-8.9-7.5-25.7-13.4V703.2
		c10.6,0,19.5-18.4,19.5-18.4v-39.3c0,0-16-24.3-68.3-24.3c-53.2,0-72.7,19.2-72.7,19.2s0,31.8,0,43.5c0,10.9,16,21.8,16,21.8V827
		c-12.4,6.7-15.1,14.2-15.1,14.2v111.3c-6.2-7.5-23-21.8-49.6-21.8c-6.2,0-11.5,0.8-16,1.7v-18.4c0,0-32.8-25.9-86-22.6
		c-53.2,3.3-61.2,24.3-61.2,24.3v160.6l-52.3,19.2l-13.3,5v-4.2c0,0-54.1-7.5-90.4-10c-55-3.3-137.4,3.3-137.4,3.3v180.7h11.5
		c0-29.3,6.2-34.3,6.2-34.3l38.1-4.2c0-47.7,25.7-73.6,25.7-73.6l62.1-22.6l458.3-156.5c-5.3,5-10.6,10-15.1,15.9l-496.4,170.7
		l-7.1,10.9l481.4-148.9c-13.3,25.1-20.4,53.5-20.4,83.7c0,3.3,0,6.7,0,10L755,1224.5v17.6l489.3-81.2c2.7,10.9,7.1,20.9,11.5,30.1
		h-137.4l-23.9,3.3v169c0,0,5.3,26.8,34.6,41h-11.5c0,0-8.9-4.2-20.4-9.2c-6.2-3.3-14.2-6.7-21.3-10.9c-4.4-2.5-9.7-5-14.2-7.5
		c-4.4-2.5-8.9-5.9-12.4-8.4c-3.5-2.5-6.2-5-7.1-7.5c-0.9-1.7-1.8-4.2-1.8-7.5c-0.9-3.3-1.8-7.5-2.7-11.7
		c-0.9-5.9-1.8-12.6-2.7-19.2c-0.9-3.3-0.9-6.7-1.8-10c-6.2-45.2-11.5-105.4-11.5-105.4l-19.5,2.5c0,0,7.1,64.4,16,112.1
		c-13.3,12.6-23.1,36-27.5,63.6c-0.9-2.5-0.9-5-1.8-7.5c2.7-10.9,8.9-38.5,19.5-51.9l-2.7-15.1l-307.6,8.4v19.2h34.6l8,46h1.8
		c0,0,6.2-43.5,29.3-49.4c-16,6.7-28.4,36.8-29.3,72H716v-60.2h-23v-20.9l-7.1,0.8v25.1h8v75.3h50.5c4.4,31.8,18.6,55.2,35.5,55.2
		h16c0,0,16-10.9,21.3-47.7c4.4,34.3,20.4,59.4,38.1,59.4h18.6c0,0,16.8-10.9,23-48.5c5.3,38.5,23.1,66.9,44.3,66.9h21.3
		c0,0,20.4-13.4,26.6-59.4c7.1,41.8,26.6,72.8,49.6,72.8h23.9c0,0,33.7-22.6,33.7-106.3c0-0.8,0-0.8,0-1.7
		c8.9,3.3,14.2,5.9,14.2,5.9h142.7l-3.5,35.1l-141-5l-3.5,19.2l33.7,3.3c5.3,9.2,18.6,27.6,39,27.6c17.7,0,31-11.7,37.2-20.1l31,3.3
		l-4.4,48.5l341.3,63.6l57.6-88.7l-55-110.4c16.8,0,45.2,0,64.7,0C1682.2,1396,1678.7,1349.2,1678.7,1349.2z M758.5,1165.1h-43.4
		v-59.4h43.4V1165.1z M823.2,1126.6l-55,16.7v-38.5h55V1126.6z M869.3,1111.5l-31,10v-16.7h31V1111.5z M877.3,1110.7v-5.9h18.6
		L877.3,1110.7z M1129.1,914.9v5c-55-20.9-122.3-5.9-122.3-5.9C1071.5,873.9,1129.1,914.9,1129.1,914.9z M1129.1,923.3v8.4
		c-23.9,5-38.1,18.4-38.1,18.4v54.4l-8.9,3.3v-94.5C1107.8,915.7,1126.4,922.4,1129.1,923.3z M1036.9,1055.5l-10.6,4.2V916.6
		c3.5-0.8,7.1-1.7,10.6-1.7V1055.5z M1072.3,1042.1l-17.7,6.7V912.4c6.2,0,12.4,0,17.7,0V1042.1z M1198.2,996.1l-116.1,43.5V1022
		l116.1-40.2V996.1z M1198.2,962.6l-57.6,22.6v-46.9c0,0,30.1-8.4,57.6,18.4V962.6z M776.3,1471.3c-13.3,0-24.8-20.1-28.4-47.7h2.7
		c3.5,20.1,12.4,34.3,23,34.3c13.3,0,24.8-24.3,24.8-53.5s-10.6-53.5-24.8-53.5c-13.3,0-23.9,23.4-24.8,52.7h-2.7
		c0-36.8,13.3-66.1,30.1-66.1c16.8,0,30.1,30.1,30.1,66.9C805.5,1442,792.2,1471.3,776.3,1471.3z M751.4,1408.6c0-0.8,0-2.5,0-3.3
		c0-26.8,8.9-48.5,20.4-48.5c10.6,0,20.4,21.8,20.4,48.5c0,26.8-8.9,48.5-20.4,48.5c-8,0-15.1-11.7-18.6-29.3h0.9L751.4,1408.6z
		 M817,1377.6c2.7-13.4,11.5-43.5,33.7-49.4c-15.1,4.2-27.5,25.9-32.8,55.2C817.9,1381.8,817,1380.1,817,1377.6z M852.5,1482.2
		c-17.7,0-32.8-32.6-32.8-72.8c0-40.2,14.2-72.8,32.8-72.8c17.7,0,32.8,32.6,32.8,72.8C885.3,1449.6,871.1,1482.2,852.5,1482.2z
		 M896.8,1375.9c2.7-12.6,10.6-38.5,31-48.5c-13.3,8.4-23.9,30.1-29.3,56.9C897.7,1381.8,897.7,1378.4,896.8,1375.9z M937.6,1499.8
		c-20.4,0-37.2-37.7-37.2-83.7s16.8-83.7,37.2-83.7c20.4,0,37.2,37.7,37.2,83.7S958,1499.8,937.6,1499.8z M1028,1365.9
		c4.4,9.2,15.1,19.2,27.5,26.8c0.9,7.5,1.8,15.1,1.8,23.4c0,38.5-12.4,68.6-28.4,68.6c-16,0-28.4-31-28.4-68.6
		c0-33.5,9.7-61.1,23-67.8C1024.5,1355.8,1026.2,1362.5,1028,1365.9z M1035.1,1511.5c-23.9,0-42.6-42.7-42.6-95.4
		c0-39.3,10.6-73.6,25.7-87.9c0.9,5,1.8,10,2.7,14.2c-14.2,9.2-24.8,38.5-24.8,73.6c0,42.7,16,77,35.5,77c19.5,0,35.5-34.3,35.5-77
		c0-5.9,0-11.7-0.9-16.7c3.5,2.5,8,4.2,11.5,6.7c0,3.3,0,6.7,0,10.9C1077.7,1468.8,1058.2,1511.5,1035.1,1511.5z M1579.4,1212.8
		v61.1h-120.6c30.1-11.7,56.7-33.5,75.4-61.1H1579.4z M1423.4,1193.5c-44.3,0-80.7-37.7-80.7-85.4c0-46.9,36.3-85.3,80.7-85.3
		c44.3,0,80.7,37.7,80.7,85.3C1503.2,1155,1467.7,1193.5,1423.4,1193.5z M1376.4,843.8c10.6,3.3,44.3,15.1,44.3,54.4
		c0,19.2-6.2,31-14.2,39.3c6.2-11.7,27.5-62.8-25.7-90.4L1376.4,843.8z M1364,859.7c10.6,1.7,32.8,8.4,32.8,37.7
		c0,20.9-8.9,31.8-18.6,38.5c-7.1-3.3-13.3-7.5-17.7-15.1c0.9,0,0.9,0,1.8,0c8.9,0,16-8.4,16-19.2c0-10-7.1-19.2-16-19.2
		c-2.7,0-5.3,0.8-7.1,1.7C1356.9,875.6,1359.6,867.2,1364,859.7z M1315.2,701.5v121.3c-1.8-0.8-3.5-0.8-5.3-1.7V680.6
		c8,0.8,16,2.5,24.8,4.2C1334.7,684.8,1327.7,696.5,1315.2,701.5z M1263.8,630.4c22.2-0.8,47.9,1.7,70.9,16.7v32.6
		c0,0-31-7.5-70.9-5.9V630.4z M1284.2,678.9v137.2c-6.2-0.8-12.4-0.8-18.6-0.8V679.8C1264.7,679.8,1272.7,678.9,1284.2,678.9z
		 M1216.8,639.6c0,0,15.1-5.9,35.5-8.4v42.7c-11.5,0.8-23.9,2.5-35.5,5V639.6z M1250.5,976.8l-10.6,4.2l-0.9-138.1
		c3.5-0.8,7.1-1.7,10.6-1.7v135.5H1250.5z M1286,963.4l-17.7,6.7V837.9c6.2,0,12.4,0,17.7,0V963.4z M1220.4,839.6
		c64.7-40.2,122.3,0.8,122.3,0.8v4.2c0,0,0,0-0.9,0C1287.8,824.5,1220.4,839.6,1220.4,839.6z M1337.4,847.1
		c-22.2,12.6-27.5,30.1-27.5,30.1v77l-14.2,5V838.7C1315.2,840.4,1330.3,844.6,1337.4,847.1z M1405.7,954.2
		c45.2,0,85.1,21.8,111.7,56.1c1.8,15.9,8.9,80.3-8,128c2.7-8.4,3.5-17.6,3.5-27.6c0-53.5-40.8-97.1-91.3-97.1
		c-50.5,0-91.3,43.5-91.3,97.1c0,40.2,23,75.3,56.7,89.5c-39-2.5-80.7-16.7-116.1-44.3c-5.3-15.9-8-31.8-8-49.4
		C1261.2,1022.8,1325.9,954.2,1405.7,954.2z M1117.6,1212.8h150.7c18.6,27.6,45.2,48.5,75.4,61.1h-183.5l-42.5,4.2
		C1117.6,1253.8,1117.6,1229.5,1117.6,1212.8z M1628.2,1509l-49.6,70.3l-303.2-59.4l0.9-118.8h14.2l3.5,113l24.8,2.5l-1.8-113.8
		l12.4,116.3l10.6,1.7l14.2,1.7l-11.5-118.8l26.6,122.2l30.1,5l-20.4-129.7l32.8,132.2l27.5,4.2l-26.6-134.7l41.7,137.2l25.7,4.2
		l-36.3-142.2l47.9,143.9l30.1,5l-43.4-149.8l55.9,151.4l25.7,4.2l-47.9-154.8l61.2,154l16.8-20.9l-50.5-135.5l56.7,128l16-19.2
		l-48.8-111.3h5.3L1628.2,1509z M1666.3,1350c0,34.3-17.7,38.5-17.7,38.5h-102l-289,0.8h-29.3l-9.8,14.2h-32.8
		c-31-3.3-67.4-12.6-67.4-42.7c0-17.6,0-44.3,0-71.1l42.5-4.2h506.2C1666.3,1284.7,1666.3,1315.7,1666.3,1350z"/>
	<path class="st5" d="M689.4,1069.7l-73.6,47.7v5.9l72.7-41c0,0,79.8-6.7,133-5.9c50.5,0.8,111.7,17.6,111.7,17.6v-17.6
		C932.3,1076.4,817,1051.3,689.4,1069.7z"/>
	<path class="st5" d="M1651.2,1304.8h-473.4v35.1h473.4V1304.8z"/>
	<path class="st4" d="M519.2,1370.1c-7.1,0-12.4,12.6-12.4,27.6s5.3,27.6,12.4,27.6c7.1,0,12.4-12.6,12.4-27.6
		C531.6,1381.8,526.3,1370.1,519.2,1370.1z M518.3,1421.9c-5.3,0-9.8-10.9-9.8-24.3s4.4-24.3,9.8-24.3s9.8,10.9,9.8,24.3
		C528,1410.2,523.6,1421.9,518.3,1421.9z"/>
	<path class="st4" d="M518.3,1396.8c0,5,1.8,9.2,3.5,9.2s3.5-4.2,3.5-9.2c0-5-1.8-9.2-3.5-9.2S518.3,1391.8,518.3,1396.8z"/>
	<path class="st4" d="M559.1,1369.2c-8,0-13.3,13.4-13.3,30.1c0,16.7,6.2,30.1,13.3,30.1c7.1,0,13.3-13.4,13.3-30.1
		C573.2,1382.6,567,1369.2,559.1,1369.2z M558.2,1426.1c-6.2,0-11.5-11.7-11.5-26.8c0-15.1,5.3-26.8,11.5-26.8
		c6.2,0,11.5,11.7,11.5,26.8C568.8,1414.4,564.4,1426.1,558.2,1426.1z"/>
	<path class="st4" d="M558.2,1399.4c0,5.9,1.8,10,3.5,10c1.8,0,3.5-5,3.5-10c0-5.9-1.8-10-3.5-10
		C560,1388.5,558.2,1393.5,558.2,1399.4z"/>
	<path class="st4" d="M602.5,1368.4c-8.9,0-16,15.1-16,34.3s7.1,34.3,16,34.3c8.9,0,16-15.1,16-34.3S610.5,1368.4,602.5,1368.4z
		 M600.7,1433.7c-7.1,0-12.4-13.4-12.4-31s5.3-31,12.4-31c7.1,0,12.4,13.4,12.4,31S607.8,1433.7,600.7,1433.7z"/>
	<path class="st4" d="M600.7,1402.7c0,6.7,1.8,11.7,4.4,11.7c2.7,0,4.4-5,4.4-11.7c0-6.7-1.8-11.7-4.4-11.7
		C602.5,1391,600.7,1396,600.7,1402.7z"/>
	<path class="st4" d="M652.1,1363.4c-9.8,0-17.7,17.6-17.7,39.3s8,39.3,17.7,39.3c9.8,0,17.7-17.6,17.7-39.3
		S661.9,1363.4,652.1,1363.4z M650.4,1437.8c-8,0-14.2-15.9-14.2-35.1s6.2-35.1,14.2-35.1c8,0,14.2,15.9,14.2,35.1
		C665.4,1421.9,658.4,1437.8,650.4,1437.8z"/>
	<path class="st4" d="M650.4,1402.7c0,7.5,1.8,13.4,4.4,13.4c2.7,0,4.4-5.9,4.4-13.4s-1.8-13.4-4.4-13.4
		C652.1,1389.3,650.4,1395.2,650.4,1402.7z"/>
	<path class="st4" d="M777.1,1422.8c3.4,0,6.2-8.2,6.2-18.4s-2.8-18.4-6.2-18.4s-6.2,8.2-6.2,18.4S773.7,1422.8,777.1,1422.8z"/>
	<path class="st4" d="M849.8,1350c-15.1,0-26.6,26.8-26.6,59.4c0,32.6,12.4,59.4,26.6,59.4c15.1,0,26.6-26.8,26.6-59.4
		C876.4,1376.8,864.9,1350,849.8,1350z M847.2,1462.1c-12.4,0-22.2-23.4-22.2-52.7s9.8-52.7,22.2-52.7c12.4,0,22.2,23.4,22.2,52.7
		S859.6,1462.1,847.2,1462.1z"/>
	<path class="st4" d="M847.2,1408.6c0,10.9,3.5,20.1,7.1,20.1c3.5,0,7.1-9.2,7.1-20.1c0-10.9-3.5-20.1-7.1-20.1
		C850.7,1388.5,847.2,1397.7,847.2,1408.6z"/>
	<path class="st4" d="M934,1349.2c-16.8,0-31,30.1-31,67.8c0,36.8,14.2,67.8,31,67.8s31-30.1,31-67.8
		C965.1,1379.3,951.8,1349.2,934,1349.2z M932.3,1476.3c-14.2,0-24.8-26.8-24.8-60.2c0-33.5,11.5-60.2,24.8-60.2
		c14.2,0,24.8,26.8,24.8,60.2C957.1,1449.6,945.6,1476.3,932.3,1476.3z"/>
	<path class="st4" d="M932.3,1416.1c0,12.6,3.5,23.4,8,23.4c4.4,0,8-10,8-23.4c0-12.6-3.5-23.4-8-23.4
		C935.8,1392.7,932.3,1402.7,932.3,1416.1z"/>
	<path class="st4" d="M1037.8,1442c5.3,0,8.9-11.7,8.9-26.8c0-14.2-4.4-26.8-8.9-26.8c-5.3,0-8.9,11.7-8.9,26.8
		C1028,1430.3,1032.5,1442,1037.8,1442z"/>
	<path class="st5" d="M666.3,1349.2l11.5-0.8V1314l325.3-14.2l-2.7-15.1l-322.7,21.8v-3.3l321.8-25.9l-3.5-31l-318.3,41v-193.3
		l-49.6,28.4v100.4l36.3-11.7l-30.1,11.7h16v108.8l-30.1,2.5v17.6l29.3-1.7c-8.9,5-16.8,19.2-19.5,37.7c-3.5-21.8-13.3-30.1-16-32.6
		h0.9v-15.1l-115.2,8.4v11.7l16.8-0.8c-8,4.2-14.2,19.2-14.2,36.8c0,20.9,8,37.7,18.6,37.7h8.9c0,0,9.8-6.7,11.5-29.3
		c1.8,20.1,9.8,35.1,20.4,35.1h9.8c0,0,8-5.9,11.5-24.3c2.7,19.2,11.5,34.3,22.2,34.3h10.6c0,0,10.6-7.5,14.2-32.6
		c3.5,22.6,13.3,39.3,25.7,39.3h12.4c0,0,16.8-11.7,16.8-54.4C685.8,1365.9,670.8,1352.5,666.3,1349.2z M520.1,1431.2
		c-8,0-15.1-15.1-15.1-33.5s7.1-33.5,15.1-33.5c8,0,15.1,15.1,15.1,33.5S528.9,1431.2,520.1,1431.2z M528.9,1360l28.4-1.7
		c-8,3.3-14.2,16.7-16,32.6C541.3,1370.9,532.5,1362.5,528.9,1360z M560.8,1436.2c-8.9,0-16.8-16.7-16.8-36.8
		c0-20.9,7.1-36.8,16.8-36.8c8.9,0,16.8,16.7,16.8,36.8C576.8,1419.4,569.7,1436.2,560.8,1436.2z M569.7,1358.4l31-1.7
		c-8,3.3-14.2,15.1-16.8,30.1C581.2,1367.6,572.4,1360,569.7,1358.4z M604.3,1445.4c-10.6,0-18.6-19.2-18.6-42.7s8.9-42.7,18.6-42.7
		c10.6,0,18.6,19.2,18.6,42.7S614,1445.4,604.3,1445.4z M631.8,1184.3v-56.9l40.8-21.8v62.8L631.8,1184.3z M653.9,1451.2
		c-11.5,0-21.3-21.8-21.3-48.5s9.8-48.5,21.3-48.5c11.5,0,21.3,21.8,21.3,48.5S665.4,1451.2,653.9,1451.2z"/>
	<path class="st7" d="M1411.9,986.8c4.4,0,8-4.2,8-10c0-5.9-3.5-10-8-10c-4.4,0-8,4.2-8,10C1403.9,982.7,1407.4,986.8,1411.9,986.8z
		"/>
	<path class="st7" d="M1500.5,1033.7c4.4,0,8-4.2,8-10c0-5.9-3.5-10-8-10s-8,4.2-8,10C1492.5,1028.7,1496.1,1033.7,1500.5,1033.7z"
		/>
	<path class="st7" d="M1286,1119.1c4.4,0,8-4.2,8-10s-3.5-10-8-10s-8,4.2-8,10C1278,1114,1281.5,1119.1,1286,1119.1z"/>
	<path class="st7" d="M1325,1030.4c4.4,0,8-4.2,8-10c0-5.9-3.5-10-8-10c-4.4,0-8,4.2-8,10C1317,1025.3,1320.6,1030.4,1325,1030.4z"
		/>
	<path class="st8" d="M1223.9,565.1c-1.8-5-4.4-10.9-9.7-15.9c-0.9-0.8-1.8-1.7-2.7-2.5c0,0.8,0.9,1.7,0.9,2.5
		c1.8,5.9,2.7,11.7,2.7,16.7c0,0.8,0,1.7,0,1.7c0,1.7,0,2.5,0,4.2c0,0.8,0,2.5,0,3.3s0,2.5-0.9,3.3v0.8c0,0.8,0,0.8,0,1.7
		c-0.9,2.5-0.9,4.2-0.9,4.2s-0.9,1.7-1.8,4.2c0,0,0,0.8-0.9,1.7v0.8c0,0.8-0.9,1.7-0.9,2.5c-0.9,0.8-0.9,1.7-1.8,3.3
		c-0.9,0.8-0.9,2.5-1.8,3.3c0,0.8-0.9,0.8-0.9,1.7c-2.7,4.2-6.2,9.2-11.5,13.4c-4.4,3.3-8.9,6.7-15.1,9.2c5.3,0,10.6-0.8,15.1-1.7
		c7.1-1.7,12.4-5,16.8-9.2c4.4-3.3,7.1-7.5,9.7-10.9c0.9-1.7,1.8-3.3,2.7-5c0.9-1.7,0.9-2.5,1.8-3.3c0.9-1.7,0.9-3.3,0.9-3.3
		s0-0.8,0.9-3.3c0-0.8,0.9-2.5,0.9-4.2s0-3.3,0-5C1225.7,575.2,1225.7,570.2,1223.9,565.1z"/>
	<path class="st8" d="M1214.2,575.2c0-0.8,0-2.5,0-3.3c0-0.8,0-2.5,0-4.2c0-5-0.9-11.7-3.5-19.2c-2.7-6.7-6.2-14.2-13.3-21.8
		c-6.2-6.7-15.1-12.6-24.8-16.7c-10.6-3.3-22.2-5-33.7-3.3c-0.9,0-1.8,0-2.7,0.8c0.9,1.7,1.8,3.3,1.8,5c1.8,5,2.7,10,2.7,14.2
		c0,1.7,0,4.2,0,5c0,1.7,0,2.5-0.9,4.2c-0.9,2.5-0.9,3.3-0.9,3.3s0,0.8-0.9,3.3c0,0.8-0.9,2.5-1.8,3.3c0,0.8-0.9,1.7-0.9,2.5
		c0-0.8,0.9-1.7,0.9-2.5c0.9-1.7,0.9-2.5,1.8-3.3c0.9-1.7,0.9-3.3,0.9-3.3s0-0.8,0.9-3.3c0-0.8,0.9-2.5,0.9-4.2s0-3.3,0-5
		c0-4.2-0.9-9.2-2.7-14.2c-1.8-5-5.3-10.9-9.8-15.9c-4.4-5-11.5-9.2-18.6-12.6c-8-2.5-16.8-3.3-25.7-2.5c-8.9,1.7-16.8,5-23.9,10.9
		c-2.7,1.7-4.4,4.2-6.2,6.7c4.4,2.5,8,5,10.6,8.4c3.5,4.2,6.2,9.2,8,13.4c1.8,4.2,1.8,8.4,1.8,11.7c0,1.7,0,3.3,0,4.2
		c0,1.7,0,2.5-0.9,3.3c0,1.7-0.9,2.5-0.9,2.5s0,0.8-0.9,2.5c0,0,0,0,0,0.8c2.7-1.7,5.3-3.3,8-4.2c4.4-1.7,8.9-3.3,13.3-3.3
		c3.5,0,7.1-0.8,9.8,0c-2.7,0-4.4,0-7.1,0.8c-8.9,1.7-17.7,5-24.8,11.7c-3.5,3.3-6.2,6.7-8.9,10c-2.7,4.2-4.4,8.4-5.3,12.6
		c-0.9,4.2-1.8,9.2-1.8,13.4c0,4.2,0.9,9.2,2.7,13.4c2.7,8.4,8.9,15.9,15.1,21.8c3.5,2.5,7.1,5,11.5,6.7c1.8,0.8,4.4,1.7,6.2,2.5
		c1.8,0.8,4.4,0.8,6.2,1.7c8,1.7,16.8,0.8,23.9-1.7c4.4-0.8,8-2.5,10.6-5h0.9c2.7,0.8,5.3,1.7,8,1.7c10.6,1.7,21.3,0.8,31-1.7
		c8.9-2.5,16.8-7.5,23-12.6c6.2-5,9.8-10,13.3-15.1c0.9-0.8,1.8-2.5,1.8-3.3c0.9-0.8,0.9-1.7,1.8-3.3c0.9-1.7,1.8-3.3,1.8-5
		c0.9-2.5,1.8-4.2,1.8-4.2s0-1.7,0.9-4.2C1214.2,578.5,1214.2,576.9,1214.2,575.2z"/>
	<path class="st8" d="M1073.2,538.4c0-1.7,0-2.5,0-4.2c0-3.3-0.9-7.5-1.8-11.7c-1.8-4.2-4.4-9.2-8-13.4c-3.5-4.2-8.9-7.5-15.1-10
		c-6.2-2.5-13.3-3.3-20.4-1.7c-7.1,0.8-14.2,4.2-19.5,9.2c-1.8,1.7-4.4,4.2-5.3,5.9c8,3.3,15.1,8.4,20.4,14.2
		c5.3,5.9,8.9,12.6,10.6,19.2c0,0.8,0,0.8,0.9,1.7c3.5,0,7.1,0,11.5,0c1.8,0,4.4,0.8,6.2,0.8c1.8,0.8,4.4,0.8,6.2,1.7
		c1.8,0.8,3.5,1.7,6.2,2.5c1.8-1.7,2.7-2.5,4.4-4.2c0.9-0.8,2.7-1.7,3.5-2.5c0,0,0,0,0-0.8c0.9-1.7,0.9-2.5,0.9-2.5s0-0.8,0.9-2.5
		C1073.2,540,1073.2,539.2,1073.2,538.4z"/>
	<path class="st8" d="M1059,611.2c-2.7-3.3-4.4-7.5-6.2-11.7c-1.8-4.2-2.7-9.2-2.7-13.4c0-5,0.9-9.2,1.8-13.4
		c1.8-4.2,3.5-8.4,6.2-12.6c0.9-1.7,2.7-3.3,3.5-5c-1.8-0.8-3.5-1.7-5.3-2.5s-3.5-1.7-6.2-2.5c-1.8-0.8-4.4-0.8-6.2-1.7
		c-8-1.7-16-0.8-23.1,1.7c-7.1,1.7-12.4,5.9-16.8,9.2c-3.5,3.3-7.1,6.7-8.9,10c1.8-3.3,5.3-6.7,8.9-10c4.4-3.3,9.8-7.5,16.8-9.2
		c3.5-0.8,8-1.7,11.5-2.5c0-0.8,0-0.8-0.9-1.7c-1.8-5.9-5.3-12.6-11.5-18.4c-5.3-5.9-13.3-10.9-22.2-14.2
		c-8.9-3.3-19.5-4.2-29.3-2.5c-9.7,1.7-20.4,5.9-28.4,12.6c-4.4,3.3-7.1,7.5-10.6,11.7c-2.7,4.2-4.4,9.2-6.2,14.2
		c6.2,0,11.5,1.7,16.8,3.3c8,3.3,14.2,7.5,18.6,12.6c1.8,1.7,2.7,3.3,4.4,5.9c0,0,0,0-0.9,0c-0.9-1.7-2.7-3.3-4.4-5
		c-4.4-5-10.6-9.2-18.6-11.7c-7.1-2.5-16-3.3-24.8-2.5c-8.9,1.7-16.8,5-23,10.9c-3.5,2.5-6.2,5.9-8.9,10c-2.7,3.3-4.4,7.5-5.3,11.7
		c-0.9,4.2-1.8,8.4-1.8,12.6c0.9,0,2.7-0.8,3.5-0.8c6.2-0.8,13.3,0,18.6,2.5c-5.3-1.7-10.6-1.7-16.8-0.8c-6.2,0.8-13.3,4.2-17.7,8.4
		c-2.7,2.5-4.4,5-7.1,7.5c-1.8,2.5-2.7,5.9-4.4,9.2c-0.9,3.3-1.8,6.7-0.9,10c0,3.3,0.9,6.7,1.8,10c0.9,2.5,1.8,4.2,3.5,6.7
		c0.9,0,1.8-0.8,1.8-0.8c2.7-0.8,5.3-1.7,8.9-2.5c5.3-0.8,11.5,0,16,2.5c0.9,0,1.8,0.8,2.7,0.8c-0.9,0-1.8-0.8-2.7-0.8
		c-4.4-1.7-9.7-1.7-14.2-0.8c-5.3,0.8-9.7,3.3-13.3,6.7c-1.8,1.7-3.5,3.3-5.3,5.9c-1.8,2.5-2.7,4.2-3.5,6.7c-0.9,2.5-0.9,5-0.9,7.5
		c0,2.5,0.9,5,0.9,7.5c1.8,5,4.4,9.2,8,11.7c1.8,1.7,3.5,2.5,6.2,4.2c0.9,0.8,2.7,0.8,3.5,1.7c0.9,0,2.7,0.8,3.5,0.8
		c4.4,0.8,8.9,0.8,13.3-0.8c3.5-0.8,7.1-3.3,9.8-5c2.7-1.7,4.4-4.2,5.3-6.7c0.9-1.7,1.8-3.3,2.7-5c0-0.8,0.9-1.7,0.9-1.7
		c0.9,0.8,2.7,1.7,4.4,1.7c5.3,1.7,11.5,2.5,16.8,1.7c6.2-0.8,11.5-3.3,16-7.5c2.7-1.7,4.4-4.2,6.2-6.7c1.8-2.5,2.7-5,3.5-8.4
		c0.9-2.5,0.9-5.9,0.9-8.4s-0.9-5.9-1.8-8.4c-1.8-5.9-5.3-10.9-9.8-14.2c-2.7-1.7-4.4-3.3-7.1-4.2c-0.9-0.8-2.7-0.8-4.4-1.7
		c-0.9,0-1.8,0-2.7-0.8c0-0.8,0-0.8,0-1.7c0,0,0,0,0-0.8c0.9,0,2.7,0,3.5,0.8c0.9,0,0.9,0,1.8,0.8c2.7,0.8,5.3,1.7,8,3.3
		c2.7,1.7,5.3,4.2,7.1,6.7c1.8,2.5,3.5,5.9,4.4,8.4c2.7,5.9,2.7,12.6,0.9,19.2c3.5,2.5,8,5,13.3,6.7c8.9,3.3,18.6,4.2,28.4,2.5
		c9.8-1.7,19.5-5.9,26.6-11.7c3.5-3.3,7.1-6.7,9.7-10.9c2.7-4.2,4.4-8.4,6.2-13.4c0.9-4.2,1.8-9.2,1.8-14.2c0-5-0.9-10-2.7-14.2
		c-3.5-9.2-8.9-17.6-16.8-23.4c-1.8-0.8-2.7-2.5-4.4-3.3c1.8,0.8,4.4,2.5,6.2,4.2c3.5,2.5,7.1,6.7,10.6,10c2.7,4.2,5.3,8.4,7.1,13.4
		c1.8,5,2.7,10,2.7,15.1c0,5-0.9,10-1.8,15.1c-0.9,1.7-0.9,3.3-1.8,5.9c2.7,0,5.3,0,8.9-0.8c8.9-1.7,16.8-5,23.9-10.9
		c1.8-1.7,3.5-3.3,4.4-5c-1.8-0.8-2.7-1.7-4.4-2.5C1065.3,617.9,1061.7,615.3,1059,611.2z"/>
	<path class="st3" d="M672.5,1167.6l-40.8,16.7v-56.9l40.8-22.6V1167.6z"/>
	<path class="st9" d="M528-366.9c-12.3,10.9-23.3,18.2-33,21.9c-9.7,3.5-18.2,4.3-25.4,2.6c-7.2-1.7-12.9-5-17.2-9.8
		c-4.6-5.2-6.5-10.8-5.6-16.8c1-6.1,4.6-11.8,10.6-17.2c5.9,5.6,12.2,9.9,19,13.1c6.9,3,13.8,4.2,20.7,3.4c7-0.8,13.7-4,20.1-9.7
		c7.8-7,12.1-15.2,12.8-24.7c0.7-9.7-1.5-20.1-6.5-31.1c-5.2-11.1-12.5-22.5-22-34l-51.8,46l-10.3-11.6l51.8-46
		c-16.8-17.8-32.1-29.4-46-34.8c-13.9-5.4-27-2.7-39.2,8.2c-5.8,5.1-9.3,10.8-10.4,17c-1.2,6.2-0.7,12.4,1.4,18.7
		c2.1,6,5.3,11.3,9.4,16c-6.7,6-13.4,9.6-20,10.7c-6.6,0.9-12.1-1.2-16.6-6.3c-4-4.5-6-10.3-6-17.2c-0.1-7,2.3-14.9,7.3-23.4
		c4.8-8.7,12.7-17.9,23.6-27.5c14.5-12.8,29.2-20.5,44.2-23c15-2.5,29.9-0.3,44.6,6.6c14.6,6.7,28.5,17.5,41.7,32.4
		c14,15.8,23.6,31.9,28.8,48.3c5.2,16.1,5.7,31.8,1.5,47C551.2-393.1,542.1-379.3,528-366.9z"/>
	<path class="st9" d="M328.8-157.6l-10.6-8.4l5.3-6.7c3-3.7,4.7-7.6,5.2-11.4c0.4-4.1-2.5-8.7-8.9-13.7l-105.1-83.4
		c-5.9-4.7-10.7-6.3-14.5-4.8c-3.8,1.5-7.1,4-9.9,7.6l-5.3,6.7l-10.6-8.4l55.6-70.1l10.6,8.4l-5.3,6.7c-3,3.7-4.7,7.7-5.1,11.8
		c-0.5,3.9,2.5,8.3,8.8,13.3l42.6,33.8l48.9-61.6l-42.6-33.8c-6.3-5-11.4-6.8-15.2-5.3c-3.8,1.2-7.2,3.7-10.1,7.5l-5.3,6.7
		l-10.6-8.4l55.6-70.1l10.6,8.4l-5.3,6.7c-2.9,3.6-4.5,7.5-5,11.6c-0.5,3.9,2.5,8.3,8.8,13.3l105.3,83.6c5.9,4.7,10.7,6.4,14.3,5
		c3.6-1.6,6.9-4.2,9.7-7.8l5.3-6.7l10.6,8.4l-55.6,70.1l-10.6-8.4l5.3-6.7c3-3.7,4.7-7.6,5.2-11.4c0.4-4.1-2.5-8.7-8.9-13.7
		L342.8-328l-48.9,61.6l49.3,39.1c6.3,5,11.4,6.9,15.2,5.7c3.8-1.5,7.1-4.1,10.1-7.8l5.3-6.7l10.6,8.4L328.8-157.6z"/>
	<path class="st9" d="M619.7-433.8l-4.3-12.4l8.9-3.1c4.4-1.5,7.8-3.7,10.2-6.6c2.6-3,2.6-8.2,0-15.6l-47.4-137.2l-21.8,7.5
		c-7.6,2.6-12.2,6.2-13.9,10.7c-1.6,4.5-1.8,9.7-0.6,15.5l3.3,14.4l-15.4,5.3l-15.1-47.8l151.8-52.5l17.6,46.9l-15.4,5.3l-6.6-13.3
		c-2.4-5.4-5.8-9.3-10-11.8c-4.1-2.6-9.9-2.5-17.5,0.1l-21.8,7.5l47.3,136.9c2.6,7.4,5.7,11.6,9.5,12.6c3.7,0.8,7.8,0.4,12.3-1.2
		l8.9-3.1l4.3,12.4L619.7-433.8z"/>
	<path class="st9" d="M841.5-515.8l-0.4-13.1l8.3-0.2c4.5-0.1,8.4-1.1,11.7-3c3.3-2.1,4.9-6.7,4.7-14.1l-3.6-131.4
		c-0.2-7.3-2-11.9-5.5-13.8c-3.4-1.9-7.4-2.7-11.9-2.6l-8.3,0.2l-0.4-13.1l85.1-2.3l0.4,13.1l-8.3,0.2c-4.6,0.1-8.6,1.3-12,3.5
		c-3.2,2.1-4.6,7-4.4,14.9l1.6,57c6.8-0.2,11.6-0.9,14.4-2c3-1.3,5.7-3.5,8.1-6.4c2.4-2.7,5.3-7.4,8.7-13.9c3.6-6.7,7.7-15,12.4-25
		c6.9-15,13.7-26.2,20.5-33.5c6.8-7.3,15.5-11.1,26.2-11.4c7.7-0.2,13.2,1.2,16.5,4.4c3.5,3.1,5.3,7.1,5.4,11.9
		c0.2,5.4-1,9.8-3.4,13.2c-2.4,3.3-5.5,5.3-9.2,6.1c-0.8-3.7-2.5-7-5.1-9.8c-2.4-2.8-5.9-4.1-10.6-4c-5.4,0.1-10,2.7-14,7.6
		c-4,4.8-8.6,12.6-13.8,23.4c-5.6,11.4-10.1,20-13.5,25.8c-3.2,5.6-6.9,10.3-11.1,14c8.6-0.2,15.7,1.8,21.3,6.1
		c5.8,4.1,10.9,9.9,15.2,17.3l24.1,40.6c4.7,8.1,9.3,13.9,13.9,17.3c4.7,3.4,10,5.1,15.7,4.9l1.3,0l0.4,13.1l-13.4,0.4
		c-10,0.3-18.1-0.3-24.4-1.7c-6.3-1.6-11.5-4.2-15.5-7.9c-4-3.6-7.7-8.4-11.1-14.4L931.3-590c-3-5.1-5.9-8.9-8.6-11.3
		c-2.6-2.4-5.6-3.9-9.2-4.3c-3.6-0.6-8.4-0.8-14.5-0.7l1.6,57.8c0.2,7.9,2,12.8,5.2,14.9c3.4,1.9,7.5,2.7,12.1,2.6l8.3-0.2l0.4,13.1
		L841.5-515.8z"/>
	<path class="st9" d="M1044.9-519.6l1.7-13l4,0.5c5,0.6,9.1-0.1,12.4-2.2c3.4-2.3,7.1-7.3,11.1-15l78.6-149.1l30.3,3.9l36.6,166.8
		c1.4,7,3.5,12,6.2,14.8c2.9,2.7,6.6,4.4,11.2,5l4.3,0.6l-1.7,13l-82-10.7l1.7-13l8.8,1.1c3.5,0.5,6.7,0,9.4-1.5
		c2.9-1.4,4.6-4.1,5.1-8c0.3-1.9,0.2-3.8-0.1-5.7c-0.1-2-0.4-3.8-0.9-5.5l-5.9-29.1l-66.6-8.7l-11.7,23.8c-1.2,2-2.2,4.3-3.1,6.9
		c-0.9,2.4-1.4,4.5-1.6,6.3c-0.5,3.9,0.3,7,2.6,9.2c2.4,2.1,5.8,3.5,10,4l9,1.2l-1.7,13L1044.9-519.6z M1116.1-589.4l56,7.3l-9-46.8
		c-1.4-6.8-2.8-14.1-4.2-21.6c-1.2-7.5-2.1-14.5-2.7-20.9c-2.2,5.7-4.8,11.7-7.8,18.2c-3,6.4-6.2,13-9.6,19.5L1116.1-589.4z"/>
	<path class="st9" d="M1250.5-478.9l5.8-11.7l7.4,3.7c4.2,2.1,8.1,2.9,11.9,2.6c4-0.4,7.7-4.1,11.2-11.2l57.9-116.5
		c3.3-6.6,3.8-11.5,1.6-14.7c-2.2-3.3-5.2-5.9-9.2-7.9l-7.4-3.7l5.8-11.7l71.2,35.4c21.4,10.6,35,23.1,40.7,37.3
		c5.9,14.1,5,29-2.8,44.7c-4.8,9.6-11.4,17.4-20.1,23.5c-8.6,6.1-19.1,9.2-31.6,9.4c-12.5,0.2-27.1-3.9-43.9-12.2l-10.8-5.4
		l-19.5,39.3c-3.3,6.6-3.8,11.5-1.6,14.7c2.2,3.1,5.4,5.7,9.6,7.8l12,6l-5.8,11.7L1250.5-478.9z M1353.3-526.2
		c12.8,6.4,23.4,7.8,32,4.2c8.7-3.5,16.7-12.5,24-27.2c6.5-13.1,8.9-24,7.2-32.6c-1.7-8.6-8.5-15.9-20.3-21.7l-12-6l-39.3,79.1
		L1353.3-526.2z"/>
	<path class="st9" d="M1397.3-395.2l8.7-9.8l6.2,5.5c3.5,3.1,7.1,4.9,10.8,5.6c4,0.6,8.5-2,13.7-7.9l85.4-96.8
		c5.2-5.9,7.2-10.7,5.9-14.4c-1-3.7-3.2-7.1-6.7-10.2l-6.2-5.5l8.7-9.8l105.8,93.4l-31.9,39l-11-9.7l5.8-10.2
		c3.9-6.8,5.7-12.9,5.5-18.4c0-5.4-3.1-10.9-9.4-16.5l-28.5-25.2l-96.6,109.4c-4.8,5.5-6.7,10-5.6,13.6c1.2,3.7,3.5,7.1,6.9,10
		l10.2,9l-8.7,9.8L1397.3-395.2z"/>
	<path class="st9" d="M1565.6-210.7c-13.8-15-22.2-30.4-25-46c-2.9-15.6-1-31.1,5.7-46.5c6.8-15.2,17.7-29.7,32.7-43.6
		c15-13.8,30.4-23.4,46-28.7c15.7-5.2,31.2-5.6,46.4-1.4c15.4,4.3,30.1,14,43.9,29c13.1,14.2,21,29.2,23.9,44.8
		c3.1,15.6,1.4,31.2-5.1,46.7c-6.4,15.4-17.1,30-32.1,43.8c-15,13.8-30.6,23.3-46.5,28.5c-15.8,5.1-31.5,5.4-46.9,1.1
		C1593.1-187.1,1578.8-196.4,1565.6-210.7z M1578-222.1c12.6,13.7,26.9,18.3,43,13.7c16.1-4.5,34-15.8,53.6-33.9
		c19.7-18.1,32.4-34.8,38.1-50.4c5.9-15.6,2.6-30.2-9.9-43.8c-12.5-13.6-26.8-18.1-43-13.7c-16.1,4.3-33.9,15.4-53.6,33.5
		c-19.7,18.1-32.4,34.9-38.3,50.6C1562.2-250.3,1565.6-235.7,1578-222.1z"/>
	<path class="st10" d="M602.7,1477.2c105.3,103.8,401.8,270.5,744.7,107.3"/>
	<path class="st10" d="M460.5,1205.2c-46.3-202.7-25.2-656.3,468.6-765.6"/>
	<path class="st10" d="M1623.5,1242.9c47-149.3,83.3-497.1-200.8-694.5"/>
	<path class="st10" d="M991.8,431.3c117.1-12.6,271.9,4.2,380.7,83.7"/>
	<path class="st11" d="M544.2,1711.4c135,123.7,516.4,304.5,962.2,38.1"/>
	<path class="st12" d="M642.9,1688.2c113.7,87.5,428.7,214.7,779,23.2"/>
	<path class="st11" d="M273.7,740.8c-65.7,154.4-139.5,529.9,90.9,796.3"/>
	<path class="st12" d="M323.2,808.4c-43.9,122.4-94.3,422.2,54.6,642.3"/>
	<path class="st11" d="M1734.5,1547.3c94-139,238.1-493.5,62.7-799.1"/>
	<path class="st12" d="M1698.8,1471.5c66.4-111.8,173.2-396.4,69-640.9"/>
	<g class="st9">
		<path d="M548.6,542l-9.6-9.2l7.4-7.8c1.2-1.3,2.3-2.6,3.1-4c0.8-1.4,1.2-2.9,1.2-4.5c0-1.6-0.6-3.4-1.6-5.4
			c-1.1-1.9-2.9-4.1-5.5-6.6L502.9,466l-45,47.3l40.5,38.5c2.6,2.5,4.9,4.2,6.9,5.1c2,1,3.8,1.4,5.4,1.4c1.6,0,3.1-0.5,4.4-1.4
			c1.3-0.9,2.6-1.9,3.8-3.2l7.4-7.8l9.6,9.2l-59.5,62.5l-9.6-9.2l7.2-7.6c1.2-1.3,2.3-2.6,3.1-4c0.8-1.4,1.2-2.9,1.2-4.5
			c0-1.6-0.6-3.4-1.6-5.4c-1.1-1.9-2.9-4.1-5.5-6.6l-87.2-83c-2.4-2.3-4.6-3.9-6.5-4.8c-1.9-0.9-3.7-1.2-5.3-1.1
			c-1.6,0.1-3,0.6-4.4,1.5c-1.3,0.9-2.6,1.9-3.8,3.2l-7.2,7.6l-9.6-9.2l59.5-62.5l9.6,9.2l-7.4,7.8c-1.2,1.3-2.3,2.6-3.1,4
			c-0.8,1.4-1.2,2.9-1.1,4.5c0,1.6,0.6,3.4,1.6,5.4c1.1,2,2.9,4.2,5.5,6.6l34.9,33.2l45-47.3l-34.9-33.2c-2.6-2.5-4.9-4.2-6.9-5.2
			c-2-1-3.8-1.4-5.4-1.4c-1.6,0.1-3.1,0.5-4.5,1.4c-1.3,0.9-2.6,2-3.8,3.2l-7.4,7.8l-9.6-9.2l59.5-62.5l9.6,9.2l-7.2,7.6
			c-1.2,1.2-2.2,2.5-3,3.9c-0.8,1.4-1.2,2.9-1.2,4.5c0,1.6,0.6,3.4,1.6,5.4c1.1,1.9,2.9,4.1,5.5,6.6l87.4,83.2
			c2.4,2.2,4.5,3.8,6.4,4.7c1.9,0.9,3.7,1.2,5.2,1.1c1.6-0.2,3-0.7,4.2-1.5c1.3-0.9,2.5-1.9,3.7-3.2l7.2-7.6l9.6,9.2L548.6,542z"/>
		<path d="M573.2,290.2c12.3-7.6,24-12.2,35.3-14c11.3-1.8,21.9-1.1,31.9,2c10,3.1,19.3,8.3,27.8,15.7c8.5,7.4,16.2,16.5,22.9,27.4
			c7.7,12.4,13,24.6,16,36.5c3,11.9,3.6,23.3,1.8,34c-1.8,10.8-5.9,20.7-12.3,29.9c-6.5,9.2-15.3,17.3-26.5,24.2
			c-10,6.2-19,10.5-27,13c-8,2.5-15.2,3.5-21.4,3.2c-6.2-0.4-11.5-1.9-15.8-4.7c-4.3-2.7-7.8-6.2-10.5-10.5
			c-3.4-5.5-4.2-11.1-2.3-16.7c1.9-5.6,6.2-10.4,12.9-14.6c3.9,4.9,8.1,9.2,12.4,12.7c4.4,3.5,8.9,6.1,13.7,7.7
			c4.7,1.6,9.6,2.2,14.5,1.7c5-0.5,10-2.3,15.1-5.5c5.7-3.5,9.8-8,12.3-13.6c2.5-5.6,3.6-11.8,3.3-18.8c-0.3-7-1.8-14.5-4.7-22.6
			c-2.8-8.1-6.8-16.4-11.8-25L611,383.2l-7.9-12.8l49.9-30.9c-5.9-9.1-11.7-16.8-17.5-23.2c-5.8-6.4-11.5-11.2-17.3-14.4
			c-5.7-3.2-11.6-4.8-17.5-4.7c-5.9,0.1-12,2.1-18.2,5.9c-4.3,2.7-7.4,5.9-9.4,9.7c-2,3.8-3,7.8-3.2,12c-0.2,4.2,0.4,8.4,1.7,12.6
			s3.1,8.1,5.2,11.6c-4,2.5-7.9,4.3-11.7,5.6c-3.8,1.2-7.3,1.8-10.6,1.8c-3.3-0.1-6.3-0.8-8.9-2.3c-2.7-1.5-4.9-3.6-6.7-6.5
			c-2.1-3.4-3.1-7.3-3.1-11.7c0.1-4.4,1.4-9.1,4.1-14.1c2.7-5,6.7-10.2,12.1-15.5C557.5,300.9,564.6,295.5,573.2,290.2z"/>
		<path d="M825.6,338.1c1.2,3.4,2.4,6,3.7,7.8c1.3,1.8,2.7,3,4.2,3.7c1.5,0.7,3,1,4.6,0.8c1.6-0.2,3.2-0.5,4.9-1.1l9.9-3.4l4.3,12.6
			l-81.6,28l-4.3-12.6l9.9-3.4c1.8-0.6,3.3-1.3,4.7-2.2c1.3-0.8,2.4-2,3.1-3.4c0.7-1.4,1-3.3,1-5.5c-0.1-2.2-0.7-5-1.8-8.4
			l-43.4-126.4l-18.9,6.5c-3.5,1.2-6.4,2.6-8.5,4.2c-2.1,1.6-3.7,3.4-4.7,5.3c-1,1.9-1.5,4.1-1.5,6.4c0,2.3,0.3,4.9,0.9,7.6
			l3.4,15.2l-15.9,5.5L684.9,229l147.3-50.6l16.9,45.4l-15.8,5.4l-6.8-14.1c-1.2-2.5-2.5-4.7-4-6.5c-1.4-1.8-3.2-3.2-5.2-4.1
			c-2-0.9-4.3-1.3-7-1.3c-2.7,0.1-5.7,0.7-9.3,1.9l-18.9,6.5L825.6,338.1z"/>
		<path d="M1107.5,334.4c-6.4,0.1-12-0.3-16.8-1.3c-4.8-0.9-9-2.4-12.5-4.4c-3.6-2-6.7-4.4-9.3-7.3c-2.7-2.9-5.1-6.3-7.2-10.1
			l-24.4-42.8c-2.1-3.6-4-6.4-5.8-8.5c-1.7-2-3.6-3.5-5.5-4.5c-1.9-1-4.1-1.6-6.4-1.9s-5.1-0.3-8.4-0.2l0.9,53
			c0.1,3.6,0.4,6.4,1.2,8.5c0.7,2.1,1.7,3.7,2.8,4.8c1.2,1.1,2.5,1.9,4.1,2.2s3.3,0.5,5.1,0.5l10.5-0.2l0.2,13.3l-83.7,1.4
			l-0.2-13.3l10.5-0.2c1.8,0,3.5-0.2,5-0.6c1.5-0.3,2.9-1,4.1-2.1c1.2-1,2.1-2.6,2.7-4.6c0.6-2,0.9-4.6,0.8-7.9l-2-121.8
			c-0.1-3.3-0.4-6-1.1-8c-0.7-2-1.6-3.5-2.8-4.5c-1.2-1-2.6-1.7-4.1-2.1c-1.6-0.3-3.2-0.5-5-0.5l-10.5,0.2l-0.2-13.2l83.7-1.4
			l0.2,13.2l-10.5,0.2c-1.8,0-3.5,0.2-5.1,0.6c-1.6,0.4-2.9,1.2-4.1,2.3c-1.1,1.2-2,2.8-2.7,4.9c-0.7,2.1-1,5-0.9,8.6l0.8,52.2
			c2.8,0,5.1-0.2,7.1-0.5c2-0.3,3.8-0.7,5.4-1.2c1.6-0.6,3-1.3,4.3-2.3c1.3-1,2.6-2.1,3.8-3.5c2.2-2.4,5.1-6.6,8.7-12.7
			c3.6-6,7.5-13.7,12-23c3.5-7.4,6.9-13.7,10-18.9c3.1-5.2,6.4-9.5,9.8-12.8c3.4-3.3,7.1-5.8,11.1-7.3c4-1.6,8.5-2.4,13.5-2.5
			c7-0.1,12,1.3,15.1,4.2c3.1,2.9,4.7,6.7,4.8,11.2c0.1,5.1-0.9,9.3-3.1,12.6c-2.1,3.3-5.1,5.3-8.8,6.1c-0.4-1.7-0.9-3.3-1.7-4.9
			c-0.8-1.5-1.7-2.9-2.9-4c-1.2-1.2-2.5-2.1-4.1-2.8s-3.5-1-5.6-1c-2.5,0-4.8,0.6-6.9,1.6c-2.1,1.1-4,2.7-6,4.9
			c-1.9,2.2-3.9,5.1-5.9,8.6c-2,3.5-4.3,7.8-6.8,12.9c-2.7,5.3-5.1,9.8-7.1,13.7c-2.1,3.9-4,7.2-5.8,9.9c-1.8,2.8-3.6,5.1-5.4,7.1
			c-1.8,2-3.6,3.7-5.5,5.2c3.7-0.1,7.2,0.5,10.5,1.5c3.4,1.1,6.5,2.6,9.4,4.6c2.9,2,5.6,4.4,8.1,7.3c2.5,2.8,4.7,6,6.7,9.5
			l20.8,35.9c2.3,4,4.6,7.3,6.6,10.1c2.1,2.8,4.2,5.1,6.3,6.9c2.1,1.8,4.3,3,6.6,3.9c2.3,0.8,4.7,1.2,7.3,1.2l1.6,0l0.2,13.3
			L1107.5,334.4z"/>
		<path d="M1182.5,289.6l-12.2,19.1c-1.1,1.8-2.4,4-3.7,6.4c-1.3,2.5-2.2,4.7-2.7,6.7c-0.4,1.6-0.4,3-0.1,4.4
			c0.3,1.3,0.9,2.5,1.8,3.5c0.8,1,1.9,1.9,3.1,2.6c1.2,0.7,2.5,1.3,3.9,1.6l10.2,2.6l-3.2,12.9l-63.1-15.9l3.2-12.9l3,0.7
			c2.1,0.5,4.1,0.8,6,0.8c1.9,0,3.8-0.5,5.6-1.4c1.9-0.9,3.8-2.3,5.7-4.3c2-1.9,4.1-4.5,6.4-7.8l88.4-129.3l33.3,8.4l14.8,155.5
			c0.3,3.7,0.9,6.8,1.6,9.4c0.7,2.6,1.7,4.7,2.9,6.4c1.2,1.7,2.6,3,4.2,4c1.6,1,3.3,1.7,5.2,2.2l4.4,1.1l-3.2,12.9l-80-20.1
			l3.2-12.9l9.5,2.4c1.2,0.3,2.5,0.4,3.8,0.4c1.4,0,2.6-0.3,3.8-0.8c1.2-0.5,2.2-1.3,3.2-2.3c0.9-1,1.6-2.4,2-4
			c0.5-2,0.7-3.9,0.7-5.9c0-1.9-0.1-3.6-0.2-5.1l-2.4-26.4L1182.5,289.6z M1237.5,245.4c-0.2-3-0.3-6.1-0.5-9.4
			c-0.1-3.3-0.3-6.6-0.4-10c-0.1-3.4-0.2-6.7-0.2-10.1c0-3.3,0-6.5,0.1-9.5c-1.3,2.3-2.8,4.7-4.5,7.4c-1.7,2.7-3.4,5.4-5.3,8.2
			c-1.8,2.8-3.7,5.6-5.5,8.4c-1.8,2.8-3.6,5.5-5.2,8.1l-24.6,37.4l49,12.3L1237.5,245.4z"/>
		<path d="M1481.6,337.4c-3.5,6.6-8,12.4-13.5,17.3c-5.5,4.9-12.1,8.3-19.8,10.3c-7.7,1.9-16.3,2.1-26.1,0.5
			c-9.7-1.6-20.6-5.6-32.5-11.9l-7.6-4l-18.7,35.4c-1.5,2.9-2.4,5.4-2.7,7.5c-0.3,2.1-0.1,3.9,0.5,5.4c0.6,1.5,1.5,2.7,2.8,3.8
			c1.3,1,2.7,2,4.2,2.8l13.5,7.1l-6.2,11.8l-80.7-42.7l6.2-11.8l9.3,4.9c1.7,0.9,3.3,1.5,4.8,1.9c1.5,0.4,3.1,0.4,4.6-0.1
			c1.5-0.5,3.1-1.5,4.7-3.1c1.6-1.6,3.2-3.9,4.9-7.1l56.3-106.5c1.6-2.9,2.5-5.5,2.9-7.5c0.4-2.1,0.3-3.8-0.3-5.3
			c-0.5-1.5-1.4-2.8-2.6-3.8c-1.2-1-2.6-2-4.2-2.8l-9.3-4.9l6.2-11.7l67.9,35.9c10.2,5.4,18.5,11.2,24.9,17.3
			c6.4,6.2,11,12.6,13.9,19.3c2.9,6.7,4,13.6,3.4,20.6C1487.6,323,1485.4,330.2,1481.6,337.4z M1388.9,336.8l5.4,2.9
			c5.5,2.9,10.5,4.7,15,5.3c4.5,0.6,8.8,0.1,12.8-1.5c4-1.7,7.7-4.6,11.3-8.6c3.6-4.1,7.1-9.4,10.6-16.1c3.1-5.9,5.3-11.3,6.7-16.1
			c1.3-4.9,1.7-9.3,1.1-13.2c-0.6-4-2.3-7.6-4.9-10.8c-2.7-3.2-6.5-6.1-11.5-8.7l-8.6-4.6L1388.9,336.8z"/>
		<path d="M1646.9,403l-30.1,38.6l-10.8-9l5.4-11.1c3.2-6.8,4.6-12.7,4-17.9c-0.5-5.2-3.4-9.9-8.5-14.2l-26.3-22l-86.5,103.4
			c-2.1,2.5-3.5,4.7-4.3,6.7c-0.8,2-1,3.7-0.9,5.3c0.2,1.6,0.8,3,1.8,4.3c1,1.3,2.2,2.5,3.5,3.5l11.9,9.9l-8.5,10.2l-70-58.6
			l8.5-10.2l8.1,6.7c1.4,1.2,2.9,2.2,4.3,2.9c1.4,0.7,2.9,1,4.5,0.9c1.6-0.1,3.3-0.8,5.2-2c1.9-1.2,3.9-3.2,6.2-5.9l76.7-91.7
			c2.3-2.7,3.9-5.1,4.7-7.2c0.9-2,1.2-3.9,1.1-5.5c-0.1-1.6-0.7-3-1.6-4.3c-1-1.3-2.1-2.5-3.6-3.7l-8.1-6.7l8.5-10.1L1646.9,403z"/>
		<path d="M1709.5,622.7c-11,8.3-22.1,14.3-33.4,18.2c-11.3,3.8-22.3,5.3-33,4.4s-21.1-4.2-30.9-9.9c-9.8-5.7-18.8-14-27-24.8
			c-8.6-11.4-14.3-22.6-17.2-33.8c-2.9-11.1-3.2-21.9-1-32.3c2.2-10.4,6.8-20.5,13.8-30.1c7-9.6,16-18.6,27-26.9
			c11-8.3,22.1-14.5,33.2-18.5c11.1-4,22-5.6,32.6-4.7c10.6,0.8,20.8,4.2,30.7,10c9.9,5.9,19.1,14.5,27.7,26
			c8.1,10.8,13.6,21.7,16.4,32.6c2.8,11,3.2,21.7,1.1,32.3c-2.1,10.5-6.5,20.7-13.3,30.4C1729.6,605.3,1720.6,614.4,1709.5,622.7z
			 M1633,521.2c-9.6,7.2-17.6,14.2-24.1,21.1c-6.5,6.9-11.4,13.6-14.5,20.2s-4.4,13.1-3.9,19.5c0.5,6.4,3.1,12.7,7.8,18.8
			c4.7,6.2,10,10.5,16,12.8c6,2.3,12.6,2.8,19.7,1.6c7.2-1.2,15-4.1,23.3-8.5c8.4-4.4,17.3-10.2,26.9-17.4
			c9.6-7.2,17.6-14.2,24.2-21c6.6-6.8,11.4-13.5,14.6-20.1c3.2-6.6,4.5-13,3.9-19.3c-0.5-6.3-3.1-12.6-7.8-18.7
			c-4.7-6.2-10-10.5-16-12.8c-6-2.3-12.6-2.9-19.8-1.7c-7.2,1.2-15,3.9-23.4,8.3C1651.5,508.2,1642.5,514,1633,521.2z"/>
	</g>
</g>
</svg>
