<svg width="59" height="89" viewBox="0 0 59 89" fill="none" xmlns="http://www.w3.org/2000/svg">
<path d="M55.4945 23.8841C55.4945 23.8841 54.9964 6.38429 54.9773 6.17528C54.939 5.85226 54.8623 5.52925 54.7282 5.22524C54.3834 4.4462 53.7513 3.83817 52.9468 3.53416L47.6981 1.50107C46.8935 1.19705 46.0123 1.21605 45.2269 1.55807C44.4416 1.90009 43.8286 2.52711 43.5221 3.32515L39.9399 12.5026C39.3844 12.3696 38.8289 12.2556 38.2734 12.1605V8.70239C38.2734 3.91418 34.3464 0 29.5 0C24.6536 0 20.7266 3.89518 20.7266 8.70239V12.1605C20.1711 12.2556 19.6156 12.3696 19.0601 12.5026L15.4779 3.32515C15.1714 2.52711 14.5584 1.90009 13.7731 1.55807C12.9877 1.21605 12.1065 1.19705 11.3019 1.50107L6.05325 3.51516C5.2487 3.81917 4.61656 4.4272 4.27175 5.20623C4.13766 5.51025 4.06104 5.81426 4.02273 6.11828C4.00357 6.34629 3.50552 23.8841 3.50552 23.8841C1.28344 27.5702 0 31.8834 0 36.5006V83.6228C0 86.6059 2.43279 89.019 5.44026 89.019H53.5597C56.5672 89.019 59 86.6059 59 83.6228V36.5006C59 31.8834 57.7166 27.5702 55.4945 23.8841ZM52.5062 19.8749C51.9315 19.2479 51.3377 18.6588 50.7055 18.1078L52.3338 13.9466L52.5062 19.8749ZM46.2039 4.3512C46.2805 4.16119 46.4912 4.08518 46.6636 4.14219L51.8932 6.15628C52.0081 6.19428 52.0656 6.28928 52.0847 6.34629C52.1039 6.40329 52.1422 6.49829 52.0847 6.6123L48.311 16.2457C46.587 15.0487 44.6906 14.0606 42.6792 13.3196L46.2039 4.3512ZM29.5 2.85013C32.4308 2.85013 34.8828 4.97822 35.3234 7.77135C33.7526 6.38429 31.7029 5.56725 29.5 5.56725C27.3354 5.56725 25.2857 6.34629 23.6766 7.75235C24.1364 4.97822 26.5692 2.85013 29.5 2.85013ZM34.8636 11.8375C34.6146 11.8375 24.3854 11.8375 24.1364 11.8375C24.4237 11.2105 24.826 10.6405 25.324 10.1275C26.4351 9.02541 27.9292 8.41738 29.5 8.41738C31.8562 8.41738 33.925 9.80444 34.8636 11.8375ZM6.8961 6.34629C6.91526 6.28928 6.97273 6.19428 7.08766 6.15628L12.3172 4.14219C12.5088 4.06618 12.7003 4.16119 12.7769 4.3512L16.2825 13.3196C14.2903 14.0606 12.3938 15.0487 10.6698 16.2457L6.8961 6.6313C6.85779 6.51729 6.87695 6.42229 6.8961 6.34629ZM6.66623 13.9276L8.29448 18.0888C7.66234 18.6588 7.04935 19.2479 6.49383 19.8559L6.66623 13.9276ZM56.1266 83.6038C56.1266 85.0098 54.9773 86.1499 53.5597 86.1499H5.44026C4.02273 86.1499 2.87338 85.0098 2.87338 83.6038V36.4816C2.87338 24.4541 12.7386 14.6687 24.8834 14.6687H34.1357C46.2614 14.6687 56.1266 24.4541 56.1266 36.4816V83.6038Z" fill="#AAD4C8"/>
<path d="M9.99935 48.2052C7.68149 48.2052 5.78506 50.0863 5.78506 52.3854V79.2336C5.78506 81.5327 7.66234 83.4138 9.99935 83.4138H48.9815C51.2994 83.4138 53.1958 81.5327 53.1958 79.2336V52.3854C53.1958 50.0863 51.2994 48.2052 48.9815 48.2052H9.99935ZM49.0007 80.5636H9.99935C9.27143 80.5636 8.65844 79.9746 8.65844 79.2336V61.3158H44.8247V64.5649H47.6981V61.3158H50.3032V79.2336C50.3224 79.9746 49.7286 80.5636 49.0007 80.5636ZM50.3224 52.3854V58.4846H8.6776V52.3854C8.6776 51.6633 9.27143 51.0553 10.0185 51.0553H49.0007C49.7286 51.0553 50.3224 51.6443 50.3224 52.3854Z" fill="#AAD4C8"/>
<path d="M38.6182 20.5209H20.3818V28.6533H38.6182V20.5209ZM35.7448 25.8222H23.2552V23.371H35.7448V25.8222Z" fill="#AAD4C8"/>
</svg>
