<svg width="86" height="77" viewBox="0 0 86 77" fill="none" xmlns="http://www.w3.org/2000/svg">
<path d="M1.56661 74.8566C2.56036 75.8581 3.93991 76.4355 5.34285 76.4355H6.00924H8.85019H80.6572C82.0601 76.4355 83.4396 75.8581 84.4334 74.8566C85.4271 73.855 86 72.4764 86 71.0625V26.6057H0V71.0507C0 72.4646 0.572866 73.855 1.56661 74.8566ZM68.6737 30.2113H80.9845V41.2518H68.6737V30.2113ZM68.6737 44.3036H80.9845V55.3323H68.6737V44.3036ZM52.7504 30.2113H65.0612V41.2518H52.7504V30.2113ZM52.7504 44.3036H65.0612V55.3323H52.7504V44.3036ZM52.7504 58.3841H65.0612V69.4129H52.7504V58.3841ZM36.8388 30.2113H49.1495V41.2518H36.8388V30.2113ZM36.8388 44.3036H49.1495V55.3323H36.8388V44.3036ZM36.8388 58.3841H49.1495V69.4129H36.8388V58.3841ZM20.9154 30.2113H33.2262V41.2518H20.9154V30.2113ZM20.9154 44.3036H33.2262V55.3323H20.9154V44.3036ZM20.9154 58.3841H33.2262V69.4129H20.9154V58.3841ZM5.00381 44.3036H17.3146V55.3323H5.00381V44.3036ZM5.00381 58.3841H17.3146V69.4129H5.00381V58.3841Z" fill="#616E7D"/>
<path d="M85.9766 21.4802H0V24.6615H85.9766V21.4802Z" fill="#AAD4C8"/>
<path d="M8.8385 6.186H5.99755H5.33116C3.92822 6.186 2.54867 6.76337 1.55492 7.76491C0.572866 8.76645 0 10.145 0 11.559V17.8039H85.9766V11.559C85.9766 10.145 85.4038 8.76645 84.41 7.76491C83.4163 6.76337 82.0484 6.186 80.6455 6.186H71.5965V13.2204C71.5965 14.5283 70.5443 15.6005 69.2349 15.6005H64.2662C62.9685 15.6005 61.9046 14.5401 61.9046 13.2204V6.186H24.0721V13.2204C24.0721 14.5283 23.0198 15.6005 21.7104 15.6005H16.7417C15.4323 15.6005 14.3801 14.5401 14.3801 13.2204V6.186H8.8385Z" fill="#AAD4C8"/>
<path d="M85.9766 17.8039H0V21.4802H85.9766V17.8039Z" fill="#82BFAB"/>
<path d="M16.7417 13.2204H21.7104V6.186V0H16.7417V6.186V13.2204Z" fill="#616E7D"/>
<path d="M64.2662 13.2204H69.2466V6.186V0H64.2662V6.186V13.2204Z" fill="#616E7D"/>
<path d="M33.2262 30.2113H20.9154V41.2518H33.2262V30.2113Z" fill="#82BFAB"/>
<path d="M49.1495 30.2113H36.8388V41.2518H49.1495V30.2113Z" fill="#82BFAB"/>
<path d="M65.0612 30.2113H52.7504V41.2518H65.0612V30.2113Z" fill="#82BFAB"/>
<path d="M80.9845 30.2113H68.6737V41.2518H80.9845V30.2113Z" fill="#82BFAB"/>
<path d="M17.3146 44.3036H5.00381V55.3323H17.3146V44.3036Z" fill="#82BFAB"/>
<path d="M33.2262 44.3036H20.9154V55.3323H33.2262V44.3036Z" fill="#82BFAB"/>
<path d="M49.1495 44.3036H36.8388V55.3323H49.1495V44.3036Z" fill="#82BFAB"/>
<path d="M65.0612 44.3036H52.7504V55.3323H65.0612V44.3036Z" fill="#AAD4C8"/>
<path d="M80.9845 44.3036H68.6737V55.3323H80.9845V44.3036Z" fill="#82BFAB"/>
<path d="M17.3146 58.3841H5.00381V69.4129H17.3146V58.3841Z" fill="#82BFAB"/>
<path d="M33.2262 58.3841H20.9154V69.4129H33.2262V58.3841Z" fill="#AAD4C8"/>
<path d="M49.1495 58.3841H36.8388V69.4129H49.1495V58.3841Z" fill="#82BFAB"/>
<path d="M65.0612 58.3841H52.7504V69.4129H65.0612V58.3841Z" fill="#82BFAB"/>
</svg>
