<svg width="67" height="86" viewBox="0 0 67 86" fill="none" xmlns="http://www.w3.org/2000/svg">
<path d="M24.143 6.20645C22.7598 6.57707 21.9298 8.00639 22.2986 9.38271L23.1569 12.5858L28.1867 11.238C28.1867 11.238 27.5028 8.6856 27.3284 8.03498C26.9596 6.65866 25.5262 5.83582 24.143 6.20645ZM25.1957 10.1352C24.4161 10.3441 23.6197 9.88698 23.4119 9.11123C23.204 8.33549 23.6651 7.54142 24.4447 7.33252C25.2244 7.12363 26.0207 7.58076 26.2286 8.3565C26.4364 9.13225 25.9753 9.92631 25.1957 10.1352Z" fill="#E8505B"/>
<g opacity="0.45">
<g opacity="0.45">
<path opacity="0.45" d="M26.2286 8.3565C26.0207 7.58076 25.2244 7.12363 24.4447 7.33253C24.3693 7.35274 24.2939 7.37296 24.2503 7.41146C24.4313 7.28248 24.4179 7.23243 24.77 7.13809C25.5496 6.92919 26.346 7.38632 26.5538 8.16207C26.7416 8.86274 26.4901 9.33244 25.977 9.63083C26.2051 9.27471 26.3426 8.78191 26.2286 8.3565ZM23.8242 12.0583L22.9659 8.85524C22.7313 7.9794 22.9073 7.1276 23.4657 6.49523C22.515 7.0718 21.9902 8.23161 22.2986 9.38271L23.1569 12.5858L28.1867 11.238C28.1867 11.238 28.1532 11.1129 28.0995 10.9127L23.8242 12.0583Z" fill="#B03D44"/>
</g>
</g>
<path d="M64.2772 73.0982L21.8509 84.4663C20.4928 84.8302 19.1164 84.0189 18.761 82.6926L2.22611 20.9835C1.86404 19.6322 2.68227 18.2597 4.01516 17.9025L46.4415 6.53441C47.7995 6.17052 49.176 6.98181 49.5313 8.30808L66.0662 70.0172C66.4468 71.3368 65.6352 72.7343 64.2772 73.0982Z" fill="#3E89CC"/>
<path d="M46.8622 9.21102L5.01428 20.4241L21.4553 81.7829L63.3032 70.5698L46.8622 9.21102Z" fill="#C3ECFE"/>
<path d="M45.7555 11.5191L7.12671 21.8697L22.562 79.4749L61.1908 69.1243L45.7555 11.5191Z" fill="white"/>
<path d="M40.7511 9.2393L41.4216 11.7417L10.9913 19.8955L10.3208 17.3931C10.2739 17.2179 10.2521 17.036 10.2554 16.8473C10.2873 16.061 10.8323 15.3786 11.6119 15.1697L38.5213 7.95932C39.4954 7.67149 40.4896 8.26336 40.7511 9.2393Z" fill="#E8505B"/>
<path opacity="0.45" d="M41.2539 11.1161L41.4215 11.7417L10.9913 19.8954L10.5085 18.0937C10.3811 17.6183 10.299 17.2111 10.2554 16.8473C10.2873 16.061 10.8322 15.3786 11.6118 15.1697L11.8382 15.109C11.5062 15.6807 11.3351 16.4507 11.5229 17.1514L12.0057 18.9531L41.2539 11.1161Z" fill="#B03D44"/>
<g opacity="0.15">
<path opacity="0.15" d="M19.4762 25.1049L25.7383 23.4269" stroke="#0964AF" stroke-width="3.1215" stroke-miterlimit="10" stroke-linecap="round" stroke-linejoin="round"/>
<path opacity="0.15" d="M40.3582 21.6552L45.1365 20.3749" stroke="#0964AF" stroke-width="3.1215" stroke-miterlimit="10" stroke-linecap="round" stroke-linejoin="round"/>
<path opacity="0.15" d="M20.0126 27.1068L38.2959 22.2078" stroke="#0964AF" stroke-width="3.1215" stroke-miterlimit="10" stroke-linecap="round" stroke-linejoin="round"/>
<path opacity="0.15" d="M20.549 29.1087L45.6729 22.3768" stroke="#0964AF" stroke-width="3.1215" stroke-miterlimit="10" stroke-linecap="round" stroke-linejoin="round"/>
<path opacity="0.15" d="M38.2052 26.4966L46.2026 24.3537" stroke="#0964AF" stroke-width="3.1215" stroke-miterlimit="10" stroke-linecap="round" stroke-linejoin="round"/>
<path opacity="0.15" d="M21.0788 31.0856L36.2184 27.029" stroke="#0964AF" stroke-width="3.1215" stroke-miterlimit="10" stroke-linecap="round" stroke-linejoin="round"/>
<path opacity="0.15" d="M27.8005 22.8744L44.6001 18.373" stroke="#0964AF" stroke-width="3.1215" stroke-miterlimit="10" stroke-linecap="round" stroke-linejoin="round"/>
</g>
<g opacity="0.15">
<path opacity="0.15" d="M23.3116 39.4186L29.5737 37.7407" stroke="#0964AF" stroke-width="3.1215" stroke-miterlimit="10" stroke-linecap="round" stroke-linejoin="round"/>
<path opacity="0.15" d="M44.1935 35.9689L48.9718 34.6886" stroke="#0964AF" stroke-width="3.1215" stroke-miterlimit="10" stroke-linecap="round" stroke-linejoin="round"/>
<path opacity="0.15" d="M23.848 41.4205L42.1313 36.5215" stroke="#0964AF" stroke-width="3.1215" stroke-miterlimit="10" stroke-linecap="round" stroke-linejoin="round"/>
<path opacity="0.15" d="M24.3777 43.3973L49.5015 36.6654" stroke="#0964AF" stroke-width="3.1215" stroke-miterlimit="10" stroke-linecap="round" stroke-linejoin="round"/>
<path opacity="0.15" d="M42.0405 40.8102L50.0379 38.6674" stroke="#0964AF" stroke-width="3.1215" stroke-miterlimit="10" stroke-linecap="round" stroke-linejoin="round"/>
<path opacity="0.15" d="M24.9141 45.3993L40.0538 41.3426" stroke="#0964AF" stroke-width="3.1215" stroke-miterlimit="10" stroke-linecap="round" stroke-linejoin="round"/>
<path opacity="0.15" d="M31.6359 37.1881L48.4354 32.6867" stroke="#0964AF" stroke-width="3.1215" stroke-miterlimit="10" stroke-linecap="round" stroke-linejoin="round"/>
</g>
<g opacity="0.15">
<path opacity="0.15" d="M27.0128 53.2318L33.2749 51.5539" stroke="#0964AF" stroke-width="3.1215" stroke-miterlimit="10" stroke-linecap="round" stroke-linejoin="round"/>
<path opacity="0.15" d="M47.888 49.7572L52.6663 48.4769" stroke="#0964AF" stroke-width="3.1215" stroke-miterlimit="10" stroke-linecap="round" stroke-linejoin="round"/>
<path opacity="0.15" d="M27.5425 55.2087L45.8258 50.3097" stroke="#0964AF" stroke-width="3.1215" stroke-miterlimit="10" stroke-linecap="round" stroke-linejoin="round"/>
<path opacity="0.15" d="M28.0789 57.2106L53.2028 50.4787" stroke="#0964AF" stroke-width="3.1215" stroke-miterlimit="10" stroke-linecap="round" stroke-linejoin="round"/>
<path opacity="0.15" d="M45.7351 54.5985L53.7325 52.4556" stroke="#0964AF" stroke-width="3.1215" stroke-miterlimit="10" stroke-linecap="round" stroke-linejoin="round"/>
<path opacity="0.15" d="M28.6086 59.1875L43.7483 55.1308" stroke="#0964AF" stroke-width="3.1215" stroke-miterlimit="10" stroke-linecap="round" stroke-linejoin="round"/>
<path opacity="0.15" d="M35.3371 51.0013L52.1366 46.4999" stroke="#0964AF" stroke-width="3.1215" stroke-miterlimit="10" stroke-linecap="round" stroke-linejoin="round"/>
</g>
<g opacity="0.15">
<path opacity="0.15" d="M30.7811 67.2954L37.0432 65.6175" stroke="#0964AF" stroke-width="3.1215" stroke-miterlimit="10" stroke-linecap="round" stroke-linejoin="round"/>
<path opacity="0.15" d="M51.6563 63.8207L56.4346 62.5403" stroke="#0964AF" stroke-width="3.1215" stroke-miterlimit="10" stroke-linecap="round" stroke-linejoin="round"/>
<path opacity="0.15" d="M31.3108 69.2723L49.5941 64.3733" stroke="#0964AF" stroke-width="3.1215" stroke-miterlimit="10" stroke-linecap="round" stroke-linejoin="round"/>
<path opacity="0.15" d="M31.8473 71.2742L56.9711 64.5423" stroke="#0964AF" stroke-width="3.1215" stroke-miterlimit="10" stroke-linecap="round" stroke-linejoin="round"/>
<path opacity="0.15" d="M49.5034 68.6621L57.5008 66.5192" stroke="#0964AF" stroke-width="3.1215" stroke-miterlimit="10" stroke-linecap="round" stroke-linejoin="round"/>
<path opacity="0.15" d="M32.377 73.2511L47.5166 69.1944" stroke="#0964AF" stroke-width="3.1215" stroke-miterlimit="10" stroke-linecap="round" stroke-linejoin="round"/>
<path opacity="0.15" d="M39.1054 65.0649L55.905 60.5635" stroke="#0964AF" stroke-width="3.1215" stroke-miterlimit="10" stroke-linecap="round" stroke-linejoin="round"/>
</g>
<path d="M18.2101 30.9423L13.5073 32.2024C13.2055 32.2833 12.9188 32.1187 12.8383 31.8185L11.5912 27.164C11.5107 26.8637 11.6767 26.5778 11.9785 26.497L16.6814 25.2369C16.9832 25.156 17.2698 25.3206 17.3503 25.6208L18.6042 30.3003C18.6779 30.5756 18.4868 30.8682 18.2101 30.9423Z" stroke="#2396B5" stroke-width="1.1566" stroke-miterlimit="10"/>
<path d="M22.0321 45.2061L17.3292 46.4662C17.0275 46.5471 16.7408 46.3825 16.6603 46.0822L15.4064 41.4027C15.326 41.1024 15.492 40.8165 15.7938 40.7357L20.4966 39.4756C20.7984 39.3947 21.0851 39.5593 21.1655 39.8596L22.4194 44.539C22.4999 44.8393 22.3087 45.1319 22.0321 45.2061Z" stroke="#2396B5" stroke-width="1.1566" stroke-miterlimit="10"/>
<path d="M25.854 59.4696L21.1512 60.7297C20.8494 60.8106 20.5627 60.646 20.4822 60.3457L19.2284 55.6663C19.1479 55.366 19.3139 55.0801 19.6157 54.9992L24.3185 53.7391C24.6203 53.6582 24.907 53.8228 24.9875 54.1231L26.2413 58.8026C26.3151 59.0778 26.1307 59.3955 25.854 59.4696Z" stroke="#2396B5" stroke-width="1.1566" stroke-miterlimit="10"/>
<path d="M29.676 73.7334L24.9731 74.9935C24.6713 75.0744 24.3846 74.9098 24.3042 74.6095L23.0503 69.93C22.9699 69.6298 23.1359 69.3439 23.4376 69.263L28.1405 68.0029C28.4423 67.922 28.729 68.0866 28.8094 68.3869L30.0633 73.0664C30.1371 73.3416 29.9526 73.6593 29.676 73.7334Z" stroke="#2396B5" stroke-width="1.1566" stroke-miterlimit="10"/>
<path d="M12.6507 28.3016L15.5109 30.3246L17.9288 22.6497" stroke="#FFA829" stroke-width="3.4699" stroke-miterlimit="10" stroke-linecap="round" stroke-linejoin="round"/>
<path d="M16.4391 42.4402L19.2993 44.4631L21.7173 36.7883" stroke="#FFA829" stroke-width="3.4699" stroke-miterlimit="10" stroke-linecap="round" stroke-linejoin="round"/>
</svg>
