<svg width="99" height="93" viewBox="0 0 99 93" fill="none" xmlns="http://www.w3.org/2000/svg">
<path d="M45.3316 47.0602C44.1158 47.2703 42.3442 48.3558 39.7737 50.0365C38.3842 50.9119 36.3 52.2775 35.8832 52.3825C34.5979 52.0674 24.3853 49.3712 24.3853 49.3712C24.0726 49.2662 23.76 49.3362 23.4821 49.5113C23.2042 49.6864 23.0305 49.9665 22.9958 50.2816L20.2516 68.0343C20.1821 68.5945 20.5295 69.1547 21.0853 69.2948L30.0821 71.7459C29.3874 72.7613 29.2832 74.1619 29.9084 75.3524C30.7074 76.8931 32.4095 78.0135 34.1463 78.1536C34.2505 78.3287 34.3547 78.5388 34.4937 78.7139C35.5011 80.0794 37.2032 80.9548 38.9053 80.9898C39.0442 81.2349 39.2179 81.5151 39.4263 81.7602C40.4337 82.9857 41.9969 83.756 43.5253 83.8611C43.6642 84.1762 43.8726 84.4563 44.0811 84.7364C45.019 85.8919 46.4779 86.5922 47.9368 86.5922C49.2221 86.5922 50.3337 86.032 51.0284 85.0166C51.4105 84.4563 53.3558 81.0248 53.3558 81.0248C54.0158 81.305 54.3979 81.48 54.4326 81.48C56.2737 82.2154 58.1842 81.2349 58.9484 79.2391C59.0874 78.8889 59.1568 78.5388 59.2263 78.1886C61.1716 78.9239 63.4295 77.8735 64.1937 75.9477C64.4368 75.3174 64.5063 74.6521 64.4368 74.0218C64.7842 73.9518 77.9147 70.2402 77.9147 70.2402C78.4705 70.1002 78.8179 69.5399 78.7137 68.9797L75.5179 48.846C75.4832 48.5309 75.2747 48.2508 75.0316 48.0757C74.7884 47.9006 74.4411 47.8306 74.1284 47.9356L62.9779 50.8069C62.4568 50.6668 60.9632 49.9315 56.9684 47.5154C53.599 45.4846 52.6611 44.9593 51.6884 44.9593C50.5074 44.9593 48.0411 46.2549 46.339 47.2703C46.0611 47.0953 45.7137 47.0252 45.3316 47.0602ZM72.6695 51.7172L75.2053 67.6141L70.3768 68.9797C70.8632 68.4544 71.2453 67.8592 71.5232 67.1589C72.1832 65.2681 71.6274 63.3422 70.099 62.1167C70.0642 62.0817 61.5884 57.2846 54.9537 53.1529C54.78 53.0478 54.5716 52.9778 54.3632 52.9778L52.3137 53.0478C52.1747 53.0478 52.0011 53.0828 51.8621 53.1529C49.5 54.2733 49.2569 55.1837 49.1874 55.4989C48.979 56.3042 47.9716 60.0158 47.4505 61.9416C46.2695 62.1517 43.9421 61.0663 43.56 60.2609C43.699 59.6306 43.8726 58.7553 44.0463 57.8099C44.4284 55.779 44.9495 53.2229 45.1579 52.3825C45.6442 51.4371 50.6811 48.4258 51.5842 48.2858C52.0358 48.3908 53.8421 49.4763 55.3011 50.3517C59.0874 52.6276 61.6926 54.1333 63.2905 54.1333C63.9505 54.0983 70.2379 52.3125 72.6695 51.7172ZM47.9716 83.3008C47.52 83.3008 46.9642 83.0207 46.6516 82.6355C46.4084 82.3204 46.339 81.9703 46.4084 81.5851C46.5126 81.1649 46.339 80.7097 45.9916 80.4296C45.7832 80.2895 45.54 80.2195 45.3316 80.2195C45.1579 80.2195 44.9495 80.2545 44.7758 80.3596C43.9421 80.8148 42.6221 80.3946 41.9274 79.5892C41.719 79.3441 41.5105 78.994 41.58 78.5738C41.6495 78.1186 41.4758 77.6634 41.059 77.4183C40.6769 77.1732 40.1558 77.2082 39.8084 77.4883C39.5653 77.6634 39.2526 77.6984 39.0442 77.6984C38.3495 77.6984 37.5158 77.3133 37.1337 76.753C36.8211 76.2978 36.9253 75.9827 36.9253 75.8776C37.0642 75.4224 36.8905 74.8972 36.5084 74.6171C36.0916 74.337 35.5705 74.337 35.1884 74.6521C34.5632 75.1073 33.66 74.8272 33.0695 74.1969C32.7916 73.9168 32.7569 73.7067 32.7569 73.6717L34.6326 70.8705C34.9105 70.4153 35.6747 70.8355 36.1263 71.3957C36.3695 71.6758 36.439 71.8859 36.4042 71.991C36.3347 72.5162 36.6474 73.0414 37.1684 73.2165C37.6547 73.3916 38.2453 73.1815 38.4884 72.7263C39.2179 71.5008 39.8432 70.8355 40.26 70.7304C40.9895 70.6254 41.6147 70.8705 42.1011 71.3957C42.4484 71.7809 42.5874 72.166 42.5874 72.3761C42.5526 72.9014 42.9 73.3565 43.3863 73.4966C43.8726 73.6367 44.3937 73.4266 44.6716 73.0064C45.5747 71.5008 47.4158 72.2711 48.0758 73.2515C48.2495 73.5316 48.3537 73.8117 48.2842 73.9868C48.0758 74.477 48.2495 75.0373 48.6663 75.3524C49.1179 75.6675 49.6737 75.6325 50.0905 75.2474C50.5421 74.8622 51.619 75.2474 52.0011 75.9127C52.2095 76.2978 52.1747 76.683 51.9316 77.1382C51.5495 77.7334 48.8053 82.6355 48.3537 83.2658C48.2842 83.3008 48.0758 83.3008 47.9716 83.3008Z" fill="#AAD4C8"/>
<path d="M50.959 16.8773C50.1253 16.1419 48.8747 16.1419 48.0063 16.8773L14.1032 46.3599C13.6169 46.7801 13.339 47.4104 13.339 48.0757V90.724C13.339 91.9846 14.3463 93 15.5969 93H83.4032C84.6537 93 85.6611 91.9846 85.6611 90.724V48.0757C85.6611 47.4104 85.3832 46.7801 84.8969 46.3599L50.959 16.8773ZM81.1453 88.4481H17.8547V49.1261L49.5 21.6043L81.1453 49.1261V88.4481Z" fill="#AAD4C8"/>
<path d="M97.437 40.0919L52.418 1.08509C50.7159 -0.385541 48.2496 -0.385541 46.5475 1.08509L1.56325 40.0919C-0.312535 41.7376 -0.520957 44.6088 1.07694 46.4996C2.70957 48.3904 5.55799 48.6005 7.43378 46.9898L49.5001 10.5041L91.5664 46.9548C92.4001 47.6901 93.4422 48.0403 94.4843 48.0403C95.7348 48.0403 97.0201 47.5151 97.8885 46.4646C99.5212 44.6088 99.3127 41.7376 97.437 40.0919Z" fill="#AAD4C8"/>
</svg>
