<svg width="135" height="399" viewBox="0 0 135 399" fill="none" xmlns="http://www.w3.org/2000/svg">
<path d="M67.6243 30.8455C67.6243 30.8455 68.6188 38.0593 69.3646 38.5568C69.3646 38.5568 68.6188 39.8006 66.6298 39.8006" fill="#FFB392"/>
<path opacity="0.4" d="M120.829 393.528C120.829 396.513 94.2265 398.751 61.4088 398.751C28.5912 398.751 1.98895 396.264 1.98895 393.528C1.98895 390.543 28.5912 388.304 61.4088 388.304C94.2265 388.304 120.829 390.543 120.829 393.528Z" fill="#A1D7E5"/>
<path d="M88.7569 63.9296L75.5801 121.64C75.3315 123.133 76.326 124.874 77.8177 124.874L118.591 130.844C120.083 131.093 121.326 130.098 121.575 128.605L134.751 70.8947C135 69.4021 134.006 67.6609 132.514 67.6609L91.7404 61.6908C90.2486 61.6908 89.0055 62.6858 88.7569 63.9296Z" fill="#57C6F2"/>
<path d="M91.2431 65.9196L78.5636 121.143L119.088 126.864L131.768 71.6409L91.2431 65.9196Z" fill="#E5F8FF"/>
<path d="M127.541 75.8696L92.9835 70.8945" stroke="#A1D2F0" stroke-width="0.5742" stroke-miterlimit="10" stroke-linecap="round" stroke-linejoin="round"/>
<path d="M126.298 81.0933L91.989 76.1183" stroke="#A1D2F0" stroke-width="0.5742" stroke-miterlimit="10" stroke-linecap="round" stroke-linejoin="round"/>
<path d="M111.878 85.3222L90.4973 82.0884" stroke="#A1D2F0" stroke-width="0.5742" stroke-miterlimit="10" stroke-linecap="round" stroke-linejoin="round"/>
<path d="M110.387 89.7998L89.0056 86.566" stroke="#A1D2F0" stroke-width="0.5742" stroke-miterlimit="10" stroke-linecap="round" stroke-linejoin="round"/>
<path d="M108.895 94.2774L87.2652 91.0436" stroke="#A1D2F0" stroke-width="0.5742" stroke-miterlimit="10" stroke-linecap="round" stroke-linejoin="round"/>
<path d="M116.851 118.904L95.2211 115.919" stroke="#A1D2F0" stroke-width="0.5742" stroke-miterlimit="10" stroke-linecap="round" stroke-linejoin="round"/>
<path d="M73.0939 122.387C75.3315 121.392 77.0718 119.402 78.8122 117.411C80.5525 115.421 82.0442 113.431 83.7845 111.69C84.5304 110.944 85.0276 110.198 85.2763 109.203C82.5414 108.954 80.8011 112.436 78.0663 112.685C79.3094 108.208 81.0497 103.979 83.5359 99.75C84.0332 98.755 84.779 97.5112 84.2818 96.5162C81.2984 97.76 78.8122 99.75 76.8232 101.989C75.3315 103.73 73.8398 105.471 72.8453 107.213C69.3647 112.685 67.1271 118.904 65.6354 125.123" fill="#F2A181"/>
<path d="M61.4089 168.655L32.3205 144.028C32.3205 144.028 18.6465 162.436 23.8675 180.097C26.3536 188.804 29.5857 193.032 30.8288 197.261C32.0719 201.241 40.7735 255.967 40.2763 259.947C39.5304 263.927 34.8067 275.121 33.0663 286.812C30.8288 300.991 31.326 347.259 29.5857 359.448C27.8454 371.637 39.2818 373.876 39.7791 369.647C45 334.324 59.1713 279.101 61.1603 261.44C62.9006 243.778 62.1547 211.44 61.4089 168.655Z" fill="#FFBE9D"/>
<path d="M61.4089 203.48L48.7293 232.584C53.9503 241.539 57.1823 252.236 57.6796 263.181C57.9282 268.902 57.431 274.375 57.431 280.096C57.431 280.594 57.431 280.842 57.6796 281.34C59.4199 273.131 60.663 266.166 61.1602 261.688C62.652 249.251 62.652 229.35 62.1547 203.729C61.9061 203.48 61.6575 203.48 61.4089 203.48Z" fill="#F2A181"/>
<path d="M41.768 358.453C41.768 358.453 39.0331 371.388 39.779 372.881C40.5249 374.622 43.011 379.349 45.7459 381.09C48.4807 382.831 54.6961 385.07 55.1934 385.816C55.6906 386.562 55.6906 387.806 54.9448 388.552C52.7072 390.294 48.7293 391.289 45.9945 390.791C37.5414 389.299 36.547 385.567 31.8232 385.07C31.0773 385.07 29.337 386.314 27.0994 385.07C24.8619 383.826 23.6188 381.587 23.8674 379.597C24.116 376.115 26.105 373.13 27.5967 370.642C29.0884 367.906 30.0829 355.966 30.0829 355.966" fill="#FFBE9D"/>
<path d="M55.6906 389.05C56.1879 388.055 56.4365 386.314 55.9392 386.065C55.1934 385.567 52.21 383.577 50.7182 382.831C48.9779 382.085 46.4917 381.339 47.4862 381.836C48.4807 382.334 46.7403 384.075 45.2486 384.075C40.0276 383.826 36.0497 380.344 33.0663 379.349C28.5912 378.354 26.8508 373.13 26.6022 372.383C25.8564 372.881 23.8674 377.11 23.3702 378.354C23.1216 379.597 22.3757 381.587 22.6243 382.831C22.8729 383.577 23.3702 385.319 23.1216 387.06C23.1216 387.06 23.8674 387.806 26.3536 388.304C27.8453 388.552 29.8343 388.304 29.8343 388.304L30.3315 385.567C30.3315 385.567 31.5746 385.567 33.0663 385.816C34.558 386.065 37.0442 387.557 37.2928 387.806C37.7901 388.552 38.2873 389.796 39.2818 390.294C41.5193 391.289 43.5083 391.786 46.2431 392.035C51.2155 392.532 54.6961 390.791 55.6906 389.05Z" fill="#1B227A"/>
<path d="M100.939 388.552C100.193 387.806 93.4807 386.811 90.4973 385.319C87.5138 384.075 83.7846 380.095 83.0387 378.354C82.2928 376.612 82.5415 367.906 82.5415 364.175C83.2873 339.051 87.7625 277.36 88.5083 262.683C89.7514 237.062 86.2707 210.694 76.5746 169.401L40.0277 141.292C40.0277 141.292 29.8343 160.446 33.0663 178.605C35.0553 189.301 43.7569 190.794 45.2486 195.023C46.7404 199.251 68.8674 265.668 68.8674 265.668C68.8674 265.668 64.6409 280.096 64.3923 295.768C64.1437 309.2 70.3591 349.747 71.3536 365.17C71.6022 368.155 72.0995 375.369 71.105 377.607C70.1105 380.344 67.1271 383.826 67.3757 387.309C67.3757 389.299 68.8674 391.289 71.6022 392.035C74.0884 392.781 75.5801 391.289 76.5746 391.289C81.7956 391.04 83.2873 394.523 92.2376 394.523C94.9724 394.523 98.9503 393.03 101.188 390.791C101.934 390.294 101.685 389.05 100.939 388.552Z" fill="#FFBE9D"/>
<path d="M101.934 391.538C102.431 390.294 102.431 388.801 101.685 388.552C100.691 388.055 97.7072 386.811 95.7182 386.314C93.9779 385.816 91.2431 385.567 92.2376 386.065C93.232 386.314 91.7403 388.552 90.2486 388.552C84.779 389.05 80.3039 386.314 77.0718 386.065C72.3481 385.816 70.6077 380.841 70.3591 380.095C69.6133 380.841 67.3757 385.07 67.1271 386.562C66.8785 387.806 66.6298 390.045 67.1271 391.289C67.3757 392.035 68.3702 393.776 68.1216 395.518C68.1216 395.518 69.116 396.015 71.6022 396.015C73.0939 396.015 75.0829 395.518 75.0829 395.518V392.781C75.0829 392.781 76.326 392.533 77.8177 392.533C79.3094 392.533 81.2983 393.528 82.2928 394.025C83.0387 394.523 83.7845 395.518 84.779 395.766C87.2652 396.513 89.2541 396.513 91.989 396.264C97.7072 395.766 100.939 393.528 101.934 391.538Z" fill="#1B227A"/>
<path d="M32.8177 141.043C30.3315 143.779 21.3812 158.705 21.3812 170.645C21.3812 182.585 25.1105 190.545 25.8563 193.033C28.0939 199.5 32.3204 205.47 32.3204 206.714C32.3204 207.958 39.0331 208.704 52.9558 207.958C78.8121 206.216 88.5083 201.49 88.5083 201.49C88.5083 201.49 89.2541 190.794 86.7679 167.162C85.5248 155.968 76.0773 138.307 76.0773 138.307" fill="#1B227A"/>
<path d="M9.19891 92.7849C9.19891 92.7849 13.4254 113.68 14.4199 117.163C15.4144 120.894 20.884 144.277 26.105 144.028C31.326 143.531 59.4199 120.148 59.4199 120.148L55.442 112.188L30.5801 123.879C30.5801 123.879 28.3426 97.0137 26.3536 90.5461" fill="#FFBE9D"/>
<path d="M18.895 105.72C21.6298 114.924 26.8508 124.874 28.5911 131.839C28.8397 133.332 45.9944 127.113 45.9944 120.645" fill="#F2A181"/>
<path d="M26.105 64.1783C26.105 64.1783 17.9006 65.1734 13.674 68.1584C2.98342 76.3672 11.1878 105.72 11.1878 105.72C11.1878 105.72 10.6906 107.461 17.9006 106.964C25.1105 106.466 30.8287 104.476 30.8287 104.476L28.8398 80.3473" fill="#E8505B"/>
<path d="M16.6575 80.8447C16.6575 80.8447 15.663 98.2574 18.895 106.964C21.8785 106.964 24.6133 106.218 24.6133 106.218L16.6575 80.8447Z" fill="#B03D44"/>
<path d="M65.3867 9.70135C70.3591 16.1689 69.3646 25.124 68.1215 33.0841C67.6243 37.0642 66.8785 41.293 66.3812 45.273C66.1326 47.2631 65.6354 49.2531 64.1436 50.4969C62.6519 51.7406 60.4144 51.7406 58.4254 51.7406C58.4254 54.9744 58.4254 58.457 58.4254 61.6908C52.7072 61.9395 46.9889 61.9395 41.2707 61.6908C41.2707 59.452 40.7735 56.9644 39.779 54.9744C37.0442 54.9744 35.0552 51.9894 34.0608 49.5019C32.8177 46.5168 31.8232 43.5318 31.0773 40.298C29.8342 36.0692 28.8398 32.0891 28.5912 27.6116C28.5912 23.3828 29.5856 18.9052 32.3204 15.4227C34.0608 13.1839 36.7956 11.4426 39.2818 10.1989C42.7624 8.45759 46.9889 6.96507 50.7182 8.45759" fill="#FFBE9D"/>
<path d="M59.4199 40.2981C58.6741 36.8155 58.6741 35.0742 59.9171 32.8355C60.1658 32.0892 60.663 31.343 61.4089 30.8454C62.4033 30.0992 63.3978 30.0992 64.3923 30.5967C65.1381 30.8454 65.6354 31.343 65.884 32.0892C67.1271 27.3629 67.3757 22.6366 67.1271 17.9103C66.6299 10.4477 62.1547 4.72637 55.442 1.99008C43.2597 -2.98498 25.8564 1.99008 20.884 13.9302C17.1547 22.8853 19.1437 36.0693 26.105 43.5319C32.3205 50.2482 41.5194 51.2432 49.9724 49.7507C54.1989 49.0044 60.9116 49.5019 63.1492 43.5319C63.3978 43.0343 62.9006 42.5368 62.4033 42.7856C60.663 42.7856 59.4199 40.7956 59.4199 40.2981Z" fill="#1B227A"/>
<path d="M60.4143 24.3779C60.9116 25.1242 60.663 26.1192 61.1602 26.8655C61.906 28.1092 62.9005 28.6067 64.1436 29.1042C66.1326 30.0993 65.6353 33.0843 65.6353 34.3281C67.127 33.333 67.3757 30.5968 67.8729 29.1042C68.3701 27.6117 68.6188 25.8705 69.116 24.3779C69.6132 22.8854 70.3591 21.3929 70.6077 19.6516C71.1049 13.9303 67.6243 7.46272 63.3978 4.22893C60.1657 1.99015 55.442 1.99015 51.9613 4.47768C50.4696 5.47269 49.4751 6.96521 48.7293 8.70649C48.4806 9.45275 48.232 10.199 48.4806 10.9453" fill="#1B227A"/>
<path d="M32.569 64.1783C32.8176 62.1883 33.3149 59.9495 35.3038 59.2033C35.8011 58.9545 36.2983 58.9545 36.7956 58.9545C42.5138 58.457 47.9834 57.9595 53.7016 58.2083C55.9392 58.2083 58.4254 58.457 60.4143 59.452C63.6464 61.1933 65.3867 64.6758 67.127 67.9096" fill="#B03D44"/>
<path d="M80.0552 136.317C79.3094 135.073 77.569 133.829 76.8232 132.585C75.3315 129.6 73.8398 116.665 74.337 113.431C74.8342 109.949 78.0663 107.959 79.558 100.247C81.2983 90.0486 77.3204 82.3373 74.8342 78.8547C71.6022 74.1284 73.5911 74.1284 72.348 68.4071C72.0994 67.4121 71.8508 66.1683 71.1049 65.422C70.3591 64.6758 65.6353 62.437 64.6409 62.437C55.442 60.9445 50.221 62.1883 41.0221 62.437C36.5469 62.6858 31.8232 63.1833 27.348 64.1783C22.3757 65.1733 18.1491 66.6658 17.1547 73.3821C15.663 83.8298 16.9061 94.2774 20.1381 104.228C22.3757 110.198 34.8066 132.834 31.5746 137.063C30.8287 138.058 29.0884 140.048 28.8398 141.292C28.0939 145.769 38.2873 147.511 42.7624 147.759C49.4751 148.257 57.1823 148.008 63.895 147.511C69.116 147.262 80.0552 145.521 81.0497 139.302C81.2983 138.058 80.8011 137.063 80.0552 136.317Z" fill="#E8505B"/>
<path d="M78.0663 101.74C78.0663 103.481 77.0718 105.969 76.8232 106.964C75.5801 107.71 70.3591 108.705 67.6243 107.462C66.8785 101.491 63.3978 89.8 63.3978 89.8C63.3978 89.8 78.0663 100.248 78.0663 101.74Z" fill="#B03D44"/>
<path d="M71.6022 97.5112C71.6022 97.5112 88.5083 138.058 95.7182 138.058C100.939 138.058 114.116 100.496 114.116 100.496L105.912 96.5161L96.7127 112.188L87.5138 82.8347" fill="#FFBE9D"/>
<path d="M104.171 99.75C104.171 99.75 106.906 95.5212 106.657 92.5362C106.657 91.2924 105.912 85.8198 106.409 84.8248C106.906 83.8298 108.398 80.0985 109.144 79.601C109.889 78.8547 112.873 77.8597 113.619 78.3572C114.365 78.8547 115.11 76.616 116.354 76.8647C117.597 77.1135 118.591 78.1085 118.591 79.1035C118.591 80.0985 120.083 80.3472 120.331 81.0935C120.58 81.8398 120.331 82.586 120.829 83.0835C121.077 83.581 122.072 83.3323 122.32 84.8248C122.569 86.0686 122.32 86.3173 122.32 87.0636C122.32 87.8098 123.066 87.8098 122.818 89.0536C122.569 90.2974 121.823 92.0386 120.829 93.5312C120.083 95.0237 118.342 96.765 116.354 98.2575C115.359 99.0037 114.613 99.9987 113.619 101.989" fill="#FFBE9D"/>
<path d="M108.646 68.1583C108.398 67.9096 107.901 67.4121 107.155 67.6608C106.409 68.1583 106.657 68.9046 106.906 69.1533C107.155 69.4021 111.878 80.3472 111.878 80.3472C111.878 80.3472 112.376 80.8447 113.121 80.0985C113.867 79.3522 113.619 79.1035 113.619 79.1035C113.619 79.1035 108.895 68.6558 108.646 68.1583Z" fill="#1B227A"/>
<path d="M113.867 78.606C112.873 80.3472 111.878 80.8447 110.884 81.8398C110.138 82.586 110.138 83.0835 109.392 83.8298C110.884 83.8298 110.635 82.8348 112.624 81.3423C113.619 80.596 114.365 80.0985 114.613 78.8547C114.613 78.606 114.116 78.3572 113.867 78.606Z" fill="#F2A181"/>
<path d="M56.1878 61.442C60.663 61.6908 73.3425 59.452 80.3039 66.9146C86.2707 73.1334 89.7514 89.3024 91.9889 96.0187C86.0221 101.989 80.3039 106.964 71.3536 104.974C71.105 104.725 66.6298 90.5461 63.3978 89.3024" fill="#E8505B"/>
<path d="M88.7569 190.545C88.7569 190.545 91.7403 260.196 91.2431 265.171C90.7459 270.146 85.0276 366.165 85.0276 366.165C85.0276 366.165 73.3426 368.155 66.6299 366.165C66.6299 366.165 57.6796 291.29 66.6299 268.156L62.652 245.768C62.652 245.768 63.1492 262.435 62.652 265.669C62.1547 269.151 44.2542 363.677 44.2542 363.677C44.2542 363.677 32.3205 363.428 27.0995 358.702C27.0995 358.702 25.3591 293.031 37.7901 265.171L26.6022 192.784L33.0663 174.376L88.7569 190.545Z" fill="#1B227A"/>
<path d="M62.4033 245.768C60.663 235.072 50.4696 197.261 50.221 196.266C44.7514 192.038 39.5304 188.057 37.7901 184.575C40.7735 193.779 46.7403 194.276 48.9779 199.003C54.4475 210.694 50.221 208.207 62.9006 247.261" fill="#170D54"/>
<path d="M12.6796 60.9445C12.4309 64.6758 13.1768 68.4071 13.1768 72.1384C13.1768 75.8697 12.4309 79.8497 9.69613 82.3372C6.96133 84.8248 1.98895 85.0735 0 81.8397C1.98895 85.8198 6.21547 88.8048 10.6906 89.5511C15.1657 90.2973 19.8895 89.3023 23.8674 87.5611C34.8066 82.586 42.0166 71.1434 41.768 58.9545C41.5193 49.0043 34.0608 39.5517 23.3702 44.5268C17.1547 47.5118 13.1768 53.9794 12.6796 60.9445Z" fill="#1B227A"/>
</svg>
