<svg width="512" height="395" viewBox="0 0 512 395" fill="none" xmlns="http://www.w3.org/2000/svg">
<path d="M476.158 208.363L462.899 155.328C466.524 154.558 469.244 151.342 469.244 147.489V138.938C469.244 120.372 454.139 105.268 435.574 105.268H375.182V87.63C375.182 78.494 367.75 71.062 358.614 71.062H50.772C41.636 71.062 34.204 78.494 34.204 87.63V233C34.204 237.427 37.793 241.017 42.221 241.017C46.648 241.017 50.238 237.428 50.238 233V87.63C50.238 87.335 50.477 87.096 50.772 87.096H358.613C358.908 87.096 359.147 87.335 359.147 87.63V233.002C359.147 237.429 362.736 241.019 367.164 241.019C371.591 241.019 375.181 237.43 375.181 233.002V223.914H469.75C469.758 223.914 469.764 223.916 469.771 223.916C469.779 223.916 469.786 223.915 469.793 223.915C481.43 223.923 491.311 231.561 494.705 242.086H469.777C465.35 242.086 461.76 245.675 461.76 250.103V267.205C461.76 281.056 473.028 292.324 486.879 292.324H495.965V327.597H475.003C468.117 307.714 449.216 293.392 427.021 293.392C404.826 293.392 385.924 307.714 379.039 327.597H375.179V267.204C375.179 262.777 371.59 259.187 367.162 259.187C362.735 259.187 359.145 262.776 359.145 267.204V327.595H192.817C185.931 307.712 167.03 293.39 144.835 293.39C122.64 293.39 103.738 307.712 96.853 327.595H50.772C50.477 327.595 50.238 327.356 50.238 327.061V309.424H84.977C89.404 309.424 92.994 305.835 92.994 301.407C92.994 296.979 89.405 293.39 84.977 293.39H8.017C3.59 293.39 0 296.979 0 301.407C0 305.835 3.589 309.424 8.017 309.424H34.205V327.061C34.205 336.197 41.637 343.629 50.773 343.629H94.077C94.075 343.807 94.063 343.984 94.063 344.163C94.063 372.159 116.84 394.935 144.835 394.935C172.83 394.935 195.607 372.159 195.607 344.163C195.607 343.983 195.595 343.807 195.593 343.629H376.263C376.261 343.807 376.249 343.984 376.249 344.163C376.249 372.159 399.026 394.935 427.021 394.935C455.016 394.935 477.793 372.159 477.793 344.163C477.793 343.983 477.781 343.807 477.779 343.629H503.982C508.409 343.629 511.999 340.04 511.999 335.612V250.101C512 228.989 496.423 211.448 476.158 208.363ZM375.182 121.301H435.574C445.299 121.301 453.211 129.213 453.211 138.938V139.472H375.182V121.301ZM375.182 207.881V155.505H446.417L459.511 207.881H375.182ZM144.835 378.904C125.68 378.904 110.096 363.321 110.096 344.165C110.096 325.009 125.68 309.426 144.835 309.426C163.99 309.426 179.574 325.009 179.574 344.165C179.574 363.321 163.99 378.904 144.835 378.904ZM427.023 378.904C407.868 378.904 392.284 363.321 392.284 344.165C392.284 325.009 407.868 309.426 427.023 309.426C446.178 309.426 461.762 325.009 461.762 344.165C461.762 363.321 446.178 378.904 427.023 378.904ZM495.967 276.29H486.881C481.871 276.29 477.795 272.214 477.795 267.204V258.118H495.966V276.29H495.967Z" fill="#EDC988"/>
<path d="M144.835 327.597C135.699 327.597 128.267 335.029 128.267 344.165C128.267 353.301 135.699 360.733 144.835 360.733C153.971 360.733 161.403 353.301 161.403 344.165C161.403 335.029 153.971 327.597 144.835 327.597Z" fill="#EDC988"/>
<path d="M427.023 327.597C417.887 327.597 410.455 335.029 410.455 344.165C410.455 353.301 417.887 360.733 427.023 360.733C436.159 360.733 443.591 353.301 443.591 344.165C443.591 335.029 436.159 327.597 427.023 327.597Z" fill="#EDC988"/>
<path d="M332.96 293.393H213.244C208.817 293.393 205.227 296.982 205.227 301.41C205.227 305.838 208.816 309.427 213.244 309.427H332.96C337.387 309.427 340.977 305.838 340.977 301.41C340.977 296.982 337.388 293.393 332.96 293.393Z" fill="#EDC988"/>
<path d="M127.733 259.188H25.1191C20.6921 259.188 17.1021 262.777 17.1021 267.205C17.1021 271.633 20.6911 275.222 25.1191 275.222H127.733C132.16 275.222 135.75 271.633 135.75 267.205C135.75 262.777 132.16 259.188 127.733 259.188Z" fill="#EDC988"/>
<path d="M278.771 150.37C275.641 147.24 270.564 147.24 267.434 150.371L196.142 221.662L159.055 184.575C155.924 181.444 150.848 181.444 147.718 184.575C144.587 187.706 144.587 192.781 147.718 195.912L190.474 238.668C192.039 240.234 194.091 241.016 196.142 241.016C198.193 241.016 200.246 240.234 201.81 238.668L278.77 161.708C281.901 158.576 281.901 153.501 278.771 150.37Z" fill="#EDC988"/>
</svg>
