<svg width="44" height="14" viewBox="0 0 44 14" fill="none" xmlns="http://www.w3.org/2000/svg">
<path fill-rule="evenodd" clip-rule="evenodd" d="M11.9827 0.345964C12.3992 -0.0963556 13.0953 -0.117331 13.5376 0.299113L19.3794 5.79911C19.6001 6.00698 19.7253 6.29677 19.7253 6.6C19.7253 6.90324 19.6001 7.19303 19.3794 7.40089L13.5376 12.9009C13.0953 13.3173 12.3992 13.2964 11.9827 12.854C11.5663 12.4117 11.5872 11.7156 12.0296 11.2991L17.0206 6.6L12.0296 1.90089C11.5872 1.48445 11.5663 0.788283 11.9827 0.345964Z" fill="#38D3E8" fill-opacity="0.5"/>
<path fill-rule="evenodd" clip-rule="evenodd" d="M0.299113 0.345964C0.715558 -0.0963556 1.41172 -0.117331 1.85404 0.299113L7.69577 5.79911C7.91655 6.00698 8.04173 6.29677 8.04173 6.6C8.04173 6.90324 7.91655 7.19303 7.69577 7.40089L1.85404 12.9009C1.41172 13.3173 0.715558 13.2964 0.299113 12.854C-0.117331 12.4117 -0.0963556 11.7156 0.345964 11.2991L5.33704 6.6L0.345964 1.90089C-0.0963556 1.48445 -0.117331 0.788283 0.299113 0.345964Z" fill="#38D3E8" fill-opacity="0.2"/>
<path fill-rule="evenodd" clip-rule="evenodd" d="M35.3494 0.345964C35.7659 -0.0963556 36.462 -0.117331 36.9043 0.299113L42.7461 5.79911C42.9668 6.00698 43.092 6.29677 43.092 6.6C43.092 6.90324 42.9668 7.19303 42.7461 7.40089L36.9043 12.9009C36.462 13.3173 35.7659 13.2964 35.3494 12.854C34.933 12.4117 34.9539 11.7156 35.3963 11.2991L40.3873 6.6L35.3963 1.90089C34.9539 1.48445 34.933 0.788283 35.3494 0.345964Z" fill="#38D3E8"/>
<path fill-rule="evenodd" clip-rule="evenodd" d="M23.6661 0.345964C24.0825 -0.0963556 24.7787 -0.117331 25.221 0.299113L31.0627 5.79911C31.2835 6.00698 31.4087 6.29677 31.4087 6.6C31.4087 6.90324 31.2835 7.19303 31.0627 7.40089L25.221 12.9009C24.7787 13.3173 24.0825 13.2964 23.6661 12.854C23.2496 12.4117 23.2706 11.7156 23.7129 11.2991L28.704 6.6L23.7129 1.90089C23.2706 1.48445 23.2496 0.788283 23.6661 0.345964Z" fill="#38D3E8" fill-opacity="0.8"/>
</svg>
