<svg width="34" height="23" viewBox="0 0 34 23" fill="none" xmlns="http://www.w3.org/2000/svg">
<path d="M8.59019 17.7131H4.9852C4.41079 17.7131 3.94531 18.1787 3.94531 18.753C3.94531 19.3274 4.41086 19.7929 4.9852 19.7929H8.59026C9.16466 19.7929 9.63014 19.3274 9.63014 18.753C9.63014 18.1786 9.1646 17.7131 8.59019 17.7131Z" fill="#2B2E34" fill-opacity="0.12" stroke="white" stroke-width="0.3"/>
<path d="M25.9233 14.5588C23.6297 14.5588 21.7637 16.4248 21.7637 18.7185C21.7637 21.0122 23.6297 22.8782 25.9233 22.8782C28.2174 22.8782 30.083 21.0122 30.083 18.7185C30.083 16.4248 28.217 14.5588 25.9233 14.5588ZM25.9233 20.7984C24.7763 20.7984 23.8435 19.8655 23.8435 18.7185C23.8435 17.5715 24.7763 16.6387 25.9233 16.6387C27.0704 16.6387 28.0032 17.5715 28.0032 18.7185C28.0032 19.8656 27.0704 20.7984 25.9233 20.7984Z" fill="#2B2E34"/>
<path d="M11.7105 14.5588C9.41676 14.5588 7.55078 16.4248 7.55078 18.7185C7.55078 21.0122 9.41676 22.8782 11.7105 22.8782C14.0041 22.8782 15.8701 21.0122 15.8701 18.7185C15.8701 16.4248 14.0041 14.5588 11.7105 14.5588ZM11.7105 20.7984C10.5634 20.7984 9.63062 19.8655 9.63062 18.7185C9.63062 17.5715 10.5634 16.6387 11.7105 16.6387C12.8571 16.6387 13.7903 17.5715 13.7903 18.7185C13.7903 19.8656 12.8575 20.7984 11.7105 20.7984Z" fill="#2B2E34"/>
<path d="M28.7246 2.6525C28.5478 2.30136 28.1884 2.07983 27.7953 2.07983H22.3184V4.15967H27.154L29.9856 9.79185L31.8443 8.85728L28.7246 2.6525Z" fill="#2B2E34"/>
<path d="M22.8042 17.7131H14.9355V19.793H22.8042V17.7131Z" fill="#2B2E34"/>
<path d="M33.7805 11.3559L31.735 8.72141C31.5385 8.46766 31.2352 8.31928 30.9138 8.31928H23.357V1.03989C23.357 0.46548 22.8915 0 22.3172 0H4.9852C4.41079 0 3.94531 0.465544 3.94531 1.03989C3.94531 1.61423 4.41086 2.07977 4.9852 2.07977H21.2772V9.35917C21.2772 9.93358 21.7428 10.3991 22.3171 10.3991H30.4045L31.919 12.3499V17.7131H29.0419C28.4675 17.7131 28.002 18.1787 28.002 18.753C28.002 19.3274 28.4675 19.7929 29.0419 19.7929H32.9589C33.5333 19.7929 33.9988 19.3274 33.9988 18.753V11.9937C33.9988 11.7628 33.9219 11.5382 33.7805 11.3559Z" fill="#2B2E34"/>
<path d="M8.52275 12.4441H3.73911C3.1647 12.4441 2.69922 12.9096 2.69922 13.484C2.69922 14.0584 3.16476 14.5239 3.73911 14.5239H8.52269C9.09709 14.5239 9.56257 14.0583 9.56257 13.484C9.56264 12.9096 9.09709 12.4441 8.52275 12.4441Z" fill="#2B2E34" fill-opacity="0.3" stroke="white" stroke-width="0.3"/>
<path d="M10.9139 8.354H2.03989C1.46554 8.354 1 8.81955 1 9.39395C1 9.96836 1.46554 10.4338 2.03989 10.4338H10.9139C11.4883 10.4338 11.9537 9.9683 11.9537 9.39395C11.9537 8.81961 11.4883 8.354 10.9139 8.354Z" fill="#2B2E34" fill-opacity="0.6" stroke="white" stroke-width="0.3"/>
<path d="M12.6131 4.26367H3.73911C3.1647 4.26367 2.69922 4.72922 2.69922 5.30356C2.69922 5.87796 3.16476 6.34344 3.73911 6.34344H12.6131C13.1875 6.34344 13.653 5.8779 13.653 5.30356C13.653 4.72922 13.1875 4.26367 12.6131 4.26367Z" fill="#2B2E34" fill-opacity="0.8" stroke="white" stroke-width="0.3"/>
</svg>
