<svg width="31" height="31" viewBox="0 0 31 31" fill="none" xmlns="http://www.w3.org/2000/svg">
<path d="M2.12132 17.6213C0.94975 16.4498 0.949748 14.5503 2.12132 13.3787L13.3787 2.12132C14.5503 0.94975 16.4497 0.949747 17.6213 2.12132L28.8787 13.3787C30.0503 14.5502 30.0503 16.4497 28.8787 17.6213L17.6213 28.8787C16.4498 30.0503 14.5503 30.0503 13.3787 28.8787L2.12132 17.6213Z" fill="#242424"/>
<path d="M24.4116 15.5C24.4116 20.4026 20.4373 24.3769 15.5347 24.3769C10.6321 24.3769 6.65771 20.4026 6.65771 15.5C6.65771 10.5974 10.6321 6.62305 15.5347 6.62305C20.4373 6.62305 24.4116 10.5974 24.4116 15.5Z" fill="#FCFCFC"/>
<path d="M9.98657 12.9522C9.98657 11.2953 11.3297 9.95215 12.9866 9.95215H18.1616C19.8185 9.95215 21.1616 11.2953 21.1616 12.9521V18.1272C21.1616 19.7841 19.8185 21.1272 18.1616 21.1272H12.9866C11.3297 21.1272 9.98657 19.7841 9.98657 18.1272V12.9522Z" fill="#242424"/>
<path d="M19.3875 15.4847C19.3875 17.6211 17.6556 19.353 15.5192 19.353C13.3828 19.353 11.6509 17.6211 11.6509 15.4847C11.6509 13.3483 13.3828 11.6165 15.5192 11.6165C17.6556 11.6165 19.3875 13.3483 19.3875 15.4847Z" fill="#FCFCFC"/>
<path d="M14.5772 16.2071C14.1867 15.8166 14.1867 15.1834 14.5772 14.7929L14.936 14.4341C15.3265 14.0436 15.9597 14.0436 16.3502 14.4341L16.709 14.7929C17.0995 15.1834 17.0995 15.8166 16.709 16.2071L16.3502 16.5659C15.9597 16.9564 15.3265 16.9564 14.936 16.5659L14.5772 16.2071Z" fill="#242424"/>
</svg>
